<?xml version="1.0" standalone="no"?>
<!DOCTYPE svg PUBLIC "-//W3C//DTD SVG 1.1//EN" "http://www.w3.org/Graphics/SVG/1.1/DTD/svg11.dtd" >
<svg>
<metadata>
Created by FontForge 20090914 at Wed Sep 14 13:33:24 2022
 By www-data
&#194;&#169; 2015 Apple Inc. All rights reserved.
</metadata>
<defs>
<font id="SFUIDisplay-Semibold" horiz-adv-x="1694" >
  <font-face 
    font-family="SF UI Display"
    font-weight="600"
    font-stretch="normal"
    units-per-em="2048"
    panose-1="0 0 7 0 0 0 0 0 0 0"
    ascent="1638"
    descent="-410"
    x-height="1093"
    cap-height="1443"
    bbox="-554 -572.001 2613 2221"
    underline-thickness="165"
    underline-position="-208"
    unicode-range="U+0020-U+1F189"
  />
<missing-glyph horiz-adv-x="2048" 
d="M100 -494v234h1848v-234h-1848zM100 -52v234h1848v-234h-1848zM100 390v234h1848v-234h-1848zM100 832v234h1848v-234h-1848zM100 1274v234h1848v-234h-1848zM100 1716v234h1848v-234h-1848z" />
    <glyph glyph-name=".notdef" horiz-adv-x="2048" 
d="M100 -494v234h1848v-234h-1848zM100 -52v234h1848v-234h-1848zM100 390v234h1848v-234h-1848zM100 832v234h1848v-234h-1848zM100 1274v234h1848v-234h-1848zM100 1716v234h1848v-234h-1848z" />
    <glyph glyph-name="space" unicode=" " horiz-adv-x="458" 
 />
    <glyph glyph-name="exclam" unicode="!" horiz-adv-x="611" 
d="M177 1443h257l-20 -967h-217zM305 -20c-40.667 0 -75 13.833 -103 41.5s-42 61.167 -42 100.5s14 72.666 42 99.999s62.333 41 103 41s75.167 -13.667 103.5 -41s42.5 -60.666 42.5 -99.999s-14.167 -72.833 -42.5 -100.5s-62.833 -41.5 -103.5 -41.5z" />
    <glyph glyph-name="quotedbl" unicode="&#x22;" horiz-adv-x="884" 
d="M335 900h-217v543h217v-543zM766 900h-217v543h217v-543z" />
    <glyph glyph-name="numbersign" unicode="#" horiz-adv-x="1247" 
d="M1207 876h-225l-59 -291h213l-36 -190h-215l-79 -395h-194l80 395h-261l-80 -395h-192l79 395h-210l37 190h212l58 291h-202l37 187h202l78 380h192l-75 -380h260l77 380h193l-76 -380h222zM521 887l-64 -315h279l65 315h-280z" />
    <glyph glyph-name="dollar" unicode="$" horiz-adv-x="1294" 
d="M721 -137l-137.999 -0.000976562v130c-149.333 9.33301 -267.333 50.833 -354 124.5s-130.334 169.5 -131.001 287.5h244c4.66699 -57.333 28.5 -104.833 71.5 -142.5s99.5 -60.5 169.5 -68.5v437l-96 24c-116 28 -204.5 75.333 -265.5 142s-91.5 150 -91.5 250
c0 118 40 213.5 120 286.5s191 115.833 333 128.5v138h138v-138c134.667 -12 242.5 -55.167 323.5 -129.5s122.833 -167.833 125.5 -280.5h-239c-1.33301 53.333 -21.5 99 -60.5 137s-88.833 61 -149.5 69v-415l99 -21c126.667 -30 221 -77.667 283 -143
s93 -150.666 93 -255.999c0 -124.667 -41.333 -224.167 -124 -298.5s-199.667 -117.5 -351 -129.5v-132zM953.001 396.999c0 55.333 -18.833 99.833 -56.5 133.5s-96.167 58.5 -175.5 74.5v-413c73.333 4.66699 130.333 25 171 61s61 84 61 144zM376.001 1067
c0 -50 17.668 -91.5 53.001 -124.5s86.666 -56.5 153.999 -70.5v387c-60 -3.33301 -109.5 -23 -148.5 -59s-58.5 -80.333 -58.5 -133z" />
    <glyph glyph-name="percent" unicode="%" horiz-adv-x="1607" 
d="M1560 350c0 -112.667 -28.833 -202.334 -86.5 -269.001s-135.167 -100 -232.5 -100s-174.833 33.333 -232.5 100s-86.5 156.334 -86.5 269.001c0 112 28.833 201.167 86.5 267.5s135.167 99.5 232.5 99.5c98 0 175.667 -33.167 233 -99.5s86 -155.5 86 -267.5zM1241 137
c36.667 0 65.667 18.999 87 56.999s32 90 32 156c0 66.667 -10.333 118.5 -31 155.5s-50 55.5 -88 55.5c-36.667 0 -65.5 -18.833 -86.5 -56.5s-31.5 -89.167 -31.5 -154.5s10.5 -117.166 31.5 -155.499s49.833 -57.5 86.5 -57.5zM386 -0.000976562h-218l1055 1443h216z
M685 1098c0 -112.667 -28.833 -202.334 -86.5 -269.001s-135.167 -100 -232.5 -100s-174.833 33.333 -232.5 100s-86.5 156.334 -86.5 269.001c0 112 28.833 201.167 86.5 267.5s135.167 99.5 232.5 99.5c98 0 175.667 -33.167 233 -99.5s86 -155.5 86 -267.5zM366 884.999
c36.667 0 65.667 18.999 87 56.999s32 90 32 156c0 66.667 -10.333 118.5 -31 155.5s-50 55.5 -88 55.5c-36.667 0 -65.5 -18.833 -86.5 -56.5s-31.5 -89.167 -31.5 -154.5s10.5 -117.166 31.5 -155.499s49.833 -57.5 86.5 -57.5z" />
    <glyph glyph-name="ampersand" unicode="&#x26;" horiz-adv-x="1413" 
d="M1141 0l-119.999 129c-56.667 -48.667 -124.334 -86.5 -203.001 -113.5s-161.667 -40.5 -249 -40.5c-148.667 0 -268.5 37.167 -359.5 111.5s-136.5 172.166 -136.5 293.499c0 83.333 22.167 156.5 66.5 219.5s113.166 119.833 206.499 170.5
c5.33301 2.66699 12.833 6.66699 22.5 12s18.167 9.83301 25.5 13.5l13 6.5c-64.667 68 -110.667 127.167 -138 177.5s-41 101.833 -41 154.5c0 94.667 37.333 173.334 112 236.001s168.334 94 281.001 94c113.333 0 206.333 -30.667 279 -92s109 -139.666 109 -234.999
c0 -74 -23.833 -140.833 -71.5 -200.5s-123.167 -117.167 -226.5 -172.5l304 -329c38.667 69.333 58 173.666 58 312.999v64h216v-75c0 -190 -40.333 -343.333 -121 -460l263 -277h-290zM485.001 643c-62 -38.667 -106.5 -76.832 -133.5 -114.499
s-40.5 -80.834 -40.5 -129.501c0 -70 26 -126.667 78 -170s120.333 -65 205 -65c56.667 0 111.5 10.167 164.5 30.5s95.167 47.833 126.5 82.5l-358 389c-17.333 -7.33301 -31.333 -15 -42 -23zM590.001 887.002c72.667 37.333 124.833 74.168 156.5 110.501
s47.5 77.833 47.5 124.5c0 49.333 -16 89.5 -48 120.5s-73.333 46.5 -124 46.5s-92.167 -15.833 -124.5 -47.5s-48.5 -71.834 -48.5 -120.501c0 -35.333 10.5 -70.5 31.5 -105.5s57.5 -77.833 109.5 -128.5z" />
    <glyph glyph-name="quotesingle" unicode="'" horiz-adv-x="453" 
d="M335 900h-217v543h217v-543z" />
    <glyph glyph-name="parenleft" unicode="(" horiz-adv-x="683" 
d="M649 -277l-231 0.00292969c-35.333 44.667 -68 94.167 -98 148.5s-58.5 117.666 -85.5 189.999s-48.167 154.666 -63.5 246.999s-23 189.166 -23 290.499c0 102.667 7.16699 196.834 21.5 282.501s35.5 162.334 63.5 230.001s57 126.334 87 176.001s66 101.167 108 154.5
h224c-28 -32 -55.667 -73.667 -83 -125s-53.666 -112 -78.999 -182s-46 -151.833 -62 -245.5s-24 -189.834 -24 -288.501c0 -98 6.83301 -191 20.5 -279s33.667 -168.833 60 -242.5s51.666 -136.334 75.999 -188.001s53.833 -107.834 88.5 -168.501z" />
    <glyph glyph-name="parenright" unicode=")" horiz-adv-x="683" 
d="M33 -277c34.667 60.667 64.166 116.667 88.499 168s49.833 114 76.5 188s46.834 155 60.501 243s20.5 181 20.5 279c0 129.333 -14 254 -42 374s-59.667 216.667 -95 290s-72.333 132.333 -111 177h224c42 -54 78 -105.667 108 -155s59 -108 87 -176
s49.167 -144.833 63.5 -230.5s21.5 -179.5 21.5 -281.5c0 -101.333 -7.83301 -198.333 -23.5 -291s-37 -175 -64 -247s-55.5 -135.333 -85.5 -190s-62.667 -104 -98 -148h-231z" />
    <glyph glyph-name="asterisk" unicode="*" horiz-adv-x="992" 
d="M789 850l-236 172l31 -289h-176l31 290l-237 -173l-86 153l266 118l-266 118l86 154l238 -176l-32 294h176l-32 -294l237 176l87 -154l-266 -118l266 -118z" />
    <glyph glyph-name="plus" unicode="+" horiz-adv-x="1294" 
d="M759 464v-444h-225v444h-415v222h415v437h225v-437h416v-222h-416z" />
    <glyph glyph-name="comma" unicode="," horiz-adv-x="551" 
d="M280 -266h-190l89 511h242z" />
    <glyph glyph-name="hyphen" unicode="&#x2011;" horiz-adv-x="895" 
d="M776 464h-657v222h657v-222z" />
    <glyph glyph-name="hyphen" unicode="-" horiz-adv-x="895" 
d="M776 464h-657v222h657v-222z" />
    <glyph glyph-name="period" unicode="." horiz-adv-x="551" 
d="M276 -11c-40.667 0 -74.834 13.833 -102.501 41.5s-41.5 61.834 -41.5 102.501s13.833 74.834 41.5 102.501s61.834 41.5 102.501 41.5c40 0 73.833 -13.833 101.5 -41.5s41.5 -61.834 41.5 -102.501s-13.833 -74.834 -41.5 -102.501s-61.5 -41.5 -101.5 -41.5z" />
    <glyph glyph-name="slash" unicode="/" horiz-adv-x="651" 
d="M223 -306h-223l424 1750h227z" />
    <glyph glyph-name="zero" unicode="0" horiz-adv-x="1300" 
d="M651 -29c-176 0 -314.167 67.167 -414.5 201.5s-150.5 317.833 -150.5 550.5c0 231.333 50.333 414 151 548s238.667 201 414 201s313 -66.833 413 -200.5s150 -316.167 150 -547.5c0 -232 -50 -415.5 -150 -550.5s-237.667 -202.5 -413 -202.5zM651 182
c95.333 0 169.5 47.666 222.5 142.999s79.5 228 79.5 398c0 168.667 -26.667 300.5 -80 395.5s-127.333 142.5 -222 142.5s-169.167 -47.667 -223.5 -143s-81.5 -226.666 -81.5 -393.999c0 -170 26.833 -302.833 80.5 -398.5s128.5 -143.5 224.5 -143.5z" />
    <glyph glyph-name="one" unicode="1" horiz-adv-x="956" 
d="M471 0v1197h-6l-373 -262v243l377 265h255v-1443h-253z" />
    <glyph glyph-name="two" unicode="2" horiz-adv-x="1207" 
d="M93 1015c0 133.333 48 242.834 144 328.501s218.667 128.5 368 128.5c143.333 0 261.5 -39 354.5 -117s139.5 -175.667 139.5 -293c0 -80.667 -22.5 -156.834 -67.5 -228.501s-119.5 -159.834 -223.5 -264.501l-357 -353v-5h670v-211h-1014v174l531 528
c82 84 137.333 149.667 166 197s43 98 43 152c0 60 -23.833 110.667 -71.5 152s-107.167 62 -178.5 62c-75.333 0 -137.833 -23.667 -187.5 -71s-74.5 -106.666 -74.5 -177.999v-4h-242v3z" />
    <glyph glyph-name="three" unicode="3" horiz-adv-x="1261" 
d="M438 643l0.000976562 193.999h174c74 0 134 20.5 180 61.5s69 93.833 69 158.5c0 64 -21.833 115 -65.5 153s-105.167 57 -184.5 57c-74 0 -134.333 -20.167 -181 -60.5s-72.667 -94.166 -78 -161.499h-240c7.33301 130 57.166 233.667 149.499 311
s212.833 116 361.5 116c142.667 0 259.334 -35.333 350.001 -106s136 -162 136 -274c0 -88.667 -27.167 -163.5 -81.5 -224.5s-126.5 -99.167 -216.5 -114.5v-6c108.667 -8 195.167 -43.167 259.5 -105.5s96.5 -143.5 96.5 -243.5c0 -126.667 -51.5 -229.5 -154.5 -308.5
s-233.833 -118.5 -392.5 -118.5c-157.333 0 -284.333 39.5 -381 118.5s-148.334 183.167 -155.001 312.5h246c6 -66.667 35 -120 87 -160s120.333 -60 205 -60c83.333 0 151.333 21 204 63s79 96.333 79 163c0 72.667 -25.833 130 -77.5 172s-122.167 63 -211.5 63h-178z
" />
    <glyph glyph-name="four" unicode="4" horiz-adv-x="1295" 
d="M794 0l-0.000976562 273h-720v222c118.667 224 318.334 540 599.001 948h367v-959h194v-211h-194v-273h-246zM307.999 485l-0.000976562 -7h490v774h-4c-122 -176.667 -219.667 -322.667 -293 -438s-137.666 -225 -192.999 -329z" />
    <glyph glyph-name="five" unicode="5" horiz-adv-x="1250" 
d="M641 -29c-148.667 0 -272 40.499 -370 121.499s-149.667 185.5 -155 313.5h242c8 -66.667 38.5 -121 91.5 -163s117.5 -63 193.5 -63c86 0 155.833 27 209.5 81s80.5 123.667 80.5 209c0 86.667 -26.833 157.5 -80.5 212.5s-122.834 82.5 -207.501 82.5
c-58.667 0 -112.167 -12.667 -160.5 -38s-85.833 -60.666 -112.5 -105.999h-234l75 822h884v-211h-680l-37 -422h6c30 46.667 73.333 83.5 130 110.5s120.334 40.5 191.001 40.5c138 0 251.667 -45.5 341 -136.5s134 -206.833 134 -347.5
c0 -150 -50.167 -271.833 -150.5 -365.5s-230.5 -140.5 -390.5 -140.5z" />
    <glyph glyph-name="six" unicode="6" horiz-adv-x="1284" 
d="M667 -30c-105.333 0 -199.166 24.6689 -281.499 74.002s-147.833 120.333 -196.5 213c-68.667 119.333 -103 268.666 -103 447.999c0 240 52.333 428 157 564s248.667 204 432 204c132 0 245 -35.833 339 -107.5s151.667 -165.834 173 -282.501h-256
c-16.667 54.667 -48.334 98.334 -95.001 131.001s-101 49 -163 49c-108 0 -192 -48 -252 -144s-89.667 -230.667 -89 -404h5c30.667 71.333 81 128.333 151 171s150 64 240 64c137.333 0 251.333 -45.167 342 -135.5s136 -203.833 136 -340.5
c0 -146.667 -50.667 -267.334 -152 -362.001s-230.333 -142 -387 -142zM665 181.002c80 0 147.834 27.6699 203.501 83.0029s83.5 122.666 83.5 201.999c0 81.333 -26.833 148.666 -80.5 201.999s-121.834 80 -204.501 80s-151.5 -26.5 -206.5 -79.5
s-82.5 -119.5 -82.5 -199.5c0 -80.667 27.667 -148.834 83 -204.501s123.333 -83.5 204 -83.5z" />
    <glyph glyph-name="seven" unicode="7" horiz-adv-x="1153" 
d="M185 0l633 1227v5h-750v211h1004v-215l-617 -1228h-270z" />
    <glyph glyph-name="eight" unicode="8" horiz-adv-x="1296" 
d="M648 -29c-166.667 0 -301.999 39.001 -405.999 117.001s-156 178.667 -156 302c0 93.333 30.167 173.833 90.5 241.5s139.5 110.834 237.5 129.501v5c-82 21.333 -147.667 61.5 -197 120.5s-74 127.5 -74 205.5c0 110 47.5 200.833 142.5 272.5
s215.833 107.5 362.5 107.5c147.333 0 268.166 -35.833 362.499 -107.5s141.5 -162.834 141.5 -273.501c0 -77.333 -24.5 -145.333 -73.5 -204s-114.5 -99 -196.5 -121v-5c98.667 -19.333 178.167 -62.833 238.5 -130.5s90.5 -147.834 90.5 -240.501
c0 -123.333 -52.333 -224 -157 -302s-240 -117 -406 -117zM648.001 168.001c86 0 156.667 22.667 212 68s83 103 83 173c0 70.667 -27.5 128.667 -82.5 174s-125.833 68 -212.5 68c-86 0 -156.667 -22.833 -212 -68.5s-83 -103.5 -83 -173.5s27.667 -127.667 83 -173
s126 -68 212 -68zM648.001 848.001c72.667 0 132.334 20.167 179.001 60.5s70 91.5 70 153.5c0 62.667 -23.333 114.167 -70 154.5s-106.334 60.5 -179.001 60.5c-73.333 0 -133.333 -20.167 -180 -60.5s-70 -91.833 -70 -154.5c0 -62 23.333 -113.167 70 -153.5
s106.667 -60.5 180 -60.5z" />
    <glyph glyph-name="nine" unicode="9" horiz-adv-x="1286" 
d="M611 -29c-132.667 0 -246.166 36 -340.499 108s-151.833 166 -172.5 282h256c16 -54.667 47.833 -98.5 95.5 -131.5s102.834 -49.5 165.501 -49.5c107.333 0 190.833 48.167 250.5 144.5s88.5 231.166 86.5 404.499h-2h-1h-1
c-28.667 -71.333 -77.834 -128.5 -147.501 -171.5s-150.834 -64.5 -243.501 -64.5c-137.333 0 -251.5 45.333 -342.5 136s-136.5 204.334 -136.5 341.001c0 146 50.833 266.333 152.5 361s230.5 142 386.5 142c106 0 200.5 -24.667 283.5 -74s148.5 -120 196.5 -212
c68.667 -119.333 103 -269 103 -449c0 -240.667 -52 -428.667 -156 -564s-248.333 -203 -433 -203zM618.001 695c82.667 0 151.669 26.668 207.002 80.001s83 119.666 83 198.999c0 80.667 -27.833 148.667 -83.5 204s-123.834 83 -204.501 83
s-148.834 -27.333 -204.501 -82s-83.5 -121.667 -83.5 -201c0 -81.333 27.167 -148.833 81.5 -202.5s122.5 -80.5 204.5 -80.5z" />
    <glyph glyph-name="colon" unicode=":" horiz-adv-x="551" 
d="M276 -11c-40.667 0 -74.834 13.833 -102.501 41.5s-41.5 61.834 -41.5 102.501s13.833 74.834 41.5 102.501s61.834 41.5 102.501 41.5c40 0 73.833 -13.833 101.5 -41.5s41.5 -61.834 41.5 -102.501s-13.833 -74.834 -41.5 -102.501s-61.5 -41.5 -101.5 -41.5zM276 711
c-40.667 0 -74.834 14 -102.501 42s-41.5 62 -41.5 102c0 40.667 13.833 74.834 41.5 102.501s61.834 41.5 102.501 41.5c40 0 73.833 -13.833 101.5 -41.5s41.5 -61.834 41.5 -102.501c0 -40 -13.833 -74 -41.5 -102s-61.5 -42 -101.5 -42z" />
    <glyph glyph-name="semicolon" unicode=";" horiz-adv-x="551" 
d="M276 711c-40.667 0 -74.834 14 -102.501 42s-41.5 62 -41.5 102c0 40.667 13.833 74.834 41.5 102.501s61.834 41.5 102.501 41.5c40 0 73.833 -13.833 101.5 -41.5s41.5 -61.834 41.5 -102.501c0 -40 -13.833 -74 -41.5 -102s-61.5 -42 -101.5 -42zM247 -266h-189
l87 511h244z" />
    <glyph glyph-name="less" unicode="&#x3c;" horiz-adv-x="1294" 
d="M1110 933l-675 -349v-10l675 -333v-253l-926 489v195l926 513v-252z" />
    <glyph glyph-name="equal" unicode="=" horiz-adv-x="1294" 
d="M1158 249h-1022v216h1022v-216zM1158 686h-1022v216h1022v-216z" />
    <glyph glyph-name="greater" unicode="&#x3e;" horiz-adv-x="1294" 
d="M184 934v252l926 -513v-195l-926 -489v252l675 334v10z" />
    <glyph glyph-name="question" unicode="?" horiz-adv-x="1060" 
d="M54 1048c4 121.333 46.832 219.504 128.499 294.504s194.834 112.5 339.501 112.5c136 0 246.167 -35.333 330.5 -106s126.5 -161.334 126.5 -272.001c0 -143.333 -70.667 -257 -212 -341c-65.333 -38 -109.666 -73 -132.999 -105s-35 -73 -35 -123v-58h-232l-1 71
c-4.66699 72.667 7.83301 133.667 37.5 183s79.5 94.666 149.5 135.999c62.667 38 106 73.167 130 105.5s36 73.166 36 122.499c0 53.333 -19.333 97.166 -58 131.499s-89.334 51.5 -152.001 51.5c-64 0 -115.667 -18.333 -155 -55s-61 -86 -65 -148h-235zM485.999 -19.9961
c-40.667 0 -75.167 13.833 -103.5 41.5s-42.5 61.167 -42.5 100.5s14.167 72.666 42.5 99.999s62.833 41 103.5 41s75 -13.667 103 -41s42 -60.666 42 -99.999s-14 -72.833 -42 -100.5s-62.333 -41.5 -103 -41.5z" />
    <glyph glyph-name="at" unicode="@" horiz-adv-x="1803" 
d="M892 853c-58.667 0 -104.168 -22.002 -136.501 -66.002s-48.5 -105.333 -48.5 -184c0 -77.333 16.333 -138.166 49 -182.499s77.334 -66.5 134.001 -66.5c59.333 0 106.333 22.333 141 67s52 105.334 52 182.001s-17.167 137.5 -51.5 182.5s-80.833 67.5 -139.5 67.5z
M924.999 1444c156 0 295.001 -30.667 417.001 -92s217.167 -148.333 285.5 -261s102.5 -242 102.5 -388c0 -159.333 -34.5 -286.333 -103.5 -381s-163.5 -142 -283.5 -142c-60.667 0 -112.667 14.667 -156 44s-69.333 68.333 -78 117h-12
c-20.667 -50.667 -52.167 -89.334 -94.5 -116.001s-92.833 -40 -151.5 -40c-104 0 -187.833 38.833 -251.5 116.5s-95.5 180.167 -95.5 307.5c0 121.333 31.5 220 94.5 296s145.167 114 246.5 114c54 0 102.5 -12.667 145.5 -38s74.167 -59.666 93.5 -102.999h12v120h183
v-554c0 -34.667 8.66699 -62 26 -82s42.666 -30 75.999 -30c54 0 97.667 32.333 131 97s50 153.334 50 266.001c0 181.333 -59.333 327 -178 437s-274.667 165 -468 165c-127.333 0 -241.333 -29.167 -342 -87.5s-179 -140.333 -235 -246s-84 -225.5 -84 -359.5
c0 -106 17.167 -202 51.5 -288s82.333 -157.333 144 -214s135.167 -100.334 220.5 -131.001s179 -46 281 -46c131.333 0 229.666 13.333 294.999 40v-148c-85.333 -27.333 -187 -41 -305 -41c-124.667 0 -239.5 19 -344.5 57s-195.167 92.167 -270.5 162.5
s-134.166 158.166 -176.499 263.499s-63.5 222.333 -63.5 351c0 122.667 20.667 235.834 62 339.501s98.5 191.667 171.5 264s161.5 128.833 265.5 169.5s217 61 339 61z" />
    <glyph glyph-name="A" unicode="A" horiz-adv-x="1369" 
d="M1070 0l-123 373h-531l-123 -373h-266l512 1443h291l512 -1443h-272zM678 1188l-202 -616h410l-201 616h-7z" />
    <glyph glyph-name="B" unicode="B" horiz-adv-x="1296" 
d="M744 0l-617 -0.000976562v1443h611c131.333 0 236 -32.667 314 -98s117 -152.666 117 -261.999c0 -77.333 -25.333 -146 -76 -206s-113 -96 -187 -108v-8c98.667 -9.33301 179 -46.333 241 -111s93 -144.667 93 -240c0 -127.333 -44.167 -227.5 -132.5 -300.5
s-209.5 -109.5 -363.5 -109.5zM385 1242l0.000976562 -406.999h248c90 0 159.333 18.167 208 54.5s73 88.166 73 155.499c0 62.667 -20.833 111.167 -62.5 145.5s-100.834 51.5 -177.501 51.5h-289zM385.001 201h299.999c94.667 0 166.834 19.333 216.501 58
s74.5 95 74.5 169c0 73.333 -25.5 129 -76.5 167s-125.833 57 -224.5 57h-290v-451z" />
    <glyph glyph-name="C" unicode="C" horiz-adv-x="1439" 
d="M749 -24c-206.667 0 -370.163 66.667 -490.496 200s-180.5 315.333 -180.5 546c0 229.333 60.5 410.833 181.5 544.5s284.167 200.5 489.5 200.5c168 0 309.667 -47.833 425 -143.5s181 -220.834 197 -375.501h-254c-16.667 90.667 -58.834 163.334 -126.501 218.001
s-148.167 82 -241.5 82c-124 0 -222.833 -47.5 -296.5 -142.5s-110.5 -222.833 -110.5 -383.5c0 -162 36.667 -290.333 110 -385s172.666 -142 297.999 -142c95.333 0 175.5 24.5 240.5 73.5s107.5 116.833 127.5 203.5h253c-22.667 -154.667 -89.334 -276 -200.001 -364
s-251.334 -132 -422.001 -132z" />
    <glyph glyph-name="D" unicode="D" horiz-adv-x="1424" 
d="M127 1443h534c216 0 384.333 -62.667 505 -188s181 -302 181 -530c0 -228.667 -60.333 -406.667 -181 -534s-289 -191 -505 -191h-534v1443zM385 1225l0.000976562 -1007h249c145.333 0 256.666 43.333 333.999 130s116 212 116 376c0 161.333 -39 285.166 -117 371.499
s-189 129.5 -333 129.5h-249z" />
    <glyph glyph-name="E" unicode="E" horiz-adv-x="1158" 
d="M1061 218v-218h-934v1443h934v-218h-676v-390h639v-205h-639v-412h676z" />
    <glyph glyph-name="F" unicode="F" horiz-adv-x="1107" 
d="M385 0h-258v1443h920v-218h-662v-426h605v-210h-605v-589z" />
    <glyph glyph-name="G" unicode="G" horiz-adv-x="1473" 
d="M1390 602c0 -196 -55.501 -349.333 -166.501 -460s-265.167 -166 -462.5 -166c-210.667 0 -377.167 67.167 -499.5 201.5s-183.5 317.5 -183.5 549.5c0 228.667 60.833 409.167 182.5 541.5s286.834 198.5 495.501 198.5c164 0 303 -44.333 417 -133
s182.667 -205.334 206 -350.001h-262c-24.667 82.667 -68.667 147.334 -132 194.001s-139.333 70 -228 70c-130 0 -231.667 -45.667 -305 -137s-110 -218.333 -110 -381c0 -166 37.833 -296.667 113.5 -392s178.5 -143 308.5 -143c108.667 0 197.5 31.333 266.5 94
s104.5 144.667 106.5 246l1 24h-348v197h600v-154z" />
    <glyph glyph-name="H" unicode="H" horiz-adv-x="1471" 
d="M1344 0h-257v626h-702v-626h-258v1443h258v-600h702v600h257v-1443z" />
    <glyph glyph-name="I" unicode="I" horiz-adv-x="512" 
d="M385 0h-258v1443h258v-1443z" />
    <glyph glyph-name="J" unicode="J" horiz-adv-x="1096" 
d="M35 394h251.001c1.33301 -59.333 20.833 -107.333 58.5 -144s86.5 -55 146.5 -55c69.333 0 122.166 20.5 158.499 61.5s54.5 100.5 54.5 178.5v1008h257v-1010c0 -146.667 -41.167 -260.667 -123.5 -342s-196.833 -122 -343.5 -122c-138 0 -249 38.833 -333 116.5
s-126 180.5 -126 308.5z" />
    <glyph glyph-name="K" unicode="K" horiz-adv-x="1319" 
d="M385 0h-258v1443h258v-675h9l576 675h297l-556 -640l599 -803h-314l-469 630l-142 -166v-464z" />
    <glyph glyph-name="L" unicode="L" horiz-adv-x="1098" 
d="M1040 218v-218h-913v1443h258v-1225h655z" />
    <glyph glyph-name="M" unicode="M" horiz-adv-x="1744" 
d="M1616 0h-232v1024h-7l-417 -1012h-176l-417 1012h-7v-1024h-233v1443h299l442 -1089h8l442 1089h298v-1443z" />
    <glyph glyph-name="N" unicode="N" horiz-adv-x="1452" 
d="M376 0h-249v1443h224l716 -1011h9v1011h248v-1443h-222l-717 1012h-9v-1012z" />
    <glyph glyph-name="O" unicode="O" horiz-adv-x="1525" 
d="M763 1467c210 0 376.5 -67 499.5 -201s184.5 -315.667 184.5 -545s-61.5 -410.833 -184.5 -544.5s-289.5 -200.5 -499.5 -200.5c-210.667 0 -377.5 66.833 -500.5 200.5s-184.5 315.167 -184.5 544.5s61.5 411 184.5 545s289.833 201 500.5 201zM763 1247
c-128.667 0 -231 -47.333 -307 -142s-114 -222.667 -114 -384c0 -160.667 38 -288.334 114 -383.001s178.333 -142 307 -142s231 47.333 307 142s114 222.334 114 383.001s-38 288.5 -114 383.5s-178.333 142.5 -307 142.5z" />
    <glyph glyph-name="P" unicode="P" horiz-adv-x="1255" 
d="M127 1443l582 -0.00195312c143.333 0 260 -44.667 350 -134s135 -205.666 135 -348.999s-46 -259.666 -138 -348.999s-211.333 -134 -358 -134h-313v-477h-258v1443zM385 1232l0.000976562 -547h255c92.667 0 164.5 24 215.5 72s76.5 115.667 76.5 203
c0 86.667 -25.333 153.667 -76 201s-122.334 71 -215.001 71h-256z" />
    <glyph glyph-name="Q" unicode="Q" horiz-adv-x="1525" 
d="M1391 -146h-260l-114 163c-75.333 -27.333 -160 -41 -254 -41c-210.667 0 -377.5 66.667 -500.5 200s-184.5 315 -184.5 545c0 229.333 61.5 411 184.5 545s289.833 201 500.5 201c210 0 376.5 -67 499.5 -201s184.5 -315.667 184.5 -545
c0 -131.333 -20.833 -248 -62.5 -350s-101.5 -184 -179.5 -246zM763 194c40 0 80.333 6 121 18l-166 240h247l85 -116c89.333 90.667 134 219 134 385c0 161.333 -38 289.666 -114 384.999s-178.333 143 -307 143s-231 -47.667 -307 -143s-114 -223.666 -114 -384.999
s38 -289.5 114 -384.5s178.333 -142.5 307 -142.5z" />
    <glyph glyph-name="R" unicode="R" horiz-adv-x="1287" 
d="M385 1234v-493h298c82 0 145.5 21.667 190.5 65s67.5 104 67.5 182c0 76 -23.5 136 -70.5 180s-111.5 66 -193.5 66h-292zM385 543v-542.998h-258v1443h580c155.333 0 277.333 -40.167 366 -120.5s133 -189.833 133 -328.5c0 -96.667 -24 -181.834 -72 -255.501
s-114.667 -125.834 -200 -156.501l315 -582h-295l-283 543h-286z" />
    <glyph glyph-name="S" unicode="S" horiz-adv-x="1265" 
d="M68 406l249.999 0.000976562c8 -66 42 -119.167 102 -159.5s134.333 -60.5 223 -60.5c86.667 0 157.5 19.333 212.5 58s82.5 88 82.5 148c0 52 -20 94.167 -60 126.5s-105.333 59.166 -196 80.499l-187 44c-132.667 30.667 -231.167 78.334 -295.5 143.001
s-96.5 148.667 -96.5 252c0 127.333 50 230.666 150 309.999s229 119 387 119c158.667 0 286.5 -39.167 383.5 -117.5s147.167 -181.166 150.5 -308.499h-246c-6 67.333 -35 120.166 -87 158.499s-119.667 57.5 -203 57.5c-81.333 0 -147.166 -18.333 -197.499 -55
s-75.5 -85 -75.5 -145c0 -48 19.5 -87 58.5 -117s102.833 -55.667 191.5 -77l166 -38c146 -33.333 252 -82 318 -146s99 -149.667 99 -257c0 -136.667 -51.167 -245.167 -153.5 -325.5s-240.833 -120.5 -415.5 -120.5c-166.667 0 -300.5 38.5 -401.5 115.5
s-154.167 181.833 -159.5 314.5z" />
    <glyph glyph-name="T" unicode="T" horiz-adv-x="1230" 
d="M744 0h-258v1225h-438v218h1134v-218h-438v-1225z" />
    <glyph glyph-name="U" unicode="U" horiz-adv-x="1441" 
d="M385 1443l0.000976562 -911c0 -100 29.5 -180.167 88.5 -240.5s141.167 -90.5 246.5 -90.5s187.666 30.167 246.999 90.5s89 140.5 89 240.5v911h257v-934c0 -159.333 -53.5 -288 -160.5 -386s-251.167 -147 -432.5 -147c-180.667 0 -324.667 49 -432 147
s-161 226.667 -161 386v934h258z" />
    <glyph glyph-name="V" unicode="V" horiz-adv-x="1354" 
d="M825 0h-296l-502 1443h284l366 -1166h6l366 1166h278z" />
    <glyph glyph-name="W" unicode="W" horiz-adv-x="1946" 
d="M968 1044l-295 -1044h-243l-387 1443h268l250 -1093h8l290 1093h228l290 -1093h8l250 1093h268l-387 -1443h-243l-295 1044h-10z" />
    <glyph glyph-name="X" unicode="X" horiz-adv-x="1366" 
d="M44 0l470 723v7l-466 713h305l334 -542h8l338 542h289l-481 -719v-7l473 -717h-297l-340 530h-8l-344 -530h-281z" />
    <glyph glyph-name="Y" unicode="Y" horiz-adv-x="1323" 
d="M790 0h-257v569l-506 874h283l350 -628h6l349 628h281l-506 -874v-569z" />
    <glyph glyph-name="Z" unicode="Z" horiz-adv-x="1281" 
d="M92 0v172l766 1046v7h-745v218h1057v-172l-762 -1046v-7h781v-218h-1097z" />
    <glyph glyph-name="bracketleft" unicode="[" horiz-adv-x="722" 
d="M168 1444h530v-186h-290v-1312h303v-186h-543v1684z" />
    <glyph glyph-name="backslash" unicode="\" horiz-adv-x="651" 
d="M429 -306l-429 1750h227l424 -1750h-222z" />
    <glyph glyph-name="bracketright" unicode="]" horiz-adv-x="722" 
d="M553 1444v-1684h-542v186h304v1312h-291v186h529z" />
    <glyph glyph-name="asciicircum" unicode="^" horiz-adv-x="948" 
d="M465 1229l-196 -416h-221l310 617h234l308 -617h-225l-193 416h-17z" />
    <glyph glyph-name="underscore" unicode="_" horiz-adv-x="846" 
d="M895 -292h-944v185h944v-185z" />
    <glyph glyph-name="grave" unicode="`" horiz-adv-x="1008" 
d="M734 1258h-201l-262 307h246z" />
    <glyph glyph-name="a" unicode="a" horiz-adv-x="1116" 
d="M501 179c76 0 139.333 21.333 190 64s76 97 76 163v83l-250 -16c-138.667 -9.33301 -208 -59.333 -208 -150c0 -44 17.5 -79 52.5 -105s81.5 -39 139.5 -39zM428 -12c-108 0 -196.502 30 -265.502 90s-103.5 138.333 -103.5 235c0 97.333 36.167 173.333 108.5 228
s177.5 86.334 315.5 95.001l284 17v80c0 57.333 -18.5 101.5 -55.5 132.5s-89.167 46.5 -156.5 46.5c-56 0 -103 -13.333 -141 -40s-61.333 -62.334 -70 -107.001h-230c3.33301 100 46.833 182.167 130.5 246.5s189.834 96.5 318.501 96.5
c136.667 0 245.834 -32.667 327.501 -98s122.5 -152.333 122.5 -261v-749h-239v176h-6c-30 -58 -75.833 -103.833 -137.5 -137.5s-129.167 -50.5 -202.5 -50.5z" />
    <glyph glyph-name="b" unicode="b" horiz-adv-x="1223" 
d="M710 -12c-79.333 0 -148.999 17.1689 -208.999 51.502s-106 83.166 -138 146.499h-6v-186h-243v1510h249v-601h6c31.333 62 76.833 110.167 136.5 144.5s128.167 51.5 205.5 51.5c138 0 247.833 -50.333 329.5 -151s122.5 -236.667 122.5 -408
c0 -170.667 -40.833 -306.334 -122.5 -407.001s-191.834 -151 -330.501 -151zM636.001 898.002c-82 0 -148.167 -32.335 -198.5 -97.002s-75.5 -149.667 -75.5 -255s25.167 -190.166 75.5 -254.499s116.5 -96.5 198.5 -96.5c82.667 0 148.667 31.833 198 95.5
s74 148.834 74 255.501s-24.833 192 -74.5 256s-115.5 96 -197.5 96z" />
    <glyph glyph-name="c" unicode="c" horiz-adv-x="1112" 
d="M1063 706l-235 -0.000976562c-9.33301 59.333 -35.333 107.333 -78 144s-98 55 -166 55c-82 0 -147.667 -32.333 -197 -97s-74 -151.667 -74 -261c0 -112 24.667 -200 74 -264s115.333 -96 198 -96c66.667 0 121.167 16.667 163.5 50s69.166 81 80.499 143h235
c-10.667 -120 -59.5 -216 -146.5 -288s-198.5 -108 -334.5 -108c-159.333 0 -286.333 50.5 -381 151.5s-142 238.167 -142 411.5c0 170.667 47.333 306.834 142 408.501s221 152.5 379 152.5c139.333 0 252.333 -38 339 -114s134.334 -172 143.001 -288z" />
    <glyph glyph-name="d" unicode="d" horiz-adv-x="1221" 
d="M515 -12c-136.667 0 -246.668 50.8311 -330.001 152.498s-125 237.167 -125 406.5c0 168.667 41.667 303.834 125 405.501s193 152.5 329 152.5c78 0 146.667 -17.333 206 -52s104 -82.667 134 -144h6v601h249v-1510h-244v186h-5
c-30 -61.333 -75.167 -109.666 -135.5 -144.999s-130.166 -53 -209.499 -53zM587.999 897.998c-82.667 0 -148.835 -32.001 -198.502 -96.001s-74.5 -149.333 -74.5 -256c0 -107.333 24.833 -192.666 74.5 -255.999s115.834 -95 198.501 -95s148.834 32 198.501 96
s74.5 149 74.5 255c0 105.333 -25 190.333 -75 255s-116 97 -198 97z" />
    <glyph glyph-name="e" unicode="e" horiz-adv-x="1135" 
d="M574 914c-72.667 0 -133.332 -24.167 -181.999 -72.5s-75.667 -111.5 -81 -189.5h518c-2.66699 78.667 -27.334 142 -74.001 190s-107 72 -181 72zM830.002 325h234.001c-16 -101.333 -68.333 -183.5 -157 -246.5s-196.667 -94.5 -324 -94.5
c-161.333 0 -288.833 50 -382.5 150s-140.5 236 -140.5 408s46.5 309.333 139.5 412s217.833 154 374.5 154c153.333 0 275 -48.667 365 -146s135 -228.666 135 -393.999v-82h-765v-15c0 -88 25.667 -158.833 77 -212.5s118.666 -80.5 201.999 -80.5
c60 0 111.667 13.167 155 39.5s72.333 62.166 87 107.499z" />
    <glyph glyph-name="f" unicode="f" horiz-adv-x="696" 
d="M176 0l0.00195312 899.999h-149v193h149v98c0 104 25.833 179.167 77.5 225.5s136.167 69.5 253.5 69.5c45.333 0 85.666 -3.33301 120.999 -10v-181c-23.333 5.33301 -50 8 -80 8c-44.667 0 -76.834 -9.66699 -96.501 -29s-29.5 -50.666 -29.5 -93.999v-87h207v-193
h-204v-900h-249z" />
    <glyph glyph-name="g" unicode="g" horiz-adv-x="1215" 
d="M585 205c83.333 0 150 31.167 200 93.5s75 145.833 75 250.5c0 105.333 -25.167 189.833 -75.5 253.5s-116.833 95.5 -199.5 95.5c-82 0 -147.5 -31.5 -196.5 -94.5s-73.5 -147.833 -73.5 -254.5c0 -105.333 24.5 -189 73.5 -251s114.5 -93 196.5 -93zM585 -412
c-132 0 -242.831 30.668 -332.498 92.001s-141.167 140.333 -154.5 237h248c14 -43.333 43.333 -78 88 -104s97.667 -39 159 -39c83.333 0 148.666 21.5 195.999 64.5s71 100.5 71 172.5v183h-6c-29.333 -58.667 -74.333 -105 -135 -139s-130 -51 -208 -51
c-136 0 -245.167 49.5 -327.5 148.5s-123.5 231.5 -123.5 397.5c0 169.333 41.167 304.166 123.5 404.499s193.166 150.5 332.499 150.5c77.333 0 146 -17.333 206 -52s106 -82.667 138 -144h5v184h244v-1075c0 -130 -47.833 -234.167 -143.5 -312.5
s-222.5 -117.5 -380.5 -117.5z" />
    <glyph glyph-name="h" unicode="h" horiz-adv-x="1194" 
d="M114 0l0.000976562 1510h246v-607h5c65.333 135.333 180.333 203 345 203c119.333 0 213 -36.667 281 -110s102 -172.666 102 -297.999v-698h-249v648c0 78 -19.333 138.667 -58 182s-95.334 65 -170.001 65c-78 0 -139.667 -24.833 -185 -74.5s-68 -115.5 -68 -197.5
v-623h-249z" />
    <glyph glyph-name="i" unicode="i" horiz-adv-x="475" 
d="M113 0v1093h249v-1093h-249zM237 1232c-38.667 0 -71.667 13.333 -99 40s-41 59 -41 97c0 38.667 13.667 71.167 41 97.5s60.333 39.5 99 39.5c39.333 0 72.5 -13.167 99.5 -39.5s40.5 -58.833 40.5 -97.5s-13.5 -71.167 -40.5 -97.5s-60.167 -39.5 -99.5 -39.5z" />
    <glyph glyph-name="j" unicode="j" horiz-adv-x="475" 
d="M362 1093l0.000976562 -1145c0 -220.667 -123 -331 -369 -331c-30 0 -50.333 0.666992 -61 2v191c1.33301 0 6.66602 -0.166992 15.999 -0.5s15 -0.5 17 -0.5c53.333 0 91.333 11 114 33s34 58.667 34 110v1141h249zM237.001 1232c-38.667 0 -71.667 13.333 -99 40
s-41 59 -41 97c0 38.667 13.667 71.167 41 97.5s60.333 39.5 99 39.5c39.333 0 72.5 -13.167 99.5 -39.5s40.5 -58.833 40.5 -97.5s-13.5 -71.167 -40.5 -97.5s-60.167 -39.5 -99.5 -39.5z" />
    <glyph glyph-name="k" unicode="k" horiz-adv-x="1090" 
d="M366 634l418 459h289l-442 -471l460 -622h-288l-352 471l-88 -89v-382h-249v1510h249v-876h3z" />
    <glyph glyph-name="l" unicode="l" horiz-adv-x="478" 
d="M114 0v1510h249v-1510h-249z" />
    <glyph glyph-name="m" unicode="m" horiz-adv-x="1771" 
d="M106 0l0.000976562 1093h239v-192h5c24 63.333 63.833 113.333 119.5 150s119.5 55 191.5 55c77.333 0 142.5 -18.833 195.5 -56.5s89.833 -91.167 110.5 -160.5h5c26.667 66.667 70.5 119.5 131.5 158.5s130.833 58.5 209.5 58.5c107.333 0 193.666 -33 258.999 -99
s98 -153.667 98 -263v-744h-249v683c0 68 -17.333 120.5 -52 157.5s-84 55.5 -148 55.5c-62.667 0 -113.667 -21 -153 -63s-59 -96.333 -59 -163v-670h-242v697c0 61.333 -17.667 109.833 -53 145.5s-83.333 53.5 -144 53.5c-62.667 0 -114.167 -21.833 -154.5 -65.5
s-60.5 -99.167 -60.5 -166.5v-664h-249z" />
    <glyph glyph-name="n" unicode="n" horiz-adv-x="1174" 
d="M106 0v1093h239v-190h5c66 135.333 180.333 203 343 203c120.667 0 214.167 -35.833 280.5 -107.5s99.5 -171.167 99.5 -298.5v-700h-249v651c0 78.667 -18.833 139 -56.5 181s-93.5 63 -167.5 63c-76 0 -135.833 -24.5 -179.5 -73.5s-65.5 -113.833 -65.5 -194.5v-627
h-249z" />
    <glyph glyph-name="o" unicode="o" horiz-adv-x="1173" 
d="M586 -16c-161.333 0 -289.333 50.334 -384 151.001s-142 238 -142 412c0 172 47.5 308.5 142.5 409.5s222.833 151.5 383.5 151.5c161.333 0 289.5 -50.333 384.5 -151s142.5 -237.334 142.5 -410.001c0 -174 -47.333 -311.333 -142 -412s-223 -151 -385 -151z
M586 183.001c86 0 153.167 31.832 201.5 95.499s72.5 152.834 72.5 267.501c0 114 -24.167 203 -72.5 267s-115.5 96 -201.5 96c-85.333 0 -152.166 -32 -200.499 -96s-72.5 -153 -72.5 -267s24.167 -203 72.5 -267s115.166 -96 200.499 -96z" />
    <glyph glyph-name="p" unicode="p" horiz-adv-x="1215" 
d="M699 1105c139.333 0 250 -50.332 332 -150.999s123 -236.667 123 -408c0 -170.667 -40.667 -306.334 -122 -407.001s-191 -151 -329 -151c-78 0 -146.833 16.833 -206.5 50.5s-105.167 81.167 -136.5 142.5h-5v-541h-249v1453h243v-184h5c30 60 76 107.667 138 143
s131 53 207 53zM626 195.001c82.667 0 148.834 31.8311 198.501 95.498s74.5 148.834 74.5 255.501s-24.833 192 -74.5 256s-115.834 96 -198.501 96c-81.333 0 -147 -32.333 -197 -97s-75 -149.667 -75 -255s25 -190.166 75 -254.499s115.667 -96.5 197 -96.5z" />
    <glyph glyph-name="q" unicode="q" horiz-adv-x="1215" 
d="M516 1105c78 0 147.166 -17.333 207.499 -52s105.833 -82.667 136.5 -144h5v184h244v-1453h-249v541h-6c-29.333 -59.333 -74.333 -106.333 -135 -141s-130 -52 -208 -52c-136.667 0 -246 50.667 -328 152s-123 237 -123 407s41.333 305.5 124 406.5
s193.334 151.5 332.001 151.5zM584.999 195c83.333 0 150 31.999 200 95.999s75 149 75 255c0 105.333 -25.167 190.333 -75.5 255s-116.833 97 -199.5 97c-82 0 -147.5 -31.833 -196.5 -95.5s-73.5 -149.167 -73.5 -256.5s24.5 -192.666 73.5 -255.999s114.5 -95 196.5 -95
z" />
    <glyph glyph-name="r" unicode="r" horiz-adv-x="719" 
d="M106 0l0.00195312 1093h239v-190h5c17.333 64 49.166 113.667 95.499 149s101.833 53 166.5 53c32 0 58.667 -3.33301 80 -10v-226c-24.667 9.33301 -59 14 -103 14c-72.667 0 -129.834 -22.167 -171.501 -66.5s-62.5 -105.166 -62.5 -182.499v-634h-249z" />
    <glyph glyph-name="s" unicode="s" horiz-adv-x="1044" 
d="M87 777c0 99.333 40.333 179.332 121 239.999s186.667 91 318 91c126 0 229 -30.833 309 -92.5s121.333 -142.167 124 -241.5h-232c-4 46 -24.5 82.5 -61.5 109.5s-85.167 40.5 -144.5 40.5c-58 0 -104.5 -12.167 -139.5 -36.5s-52.5 -56.5 -52.5 -96.5
c0 -60.667 53 -103.334 159 -128.001l192 -44c110 -25.333 188.167 -60.666 234.5 -105.999s69.5 -108.333 69.5 -189c0 -101.333 -43 -183.333 -129 -246s-197.667 -94 -335 -94c-133.333 0 -241.5 30.833 -324.5 92.5s-128.5 143.5 -136.5 245.5h245
c7.33301 -49.333 30.5 -87.333 69.5 -114s91.167 -40 156.5 -40c63.333 0 113.5 11.833 150.5 35.5s55.5 55.834 55.5 96.501c0 32 -11.167 57.5 -33.5 76.5s-60.833 34.833 -115.5 47.5l-198 48c-201.333 47.333 -302 149 -302 305z" />
    <glyph glyph-name="t" unicode="t" horiz-adv-x="702" 
d="M176 1337h248.999v-244h207v-193h-207v-576c0 -88.667 44 -133 132 -133c22.667 0 47.334 1.66699 74.001 5v-191c-30 -6.66699 -73.667 -10 -131 -10c-116 0 -199 22.833 -249 68.5s-75 121.167 -75 226.5v610h-149v193h149v244z" />
    <glyph glyph-name="u" unicode="u" horiz-adv-x="1174" 
d="M1068 1093l-0.000976562 -1093h-239v191h-6c-61.333 -136.667 -173 -205 -335 -205c-119.333 0 -213.666 36.167 -282.999 108.5s-104 171.5 -104 297.5v701h249v-651c0 -80 19 -140.833 57 -182.5s93.667 -62.5 167 -62.5c75.333 0 135 24.5 179 73.5
s66 114.167 66 195.5v627h249z" />
    <glyph glyph-name="v" unicode="v" horiz-adv-x="1075" 
d="M1061 1093l-386 -1093h-273l-388 1093h265l259 -859h5l258 859h260z" />
    <glyph glyph-name="w" unicode="w" horiz-adv-x="1602" 
d="M1579 1093l-297 -1093h-261l-218 803h-6l-217 -803h-259l-297 1093h249l188 -844h5l217 844h239l217 -844h5l189 844h246z" />
    <glyph glyph-name="x" unicode="x" horiz-adv-x="1063" 
d="M529 395h-6l-229 -395h-267l356 545l-352 548h280l225 -387h5l222 387h273l-353 -541l349 -552h-273z" />
    <glyph glyph-name="y" unicode="y" horiz-adv-x="1096" 
d="M228 -398c-48.667 0 -81.334 1.66797 -98.001 5.00098v198c12.667 -2.66699 35.334 -4 68.001 -4c53.333 0 95.5 11.167 126.5 33.5s54.167 59.166 69.5 110.499l14 51l-391 1097h271l262 -878h5l261 878h263l-396 -1131c-46.667 -134 -103.5 -227.5 -170.5 -280.5
s-161.833 -79.5 -284.5 -79.5z" />
    <glyph glyph-name="z" unicode="z" horiz-adv-x="1034" 
d="M84 0v152l571 741v5h-565v195h851v-166l-549 -728v-4h558v-195h-866z" />
    <glyph glyph-name="braceleft" unicode="{" horiz-adv-x="800" 
d="M342 597c132 -12 197.999 -93.333 197.999 -244v-291c0 -78 16.5 -132.833 49.5 -164.5s90.167 -47.5 171.5 -47.5h45v-187h-88c-144 0 -249.167 29.667 -315.5 89s-99.5 153.666 -99.5 282.999v248c0 78.667 -12.5 133.167 -37.5 163.5s-69.833 45.5 -134.5 45.5v240
c64.667 0 109.5 15.333 134.5 46s37.5 85.334 37.5 164.001v215c0 126 33 217.833 99 275.5s171.333 86.5 316 86.5h88v-186h-45c-82.667 0 -140.167 -15.833 -172.5 -47.5s-48.5 -87.167 -48.5 -166.5v-261c0 -72.667 -16.167 -128 -48.5 -166
s-82.166 -60.333 -149.499 -67v-28z" />
    <glyph glyph-name="bar" unicode="|" horiz-adv-x="546" 
d="M386 -305h-226v1748h226v-1748z" />
    <glyph glyph-name="braceright" unicode="}" horiz-adv-x="800" 
d="M458 597v28c-67.333 6.66699 -117.166 29 -149.499 67s-48.5 93.333 -48.5 166v261c0 79.333 -16.333 134.833 -49 166.5s-90.334 47.5 -173.001 47.5h-44v186h88c144.667 0 249.834 -28.833 315.501 -86.5s98.5 -149.5 98.5 -275.5v-215
c0 -78.667 12.667 -133.334 38 -164.001s70 -46 134 -46v-240c-64.667 0 -109.5 -15.167 -134.5 -45.5s-37.5 -84.833 -37.5 -163.5v-248c0 -129.333 -33 -223.666 -99 -282.999s-171 -89 -315 -89h-88v187h44c81.333 0 138.666 15.833 171.999 47.5s50 86.5 50 164.5v291
c0 150.667 66 232 198 244z" />
    <glyph glyph-name="asciitilde" unicode="~" horiz-adv-x="1214" 
d="M561 628c-32.667 32.667 -59.8311 55.666 -81.498 68.999s-43.834 20 -66.501 20c-78 0 -119.667 -59.333 -125 -178h-203c-4 121.333 22.333 217.5 79 288.5s135.334 106.5 236.001 106.5c44.667 0 87.167 -10.167 127.5 -30.5s83.166 -53.166 128.499 -98.499
c31.333 -32 57.666 -54.667 78.999 -68s43 -20 65 -20c78.667 0 120.667 59.667 126 179h202c4 -121.333 -22.167 -217.5 -78.5 -288.5s-134.833 -106.5 -235.5 -106.5c-44 0 -86 10 -126 30s-82.333 52.333 -127 97z" />
    <glyph glyph-name="nonbreakingspace" unicode="&#xa0;" horiz-adv-x="458" 
 />
    <glyph glyph-name="exclamdown" unicode="&#xa1;" horiz-adv-x="611" 
d="M177 -330l20 966h217l20 -966h-257zM305 852c-40.667 0 -75 13.667 -103 41s-42 60.666 -42 99.999c0 40 14 73.5 42 100.5s62.333 40.5 103 40.5c41.333 0 76 -13.5 104 -40.5s42 -60.5 42 -100.5c0 -39.333 -14.167 -72.666 -42.5 -99.999s-62.833 -41 -103.5 -41z" />
    <glyph glyph-name="cent" unicode="&#xa2;" horiz-adv-x="1294" 
d="M1180 540c-10 -104.667 -52.501 -192.497 -127.501 -263.497s-169.833 -114.167 -284.5 -129.5v-177h-217v181c-134 23.333 -240.333 85.166 -319 185.499s-118 225.166 -118 374.499c0 147.333 39.5 270.666 118.5 369.999s185.167 160.666 318.5 183.999v181h217v-178
c114 -15.333 209.5 -60.166 286.5 -134.499s118.833 -162.5 125.5 -264.5h-236c-12.667 62 -43.834 111.333 -93.501 148s-110.167 55 -181.5 55c-89.333 0 -162.166 -33.167 -218.499 -99.5s-84.5 -153.5 -84.5 -261.5c0 -109.333 28.333 -197.833 85 -265.5
s129.334 -101.5 218.001 -101.5c158 0 249.667 65.333 275 196h236z" />
    <glyph glyph-name="sterling" unicode="&#xa3;" horiz-adv-x="1294" 
d="M464 214l740.001 -0.00195312v-214h-1101v203c89.333 15.333 162.5 54.333 219.5 117s85.5 135 85.5 217c0 32.667 -4.33301 67.334 -13 104.001h-289v184h228c-40 104.667 -60 188.334 -60 251.001c0 126.667 47.667 225.5 143 296.5s228.666 106.5 399.999 106.5
c60 0 119.333 -4.83301 178 -14.5s105.667 -22.167 141 -37.5v-208c-30 14.667 -72.667 27 -128 37s-110 15 -164 15c-98 0 -174.333 -19.5 -229 -58.5s-82 -93.5 -82 -163.5c0 -56 17 -130.667 51 -224h434v-184h-376c6.66699 -32 10 -61.667 10 -89
c0 -72 -17.833 -137 -53.5 -195s-80.5 -103.667 -134.5 -137v-6z" />
    <glyph glyph-name="currency" unicode="&#xa4;" horiz-adv-x="1295" 
d="M403 652c0 -67.333 24 -125.166 72 -173.499s105.667 -72.5 173 -72.5s125 24.167 173 72.5s72 106.166 72 173.499s-24 125 -72 173s-105.667 72 -173 72c-66.667 0 -124.167 -24.167 -172.5 -72.5s-72.5 -105.833 -72.5 -172.5zM1170 1030l-155.999 -156
c42 -68 63 -142 63 -222s-21 -154.667 -63 -224l156 -156l-144 -144l-157 157c-68.667 -41.333 -142.334 -62 -221.001 -62c-80 0 -154 21 -222 63l-157 -158l-144 144l157 158c-41.333 68.667 -62 142.667 -62 222s20.667 153 62 221l-157 157l144 144l157 -156
c68.667 41.333 142.667 62 222 62s153.333 -20.667 222 -62l156 156z" />
    <glyph glyph-name="yen" unicode="&#xa5;" horiz-adv-x="1294" 
d="M1050 233h-274v-233h-257v233h-273v155h273v147h-273v155h205l-438 753h283l348 -625h8l347 625h282l-437 -753h206v-155h-274v-147h274v-155z" />
    <glyph glyph-name="brokenbar" unicode="&#xa6;" horiz-adv-x="547" 
d="M387 774h-227v669h227v-669zM387 -305h-227v670h227v-670z" />
    <glyph glyph-name="section" unicode="&#xa7;" horiz-adv-x="992" 
d="M439 431l99 -29.002c47.333 2.66699 87.166 19.5 119.499 50.5s48.5 67.5 48.5 109.5c0 36 -13 67 -39 93s-63.333 45.333 -112 58l-100 29c-47.333 -3.33301 -87.333 -20.666 -120 -51.999s-49 -67.333 -49 -108c0 -35.333 13.333 -66.166 40 -92.499
s64.334 -45.833 113.001 -58.5zM497 -274.002c-120.667 0 -220.504 29.5 -299.504 88.5s-121.167 135.833 -126.5 230.5h225c5.33301 -40.667 27.166 -73.5 65.499 -98.5s85.5 -37.5 141.5 -37.5c57.333 0 104 13 140 39s54 59.667 54 101c0 32 -13.167 59 -39.5 81
s-68.833 41.333 -127.5 58l-163 51c-107.333 32.667 -185.333 72.5 -234 119.5s-73 105.833 -73 176.5c0 62.667 19.333 117.334 58 164.001s92.334 80.334 161.001 101.001v17c-72.667 31.333 -126 69.166 -160 113.499s-51 97.833 -51 160.5c0 98 39 177 117 237
s180.667 90 308 90c118.667 0 215.834 -28.333 291.501 -85s117.834 -132.667 126.501 -228h-223c-5.33301 39.333 -26.166 70.833 -62.499 94.5s-81.5 35.5 -135.5 35.5c-56.667 0 -102.5 -12.833 -137.5 -38.5s-52.5 -59.167 -52.5 -100.5
c0 -32.667 12.667 -59.834 38 -81.501s67.333 -41.167 126 -58.5l160 -51c107.333 -32.667 185.333 -72.167 234 -118.5s73 -103.5 73 -171.5c0 -66.667 -22 -125.667 -66 -177s-101.667 -85.666 -173 -102.999v-17c80 -25.333 139 -59.333 177 -102s57 -96.334 57 -161.001
c0 -97.333 -39.667 -176.5 -119 -237.5s-182.666 -91.5 -309.999 -91.5z" />
    <glyph glyph-name="dieresis" unicode="&#xa8;" horiz-adv-x="1008" 
d="M299 1259c-35.333 0 -65.333 12.167 -90 36.5s-37 53.5 -37 87.5c0 34.667 12.333 64.167 37 88.5s54.667 36.5 90 36.5s65.333 -12.167 90 -36.5s37 -53.833 37 -88.5c0 -34 -12.333 -63.167 -37 -87.5s-54.667 -36.5 -90 -36.5zM709 1259
c-35.333 0 -65.333 12.167 -90 36.5s-37 53.5 -37 87.5c0 34.667 12.333 64.167 37 88.5s54.667 36.5 90 36.5s65.166 -12.167 89.499 -36.5s36.5 -53.833 36.5 -88.5c0 -34 -12.167 -63.167 -36.5 -87.5s-54.166 -36.5 -89.499 -36.5z" />
    <glyph glyph-name="copyright" unicode="&#xa9;" horiz-adv-x="1700" 
d="M850 -150c-108 0 -210.83 20.5 -308.497 61.5s-181.667 96.5 -252 166.5s-126.166 154 -167.499 252s-62 201.667 -62 311c0 110 20.667 214 62 312s97.166 182 167.499 252s154.333 125.333 252 166s200.5 61 308.5 61c87.333 0 171.166 -13 251.499 -39
s152.833 -63 217.5 -111s121.167 -104.333 169.5 -169s85.666 -137.5 111.999 -218.5s39.5 -165.5 39.5 -253.5c0 -109.333 -20.5 -213 -61.5 -311s-96.667 -182 -167 -252s-154.333 -125.5 -252 -166.5s-200.834 -61.5 -309.501 -61.5zM850.003 5
c87.333 0 170.166 16.501 248.499 49.501s145.833 77.5 202.5 133.5s101.5 123.5 134.5 202.5s49.5 162.5 49.5 250.5c0 88.667 -16.5 172.5 -49.5 251.5s-77.833 146.5 -134.5 202.5s-124.167 100.333 -202.5 133s-161.166 49 -248.499 49
c-116 0 -222.5 -27.667 -319.5 -83s-173.667 -131.833 -230 -229.5s-84.5 -205.5 -84.5 -323.5c0 -117.333 28.167 -224.833 84.5 -322.5s133 -174.334 230 -230.001s203.5 -83.5 319.5 -83.5zM1221 763.001h-170c-8.66699 40.667 -29.167 73.834 -61.5 99.501
s-73.166 38.5 -122.499 38.5c-64 0 -114.667 -22.833 -152 -68.5s-56 -108.834 -56 -189.501c0 -82 18.833 -146.167 56.5 -192.5s88.167 -69.5 151.5 -69.5c48.667 0 89.167 11.5 121.5 34.5s53.166 55.833 62.499 98.5h170c-10 -84.667 -46.5 -152.5 -109.5 -203.5
s-144.5 -76.5 -244.5 -76.5c-118.667 0 -213 36.667 -283 110s-105 173 -105 299c0 124 35 222.5 105 295.5s164 109.5 282 109.5c99.333 0 180.833 -26.5 244.5 -79.5s100.5 -121.5 110.5 -205.5z" />
    <glyph glyph-name="ordfeminine" unicode="&#xaa;" horiz-adv-x="773" 
d="M351 847c45.333 0 83 12.5 113 37.5s45 56.5 45 94.5v53l-151 -10c-80 -6 -120 -36 -120 -90c0 -25.333 10.167 -45.833 30.5 -61.5s47.833 -23.5 82.5 -23.5zM284 702c-71.333 0 -130.165 20.501 -176.498 61.501s-69.5 93.833 -69.5 158.5
c0 66 24.667 117.833 74 155.5s121.333 59.167 216 64.5l181 11v48c0 33.333 -11 59.166 -33 77.499s-52.667 27.5 -92 27.5c-34 0 -62.333 -8 -85 -24s-36.334 -37.333 -41.001 -64h-183c2.66699 71.333 33 128.833 91 172.5s133.333 65.5 226 65.5
c94.667 0 170.667 -22.167 228 -66.5s86 -103.166 86 -176.499v-502h-194v111h-4c-19.333 -36.667 -49.333 -65.834 -90 -87.501s-85.334 -32.5 -134.001 -32.5z" />
    <glyph glyph-name="guillemotleft" unicode="&#xab;" horiz-adv-x="1336" 
d="M368 572v-12l348 -412h-249l-346 413v8l349 413h246zM867 572v-12l348 -412h-249l-346 413v8l349 413h246z" />
    <glyph glyph-name="logicalnot" unicode="&#xac;" horiz-adv-x="1294" 
d="M1152 688v-600h-217v389h-792v211h1009z" />
    <glyph glyph-name="registered" unicode="&#xae;" horiz-adv-x="1171" 
d="M586 575c-140 0 -258.167 47.333 -354.5 142s-144.5 211 -144.5 349c0 90.667 22 173.667 66 249s104.167 134.666 180.5 177.999s160.5 65 252.5 65s176.167 -21.667 252.5 -65s136.333 -102.666 180 -177.999s65.5 -158.333 65.5 -249s-21.833 -173.667 -65.5 -249
s-103.667 -134.5 -180 -177.5s-160.5 -64.5 -252.5 -64.5zM586 693c104.667 0 192.5 35.833 263.5 107.5s106.5 160.167 106.5 265.5c0 106 -35.5 194.833 -106.5 266.5s-158.833 107.5 -263.5 107.5s-192.667 -35.833 -264 -107.5s-107 -160.5 -107 -266.5
c0 -105.333 35.667 -193.833 107 -265.5s159.333 -107.5 264 -107.5zM506 844l-113 -0.000976562v459h234c49.333 0 89.666 -13.333 120.999 -40s47 -61.334 47 -104.001c0 -35.333 -9.16699 -65.166 -27.5 -89.499s-43.166 -40.166 -74.499 -47.499l125 -178h-137l-105 162
h-70v-162zM506 1212v-122h97c47.333 0 71 20.667 71 62c0 40 -23 60 -69 60h-99z" />
    <glyph glyph-name="macron" unicode="&#xaf;" horiz-adv-x="1000" 
d="M828 1436v-130h-656v130h656z" />
    <glyph glyph-name="degree" unicode="&#xb0;" horiz-adv-x="745" 
d="M372 801c-86 0 -158.5 29.667 -217.5 89s-88.5 132 -88.5 218c0 85.333 29.5 157.666 88.5 216.999s131.5 89 217.5 89s158.5 -29.667 217.5 -89s88.5 -131.666 88.5 -216.999c0 -86 -29.5 -158.667 -88.5 -218s-131.5 -89 -217.5 -89zM372 958
c41.333 0 76.5 14.8311 105.5 44.498s43.5 64.834 43.5 105.501c0 42 -14.333 77.5 -43 106.5s-64 43.5 -106 43.5c-40 0 -74.833 -14.667 -104.5 -44s-44.5 -64.666 -44.5 -105.999c0 -40 14.833 -75 44.5 -105s64.5 -45 104.5 -45z" />
    <glyph glyph-name="plusminus" unicode="&#xb1;" horiz-adv-x="1294" 
d="M1148 88h-1003v193h1003v-193zM753 655v-258h-212v258h-396v187h396v258h212v-258h397v-187h-397z" />
    <glyph glyph-name="two.sups" unicode="&#xb2;" horiz-adv-x="649" 
d="M36 1584c0 71.333 26.0029 128.669 78.0029 172.002s121 65 207 65c81.333 0 147.166 -19.167 197.499 -57.5s75.5 -88.5 75.5 -150.5c0 -36.667 -9.33301 -70.834 -28 -102.501s-51.667 -68.5 -99 -110.5l-153 -135v-4h288v-155h-554v137l280 247
c44.667 42 67 78 67 108c0 21.333 -7.83301 38.666 -23.5 51.999s-35.834 20 -60.501 20s-45.334 -8.16699 -62.001 -24.5s-25 -36.833 -25 -61.5v-5h-188v5z" />
    <glyph glyph-name="three.sups" unicode="&#xb3;" horiz-adv-x="676" 
d="M246 1394l0.00390625 135h85c26 0 46.833 6.66699 62.5 20s23.5 30.666 23.5 51.999s-7.83301 38.333 -23.5 51s-37.167 19 -64.5 19c-26.667 0 -48.334 -7.5 -65.001 -22.5s-25.667 -34.833 -27 -59.5h-184c0 70.667 25.667 127 77 169s119.666 63 204.999 63
c82 0 147.833 -17.5 197.5 -52.5s74.5 -81.167 74.5 -138.5c0 -40.667 -13.333 -75.667 -40 -105s-61.667 -47.666 -105 -54.999v-5c52.667 -5.33301 94.167 -22.833 124.5 -52.5s45.5 -67.167 45.5 -112.5c0 -64.667 -27.333 -116.334 -82 -155.001s-127.667 -58 -219 -58
c-85.333 0 -154.5 21.333 -207.5 64s-80.833 99.334 -83.5 170.001h195c1.33301 -23.333 10.666 -41.666 27.999 -54.999s40.333 -20 69 -20c27.333 0 49.666 6.83301 66.999 20.5s26 31.167 26 52.5c0 23.333 -8.5 41.666 -25.5 54.999s-40.167 20 -69.5 20h-84z" />
    <glyph glyph-name="acute" unicode="&#xb4;" horiz-adv-x="1008" 
d="M474 1258h-201l218 307h245z" />
    <glyph glyph-name="mugreek" unicode="&#x3bc;" horiz-adv-x="1278" 
d="M106 -360l-0.00195312 1453h247v-646c0 -80.667 18.833 -142.167 56.5 -184.5s93.167 -63.5 166.5 -63.5c78 0 139 24 183 72s66 113 66 195v627h248v-774c0 -46.667 6.83301 -79.834 20.5 -99.501s36.167 -29.5 67.5 -29.5c21.333 0 40.333 3 57 9l10 -189
c-35.333 -10 -78.666 -15 -129.999 -15c-67.333 0 -121.166 12.667 -161.499 38s-70.166 66 -89.499 122c-2 7.33301 -5 19 -9 35h-4c-28 -64 -65.667 -114 -113 -150s-101 -54 -161 -54c-44 0 -84.333 9.66699 -121 29s-63.334 44.333 -80.001 75h-4v-450h-249z" />
    <glyph glyph-name="mugreek" unicode="&#xb5;" horiz-adv-x="1278" 
d="M106 -360l-0.00195312 1453h247v-646c0 -80.667 18.833 -142.167 56.5 -184.5s93.167 -63.5 166.5 -63.5c78 0 139 24 183 72s66 113 66 195v627h248v-774c0 -46.667 6.83301 -79.834 20.5 -99.501s36.167 -29.5 67.5 -29.5c21.333 0 40.333 3 57 9l10 -189
c-35.333 -10 -78.666 -15 -129.999 -15c-67.333 0 -121.166 12.667 -161.499 38s-70.166 66 -89.499 122c-2 7.33301 -5 19 -9 35h-4c-28 -64 -65.667 -114 -113 -150s-101 -54 -161 -54c-44 0 -84.333 9.66699 -121 29s-63.334 44.333 -80.001 75h-4v-450h-249z" />
    <glyph glyph-name="paragraph" unicode="&#xb6;" horiz-adv-x="1374" 
d="M863 -242h-244v741h-20c-144 0 -264.167 44.667 -360.5 134s-144.5 200.333 -144.5 333c0 138 47.667 252 143 342s216.333 135 363 135h263v-1685zM1024 -242v1685h243v-1685h-243z" />
    <glyph glyph-name="periodcentered" unicode="&#xb7;" horiz-adv-x="591" 
d="M296 474c-40.667 0 -75.332 14.167 -103.999 42.5s-43 62.833 -43 103.5c0 41.333 14.167 76.166 42.5 104.499s63.166 42.5 104.499 42.5c40.667 0 75.167 -14.167 103.5 -42.5s42.5 -63.166 42.5 -104.499c0 -40.667 -14.167 -75.167 -42.5 -103.5
s-62.833 -42.5 -103.5 -42.5z" />
    <glyph glyph-name="cedilla" unicode="&#xb8;" horiz-adv-x="1008" 
d="M368 -228v90.001l63 149h131v-11l-50 -125c62.667 0 110.667 -13.5 144 -40.5s50 -65.5 50 -115.5c0 -55.333 -21 -99.5 -63 -132.5s-98.667 -49.833 -170 -50.5c-58 0 -105.333 5.66699 -142 17v111c24.667 -9.33301 63 -14 115 -14c74 0 111 20.667 111 62
c0 21.333 -10.333 36.666 -31 45.999s-55 14 -103 14h-55z" />
    <glyph glyph-name="one.sups" unicode="&#xb9;" horiz-adv-x="531" 
d="M238 1106v523h-4l-174 -115v172l175 116h203v-696h-200z" />
    <glyph glyph-name="ordmasculine" unicode="&#xba;" horiz-adv-x="808" 
d="M404 698c-112.667 0 -201.332 33.5 -265.999 100.5s-97 159.833 -97 278.5c0 116.667 32.833 209 98.5 277s153.834 102 264.501 102c111.333 0 199.666 -33.833 264.999 -101.5s98 -160.167 98 -277.5c0 -118.667 -32.333 -211.5 -97 -278.5
s-153.334 -100.5 -266.001 -100.5zM404.002 851c50 0 88.998 19.833 116.998 59.5s42 95.167 42 166.5c0 70.667 -14.167 126 -42.5 166s-67.166 60 -116.499 60s-88.166 -20 -116.499 -60s-42.5 -95.333 -42.5 -166c0 -71.333 14 -126.833 42 -166.5s67 -59.5 117 -59.5z
" />
    <glyph glyph-name="guillemotright" unicode="&#xbb;" horiz-adv-x="1336" 
d="M469 572l-348 410h246l349 -413v-8l-346 -413h-249l348 412v12zM968 572l-348 410h246l349 -413v-8l-346 -413h-249l348 412v12z" />
    <glyph glyph-name="onequarter" unicode="&#xbc;" horiz-adv-x="1565" 
d="M1253 0v103h-342v170c57.333 112.667 141.333 253.667 252 423h284v-436h83v-157h-83v-103h-194zM1081 256v-3.99902h178v309h-4c-79.333 -130.667 -137.333 -232.334 -174 -305.001zM248 748.001v523h-4l-174 -115v172l175 116h203v-696h-200zM328 0.000976562h-218
l1055 1443h216z" />
    <glyph glyph-name="onehalf" unicode="&#xbd;" horiz-adv-x="1564" 
d="M963 478c0 71.333 26.0029 128.669 78.0029 172.002s121 65 207 65c81.333 0 147.166 -19.167 197.499 -57.5s75.5 -88.5 75.5 -150.5c0 -36.667 -9.33301 -70.834 -28 -102.501s-51.667 -68.5 -99 -110.5l-153 -135v-4h288v-155h-554v137l280 247
c44.667 42 67 78 67 108c0 21.333 -7.83301 38.666 -23.5 51.999s-35.834 20 -60.501 20s-45.334 -8.16699 -62.001 -24.5s-25 -36.833 -25 -61.5v-5h-188v5zM248.003 748.003v523h-4l-174 -115v172l175 116h203v-696h-200zM328.003 0.00292969h-218l1055 1443h216z" />
    <glyph glyph-name="threequarters" unicode="&#xbe;" horiz-adv-x="1663" 
d="M246 1036l0.00390625 135h85c26 0 46.833 6.66699 62.5 20s23.5 30.666 23.5 51.999s-7.83301 38.333 -23.5 51s-37.167 19 -64.5 19c-26.667 0 -48.334 -7.5 -65.001 -22.5s-25.667 -34.833 -27 -59.5h-184c0 70.667 25.667 127 77 169s119.666 63 204.999 63
c82 0 147.833 -17.5 197.5 -52.5s74.5 -81.167 74.5 -138.5c0 -40.667 -13.333 -75.667 -40 -105s-61.667 -47.666 -105 -54.999v-5c52.667 -5.33301 94.167 -22.833 124.5 -52.5s45.5 -67.167 45.5 -112.5c0 -64.667 -27.333 -116.334 -82 -155.001s-127.667 -58 -219 -58
c-85.333 0 -154.5 21.333 -207.5 64s-80.833 99.334 -83.5 170.001h195c1.33301 -23.333 10.666 -41.666 27.999 -54.999s40.333 -20 69 -20c27.333 0 49.666 6.83301 66.999 20.5s26 31.167 26 52.5c0 23.333 -8.5 41.666 -25.5 54.999s-40.167 20 -69.5 20h-84zM1350 0
v103h-342v170c57.333 112.667 141.333 253.667 252 423h284v-436h83v-157h-83v-103h-194zM1178 256v-3.99902h178v309h-4c-79.333 -130.667 -137.333 -232.334 -174 -305.001zM435.004 0.000976562h-218l1055 1443h216z" />
    <glyph glyph-name="questiondown" unicode="&#xbf;" horiz-adv-x="1060" 
d="M1006 63c-3.33301 -121.333 -46 -219.667 -128 -295s-195 -113 -339 -113c-136.667 0 -247.167 35.333 -331.5 106s-126.5 161.667 -126.5 273c0 142 70.667 255.333 212 340c65.333 38 109.5 73 132.5 105s34.5 73 34.5 123v58h232l1 -70
c4.66699 -73.333 -7.66602 -134.5 -36.999 -183.5s-79 -94.5 -149 -136.5c-62.667 -38 -106 -73.167 -130 -105.5s-36 -72.833 -36 -121.5c0 -54 19.333 -98 58 -132s89.667 -51 153 -51s114.666 18.167 153.999 54.5s61 85.833 65 148.5h235zM565 851.999
c-40 0 -74.167 13.667 -102.5 41s-42.5 60.666 -42.5 99.999c0 40 14.167 73.5 42.5 100.5s62.5 40.5 102.5 40.5c41.333 0 76 -13.5 104 -40.5s42 -60.5 42 -100.5c0 -39.333 -14.167 -72.666 -42.5 -99.999s-62.833 -41 -103.5 -41z" />
    <glyph glyph-name="Agrave" unicode="&#xc0;" horiz-adv-x="1369" 
d="M1070 0l-123 373h-531l-123 -373h-266l512 1443h291l512 -1443h-272zM678 1188l-202 -616h410l-201 616h-7zM587 1555l-279 306h246l231 -306h-198z" />
    <glyph glyph-name="Aacute" unicode="&#xc1;" horiz-adv-x="1369" 
d="M1070 0l-123 373h-531l-123 -373h-266l512 1443h291l512 -1443h-272zM678 1188l-202 -616h410l-201 616h-7zM781 1552h-198l231 306h246z" />
    <glyph glyph-name="Acircumflex" unicode="&#xc2;" horiz-adv-x="1369" 
d="M1070 0l-123 373h-531l-123 -373h-266l512 1443h291l512 -1443h-272zM678 1188l-202 -616h410l-201 616h-7zM586 1856h196l281 -310h-203l-174 198h-4l-174 -198h-203z" />
    <glyph glyph-name="Atilde" unicode="&#xc3;" horiz-adv-x="1369" 
d="M1070 0l-123 373h-531l-123 -373h-266l512 1443h291l512 -1443h-272zM678 1188l-202 -616h410l-201 616h-7zM819 1538c-24.667 0 -48 4.83203 -70 14.499s-40.833 21.5 -56.5 35.5s-30.334 28 -44.001 42s-27.667 25.833 -42 35.5s-28.5 14.5 -42.5 14.5
c-21.333 0 -38 -11.167 -50 -33.5s-18.333 -53.166 -19 -92.499h-141c0 82 18.333 146.5 55 193.5s85.334 70.5 146.001 70.5c26 0 50.333 -4.83301 73 -14.5s42 -21.5 58 -35.5s31 -28 45 -42s28 -25.833 42 -35.5s27.333 -14.5 40 -14.5c42 0 63.667 42.667 65 128h141
c0 -80.667 -18.667 -145.167 -56 -193.5s-85.333 -72.5 -144 -72.5z" />
    <glyph glyph-name="Adieresis" unicode="&#xc4;" horiz-adv-x="1369" 
d="M1070 0l-123 373h-531l-123 -373h-266l512 1443h291l512 -1443h-272zM678 1188l-202 -616h410l-201 616h-7zM479 1569c-35.333 0 -65.333 12.167 -90 36.5s-37 53.5 -37 87.5c0 34.667 12.333 64.167 37 88.5s54.667 36.5 90 36.5s65.333 -12.167 90 -36.5
s37 -53.833 37 -88.5c0 -34 -12.333 -63.167 -37 -87.5s-54.667 -36.5 -90 -36.5zM889 1569c-35.333 0 -65.333 12.167 -90 36.5s-37 53.5 -37 87.5c0 34.667 12.333 64.167 37 88.5s54.667 36.5 90 36.5s65.166 -12.167 89.499 -36.5s36.5 -53.833 36.5 -88.5
c0 -34 -12.167 -63.167 -36.5 -87.5s-54.166 -36.5 -89.499 -36.5z" />
    <glyph glyph-name="Aring" unicode="&#xc5;" horiz-adv-x="1369" 
d="M1070 0l-123 373h-531l-123 -373h-266l512 1443h291l512 -1443h-272zM678 1188l-202 -616h410l-201 616h-7zM684 1511c-56 0 -104.333 20 -145 60s-61 87.667 -61 143c0 56 20.333 104 61 144s89 60 145 60s104.167 -20 144.5 -60s60.5 -88 60.5 -144
c0 -55.333 -20.167 -103 -60.5 -143s-88.5 -60 -144.5 -60zM684 1611c28.667 0 53.334 10 74.001 30s31 44.333 31 73s-10.333 53.167 -31 73.5s-45.334 30.5 -74.001 30.5s-53.334 -10.167 -74.001 -30.5s-31 -44.833 -31 -73.5s10.333 -53 31 -73s45.334 -30 74.001 -30z
" />
    <glyph glyph-name="AE" unicode="&#xc6;" horiz-adv-x="2015" 
d="M820 1240l-280 -636h425v636h-145zM965 0v404h-507l-180 -404h-259l641 1443h1223v-217h-677v-397h640v-206h-640v-406h677v-217h-918z" />
    <glyph glyph-name="Ccedilla" unicode="&#xc7;" horiz-adv-x="1439" 
d="M1371 948l-253.999 0.00292969c-16.667 90.667 -58.834 163.334 -126.501 218.001s-148.167 82 -241.5 82c-124 0 -222.833 -47.5 -296.5 -142.5s-110.5 -222.833 -110.5 -383.5c0 -162 36.667 -290.333 110 -385s172.666 -142 297.999 -142
c95.333 0 175.5 24.5 240.5 73.5s107.5 116.833 127.5 203.5h253c-20.667 -144 -80.167 -259.5 -178.5 -346.5s-224.166 -136.167 -377.499 -147.5l-41 -103c62.667 0 110.667 -13.5 144 -40.5s50 -65.5 50 -115.5c0 -55.333 -21 -99.5 -63 -132.5
s-98.667 -49.833 -170 -50.5c-58 0 -105.333 5.66699 -142 17v111c24.667 -9.33301 63 -14 115 -14c74 0 111 20.667 111 62c0 21.333 -10.333 36.666 -31 45.999s-55 14 -103 14h-55v90l49 117c-186 15.333 -332.667 88.666 -440 219.999s-161 305.666 -161 522.999
c0 229.333 60.5 410.833 181.5 544.5s284.167 200.5 489.5 200.5c168 0 309.667 -47.833 425 -143.5s181 -220.834 197 -375.501z" />
    <glyph glyph-name="Egrave" unicode="&#xc8;" horiz-adv-x="1158" 
d="M497 1555l-279 306h246l231 -306h-198zM1061 218v-218h-934v1443h934v-218h-676v-390h639v-205h-639v-412h676z" />
    <glyph glyph-name="Eacute" unicode="&#xc9;" horiz-adv-x="1158" 
d="M691 1552h-198l231 306h246zM1061 218v-218h-934v1443h934v-218h-676v-390h639v-205h-639v-412h676z" />
    <glyph glyph-name="Ecircumflex" unicode="&#xca;" horiz-adv-x="1158" 
d="M496 1856h196l281 -310h-203l-174 198h-4l-174 -198h-203zM1061 218v-218h-934v1443h934v-218h-676v-390h639v-205h-639v-412h676z" />
    <glyph glyph-name="Edieresis" unicode="&#xcb;" horiz-adv-x="1158" 
d="M389 1569c-35.333 0 -65.333 12.167 -90 36.5s-37 53.5 -37 87.5c0 34.667 12.333 64.167 37 88.5s54.667 36.5 90 36.5s65.333 -12.167 90 -36.5s37 -53.833 37 -88.5c0 -34 -12.333 -63.167 -37 -87.5s-54.667 -36.5 -90 -36.5zM799 1569
c-35.333 0 -65.333 12.167 -90 36.5s-37 53.5 -37 87.5c0 34.667 12.333 64.167 37 88.5s54.667 36.5 90 36.5s65.166 -12.167 89.499 -36.5s36.5 -53.833 36.5 -88.5c0 -34 -12.167 -63.167 -36.5 -87.5s-54.166 -36.5 -89.499 -36.5zM1061 218v-218h-934v1443h934v-218
h-676v-390h639v-205h-639v-412h676z" />
    <glyph glyph-name="Igrave" unicode="&#xcc;" horiz-adv-x="512" 
d="M385 0h-258v1443h258v-1443zM159 1555l-279 306h246l231 -306h-198z" />
    <glyph glyph-name="Iacute" unicode="&#xcd;" horiz-adv-x="512" 
d="M385 0h-258v1443h258v-1443zM353 1552h-198l231 306h246z" />
    <glyph glyph-name="Icircumflex" unicode="&#xce;" horiz-adv-x="512" 
d="M385 0h-258v1443h258v-1443zM158 1856h196l281 -310h-203l-174 198h-4l-174 -198h-203z" />
    <glyph glyph-name="Idieresis" unicode="&#xcf;" horiz-adv-x="512" 
d="M385 0h-258v1443h258v-1443zM51 1569c-35.333 0 -65.333 12.167 -90 36.5s-37 53.5 -37 87.5c0 34.667 12.333 64.167 37 88.5s54.667 36.5 90 36.5s65.333 -12.167 90 -36.5s37 -53.833 37 -88.5c0 -34 -12.333 -63.167 -37 -87.5s-54.667 -36.5 -90 -36.5zM461 1569
c-35.333 0 -65.333 12.167 -90 36.5s-37 53.5 -37 87.5c0 34.667 12.333 64.167 37 88.5s54.667 36.5 90 36.5s65.166 -12.167 89.499 -36.5s36.5 -53.833 36.5 -88.5c0 -34 -12.167 -63.167 -36.5 -87.5s-54.166 -36.5 -89.499 -36.5z" />
    <glyph glyph-name="Eth" unicode="&#xd0;" horiz-adv-x="1441" 
d="M402 218l249.001 0.000976562c145.333 0 256.666 43.333 333.999 130s116 212 116 376c0 161.333 -39 285.166 -117 371.499s-189 129.5 -333 129.5h-249v-388h263v-200h-263v-419zM144.001 1443h534c216 0 384.333 -62.667 505 -188s181 -302 181 -530
c0 -228.667 -60.333 -406.667 -181 -534s-289 -191 -505 -191h-534v637h-109v200h109v606z" />
    <glyph glyph-name="Ntilde" unicode="&#xd1;" horiz-adv-x="1452" 
d="M861 1538c-24.667 0 -48 4.83203 -70 14.499s-40.833 21.5 -56.5 35.5s-30.334 28 -44.001 42s-27.667 25.833 -42 35.5s-28.5 14.5 -42.5 14.5c-21.333 0 -38 -11.167 -50 -33.5s-18.333 -53.166 -19 -92.499h-141c0 82 18.333 146.5 55 193.5s85.334 70.5 146.001 70.5
c26 0 50.333 -4.83301 73 -14.5s42 -21.5 58 -35.5s31 -28 45 -42s28 -25.833 42 -35.5s27.333 -14.5 40 -14.5c42 0 63.667 42.667 65 128h141c0 -80.667 -18.667 -145.167 -56 -193.5s-85.333 -72.5 -144 -72.5zM376 -0.000976562h-249v1443h224l716 -1011h9v1011h248
v-1443h-222l-717 1012h-9v-1012z" />
    <glyph glyph-name="Ograve" unicode="&#xd2;" horiz-adv-x="1525" 
d="M666 1555l-279 306h246l231 -306h-198zM763 1467c210 0 376.5 -67 499.5 -201s184.5 -315.667 184.5 -545s-61.5 -410.833 -184.5 -544.5s-289.5 -200.5 -499.5 -200.5c-210.667 0 -377.5 66.833 -500.5 200.5s-184.5 315.167 -184.5 544.5s61.5 411 184.5 545
s289.833 201 500.5 201zM763 1247c-128.667 0 -231 -47.333 -307 -142s-114 -222.667 -114 -384c0 -160.667 38 -288.334 114 -383.001s178.333 -142 307 -142s231 47.333 307 142s114 222.334 114 383.001s-38 288.5 -114 383.5s-178.333 142.5 -307 142.5z" />
    <glyph glyph-name="Oacute" unicode="&#xd3;" horiz-adv-x="1525" 
d="M860 1552h-198l231 306h246zM763 1467c210 0 376.5 -67 499.5 -201s184.5 -315.667 184.5 -545s-61.5 -410.833 -184.5 -544.5s-289.5 -200.5 -499.5 -200.5c-210.667 0 -377.5 66.833 -500.5 200.5s-184.5 315.167 -184.5 544.5s61.5 411 184.5 545
s289.833 201 500.5 201zM763 1247c-128.667 0 -231 -47.333 -307 -142s-114 -222.667 -114 -384c0 -160.667 38 -288.334 114 -383.001s178.333 -142 307 -142s231 47.333 307 142s114 222.334 114 383.001s-38 288.5 -114 383.5s-178.333 142.5 -307 142.5z" />
    <glyph glyph-name="Ocircumflex" unicode="&#xd4;" horiz-adv-x="1525" 
d="M665 1856h196l281 -310h-203l-174 198h-4l-174 -198h-203zM763 1467c210 0 376.5 -67 499.5 -201s184.5 -315.667 184.5 -545s-61.5 -410.833 -184.5 -544.5s-289.5 -200.5 -499.5 -200.5c-210.667 0 -377.5 66.833 -500.5 200.5s-184.5 315.167 -184.5 544.5
s61.5 411 184.5 545s289.833 201 500.5 201zM763 1247c-128.667 0 -231 -47.333 -307 -142s-114 -222.667 -114 -384c0 -160.667 38 -288.334 114 -383.001s178.333 -142 307 -142s231 47.333 307 142s114 222.334 114 383.001s-38 288.5 -114 383.5
s-178.333 142.5 -307 142.5z" />
    <glyph glyph-name="Otilde" unicode="&#xd5;" horiz-adv-x="1525" 
d="M763 1467c210 0 376.5 -67 499.5 -201s184.5 -315.667 184.5 -545s-61.5 -410.833 -184.5 -544.5s-289.5 -200.5 -499.5 -200.5c-210.667 0 -377.5 66.833 -500.5 200.5s-184.5 315.167 -184.5 544.5s61.5 411 184.5 545s289.833 201 500.5 201zM763 1247
c-128.667 0 -231 -47.333 -307 -142s-114 -222.667 -114 -384c0 -160.667 38 -288.334 114 -383.001s178.333 -142 307 -142s231 47.333 307 142s114 222.334 114 383.001s-38 288.5 -114 383.5s-178.333 142.5 -307 142.5zM898 1538c-24.667 0 -48 4.83203 -70 14.499
s-40.833 21.5 -56.5 35.5s-30.334 28 -44.001 42s-27.667 25.833 -42 35.5s-28.5 14.5 -42.5 14.5c-21.333 0 -38 -11.167 -50 -33.5s-18.333 -53.166 -19 -92.499h-141c0 82 18.333 146.5 55 193.5s85.334 70.5 146.001 70.5c26 0 50.333 -4.83301 73 -14.5
s42 -21.5 58 -35.5s31 -28 45 -42s28 -25.833 42 -35.5s27.333 -14.5 40 -14.5c42 0 63.667 42.667 65 128h141c0 -80.667 -18.667 -145.167 -56 -193.5s-85.333 -72.5 -144 -72.5z" />
    <glyph glyph-name="Odieresis" unicode="&#xd6;" horiz-adv-x="1525" 
d="M558 1569c-35.333 0 -65.333 12.167 -90 36.5s-37 53.5 -37 87.5c0 34.667 12.333 64.167 37 88.5s54.667 36.5 90 36.5s65.333 -12.167 90 -36.5s37 -53.833 37 -88.5c0 -34 -12.333 -63.167 -37 -87.5s-54.667 -36.5 -90 -36.5zM968 1569
c-35.333 0 -65.333 12.167 -90 36.5s-37 53.5 -37 87.5c0 34.667 12.333 64.167 37 88.5s54.667 36.5 90 36.5s65.166 -12.167 89.499 -36.5s36.5 -53.833 36.5 -88.5c0 -34 -12.167 -63.167 -36.5 -87.5s-54.166 -36.5 -89.499 -36.5zM763 1467c210 0 376.5 -67 499.5 -201
s184.5 -315.667 184.5 -545s-61.5 -410.833 -184.5 -544.5s-289.5 -200.5 -499.5 -200.5c-210.667 0 -377.5 66.833 -500.5 200.5s-184.5 315.167 -184.5 544.5s61.5 411 184.5 545s289.833 201 500.5 201zM763 1247c-128.667 0 -231 -47.333 -307 -142
s-114 -222.667 -114 -384c0 -160.667 38 -288.334 114 -383.001s178.333 -142 307 -142s231 47.333 307 142s114 222.334 114 383.001s-38 288.5 -114 383.5s-178.333 142.5 -307 142.5z" />
    <glyph glyph-name="multiply" unicode="&#xd7;" horiz-adv-x="1294" 
d="M648 433l-306 -305l-149 149l305 306l-305 305l149 149l306 -305l305 305l149 -149l-304 -305l304 -306l-149 -149z" />
    <glyph glyph-name="Oslash" unicode="&#xd8;" horiz-adv-x="1525" 
d="M1099 1063l-562 -801.001c64.667 -44 140 -66 226 -66c128.667 0 231 47.333 307 142s114 222.334 114 383.001c0 137.333 -28.333 251.333 -85 342zM448 347.999l570 811c-70 58.667 -155 88 -255 88c-128.667 0 -231 -47.333 -307 -142s-114 -222.667 -114 -384
c0 -154 35.333 -278.333 106 -373zM1361 1436l-110 -157c130.667 -134.667 196 -320.667 196 -558c0 -229.333 -61.5 -410.833 -184.5 -544.5s-289.5 -200.5 -499.5 -200.5c-139.333 0 -260.333 30 -363 90l-88 -125l-101 70l90 128c-72 65.333 -127.167 147.333 -165.5 246
s-57.5 210.667 -57.5 336c0 229.333 61.5 411 184.5 545s289.833 201 500.5 201c152 0 283.333 -36.667 394 -110l100 142z" />
    <glyph glyph-name="Ugrave" unicode="&#xd9;" horiz-adv-x="1441" 
d="M623 1555l-279 306h246l231 -306h-198zM385 1443l0.000976562 -911c0 -100 29.5 -180.167 88.5 -240.5s141.167 -90.5 246.5 -90.5s187.666 30.167 246.999 90.5s89 140.5 89 240.5v911h257v-934c0 -159.333 -53.5 -288 -160.5 -386s-251.167 -147 -432.5 -147
c-180.667 0 -324.667 49 -432 147s-161 226.667 -161 386v934h258z" />
    <glyph glyph-name="Uacute" unicode="&#xda;" horiz-adv-x="1441" 
d="M817 1552h-198l231 306h246zM385 1443l0.000976562 -911c0 -100 29.5 -180.167 88.5 -240.5s141.167 -90.5 246.5 -90.5s187.666 30.167 246.999 90.5s89 140.5 89 240.5v911h257v-934c0 -159.333 -53.5 -288 -160.5 -386s-251.167 -147 -432.5 -147
c-180.667 0 -324.667 49 -432 147s-161 226.667 -161 386v934h258z" />
    <glyph glyph-name="Ucircumflex" unicode="&#xdb;" horiz-adv-x="1441" 
d="M622 1856h196l281 -310h-203l-174 198h-4l-174 -198h-203zM385 1443l0.000976562 -911c0 -100 29.5 -180.167 88.5 -240.5s141.167 -90.5 246.5 -90.5s187.666 30.167 246.999 90.5s89 140.5 89 240.5v911h257v-934c0 -159.333 -53.5 -288 -160.5 -386
s-251.167 -147 -432.5 -147c-180.667 0 -324.667 49 -432 147s-161 226.667 -161 386v934h258z" />
    <glyph glyph-name="Udieresis" unicode="&#xdc;" horiz-adv-x="1441" 
d="M515 1569c-35.333 0 -65.333 12.167 -90 36.5s-37 53.5 -37 87.5c0 34.667 12.333 64.167 37 88.5s54.667 36.5 90 36.5s65.333 -12.167 90 -36.5s37 -53.833 37 -88.5c0 -34 -12.333 -63.167 -37 -87.5s-54.667 -36.5 -90 -36.5zM925 1569
c-35.333 0 -65.333 12.167 -90 36.5s-37 53.5 -37 87.5c0 34.667 12.333 64.167 37 88.5s54.667 36.5 90 36.5s65.166 -12.167 89.499 -36.5s36.5 -53.833 36.5 -88.5c0 -34 -12.167 -63.167 -36.5 -87.5s-54.166 -36.5 -89.499 -36.5zM385 1443l0.000976562 -911
c0 -100 29.5 -180.167 88.5 -240.5s141.167 -90.5 246.5 -90.5s187.666 30.167 246.999 90.5s89 140.5 89 240.5v911h257v-934c0 -159.333 -53.5 -288 -160.5 -386s-251.167 -147 -432.5 -147c-180.667 0 -324.667 49 -432 147s-161 226.667 -161 386v934h258z" />
    <glyph glyph-name="Yacute" unicode="&#xdd;" horiz-adv-x="1323" 
d="M790 0h-257v569l-506 874h283l350 -628h6l349 628h281l-506 -874v-569zM758 1552h-198l231 306h246z" />
    <glyph glyph-name="Thorn" unicode="&#xde;" horiz-adv-x="1294" 
d="M154 1443h259.001v-246h331c85.333 0 162.166 -17.167 230.499 -51.5s123 -85.5 164 -153.5s61.5 -147 61.5 -237c0 -134.667 -44.333 -242.167 -133 -322.5s-199.667 -120.5 -333 -120.5h-322v-312h-258v1443zM412.001 986l-0.000976562 -465h260
c81.333 0 145.833 19.833 193.5 59.5s71.5 97.5 71.5 173.5c0 75.333 -23.667 132.833 -71 172.5s-111.666 59.5 -192.999 59.5h-261z" />
    <glyph glyph-name="germandbls" unicode="&#xdf;" horiz-adv-x="1315" 
d="M407 0h-246.999v1088c0 122 42.5 219 127.5 291s199.5 108 343.5 108c137.333 0 249.166 -35 335.499 -105s129.5 -160.333 129.5 -271c0 -82.667 -20 -154.167 -60 -214.5s-94 -100.5 -162 -120.5v-9c104 -11.333 185.833 -49.833 245.5 -115.5
s89.5 -149.834 89.5 -252.501c0 -126 -42.667 -226.5 -128 -301.5s-200.333 -112.5 -345 -112.5c-65.333 0 -121.333 5 -168 15v204c34.667 -10.667 78 -16 130 -16c80.667 0 144.334 20 191.001 60s70 94.333 70 163c0 72.667 -26.333 129.334 -79 170.001
s-125.667 61 -219 61h-68v213h50c66 0 117.833 19.667 155.5 59s56.5 93.666 56.5 162.999c0 61.333 -20.167 110.833 -60.5 148.5s-93.5 56.5 -159.5 56.5c-72.667 0 -128.834 -20.667 -168.501 -62s-59.5 -99.666 -59.5 -174.999v-1045z" />
    <glyph glyph-name="agrave" unicode="&#xe0;" horiz-adv-x="1116" 
d="M501 179c76 0 139.333 21.333 190 64s76 97 76 163v83l-250 -16c-138.667 -9.33301 -208 -59.333 -208 -150c0 -44 17.5 -79 52.5 -105s81.5 -39 139.5 -39zM428 -12c-108 0 -196.502 30 -265.502 90s-103.5 138.333 -103.5 235c0 97.333 36.167 173.333 108.5 228
s177.5 86.334 315.5 95.001l284 17v80c0 57.333 -18.5 101.5 -55.5 132.5s-89.167 46.5 -156.5 46.5c-56 0 -103 -13.333 -141 -40s-61.333 -62.334 -70 -107.001h-230c3.33301 100 46.833 182.167 130.5 246.5s189.834 96.5 318.501 96.5
c136.667 0 245.834 -32.667 327.501 -98s122.5 -152.333 122.5 -261v-749h-239v176h-6c-30 -58 -75.833 -103.833 -137.5 -137.5s-129.167 -50.5 -202.5 -50.5zM657.998 1258h-201l-262 307h246z" />
    <glyph glyph-name="aacute" unicode="&#xe1;" horiz-adv-x="1116" 
d="M501 179c76 0 139.333 21.333 190 64s76 97 76 163v83l-250 -16c-138.667 -9.33301 -208 -59.333 -208 -150c0 -44 17.5 -79 52.5 -105s81.5 -39 139.5 -39zM428 -12c-108 0 -196.502 30 -265.502 90s-103.5 138.333 -103.5 235c0 97.333 36.167 173.333 108.5 228
s177.5 86.334 315.5 95.001l284 17v80c0 57.333 -18.5 101.5 -55.5 132.5s-89.167 46.5 -156.5 46.5c-56 0 -103 -13.333 -141 -40s-61.333 -62.334 -70 -107.001h-230c3.33301 100 46.833 182.167 130.5 246.5s189.834 96.5 318.501 96.5
c136.667 0 245.834 -32.667 327.501 -98s122.5 -152.333 122.5 -261v-749h-239v176h-6c-30 -58 -75.833 -103.833 -137.5 -137.5s-129.167 -50.5 -202.5 -50.5zM656.998 1258h-201l218 307h245z" />
    <glyph glyph-name="acircumflex" unicode="&#xe2;" horiz-adv-x="1116" 
d="M501 179c76 0 139.333 21.333 190 64s76 97 76 163v83l-250 -16c-138.667 -9.33301 -208 -59.333 -208 -150c0 -44 17.5 -79 52.5 -105s81.5 -39 139.5 -39zM428 -12c-108 0 -196.502 30 -265.502 90s-103.5 138.333 -103.5 235c0 97.333 36.167 173.333 108.5 228
s177.5 86.334 315.5 95.001l284 17v80c0 57.333 -18.5 101.5 -55.5 132.5s-89.167 46.5 -156.5 46.5c-56 0 -103 -13.333 -141 -40s-61.333 -62.334 -70 -107.001h-230c3.33301 100 46.833 182.167 130.5 246.5s189.834 96.5 318.501 96.5
c136.667 0 245.834 -32.667 327.501 -98s122.5 -152.333 122.5 -261v-749h-239v176h-6c-30 -58 -75.833 -103.833 -137.5 -137.5s-129.167 -50.5 -202.5 -50.5zM650.998 1563l270 -311h-202l-157 192h-7l-157 -192h-202l270 311h185z" />
    <glyph glyph-name="atilde" unicode="&#xe3;" horiz-adv-x="1116" 
d="M501 179c76 0 139.333 21.333 190 64s76 97 76 163v83l-250 -16c-138.667 -9.33301 -208 -59.333 -208 -150c0 -44 17.5 -79 52.5 -105s81.5 -39 139.5 -39zM428 -12c-108 0 -196.502 30 -265.502 90s-103.5 138.333 -103.5 235c0 97.333 36.167 173.333 108.5 228
s177.5 86.334 315.5 95.001l284 17v80c0 57.333 -18.5 101.5 -55.5 132.5s-89.167 46.5 -156.5 46.5c-56 0 -103 -13.333 -141 -40s-61.333 -62.334 -70 -107.001h-230c3.33301 100 46.833 182.167 130.5 246.5s189.834 96.5 318.501 96.5
c136.667 0 245.834 -32.667 327.501 -98s122.5 -152.333 122.5 -261v-749h-239v176h-6c-30 -58 -75.833 -103.833 -137.5 -137.5s-129.167 -50.5 -202.5 -50.5zM696.998 1258c-24.667 0 -48 4.83203 -70 14.499s-40.833 21.5 -56.5 35.5s-30.334 28 -44.001 42
s-27.667 25.833 -42 35.5s-28.5 14.5 -42.5 14.5c-21.333 0 -38 -11.167 -50 -33.5s-18.333 -53.166 -19 -92.499h-141c0 82 18.333 146.5 55 193.5s85.334 70.5 146.001 70.5c26 0 50.333 -4.83301 73 -14.5s42 -21.5 58 -35.5s31 -28 45 -42s28 -25.833 42 -35.5
s27.333 -14.5 40 -14.5c42 0 63.667 42.667 65 128h141c0 -80.667 -18.667 -145.167 -56 -193.5s-85.333 -72.5 -144 -72.5z" />
    <glyph glyph-name="adieresis" unicode="&#xe4;" horiz-adv-x="1116" 
d="M501 179c76 0 139.333 21.333 190 64s76 97 76 163v83l-250 -16c-138.667 -9.33301 -208 -59.333 -208 -150c0 -44 17.5 -79 52.5 -105s81.5 -39 139.5 -39zM428 -12c-108 0 -196.502 30 -265.502 90s-103.5 138.333 -103.5 235c0 97.333 36.167 173.333 108.5 228
s177.5 86.334 315.5 95.001l284 17v80c0 57.333 -18.5 101.5 -55.5 132.5s-89.167 46.5 -156.5 46.5c-56 0 -103 -13.333 -141 -40s-61.333 -62.334 -70 -107.001h-230c3.33301 100 46.833 182.167 130.5 246.5s189.834 96.5 318.501 96.5
c136.667 0 245.834 -32.667 327.501 -98s122.5 -152.333 122.5 -261v-749h-239v176h-6c-30 -58 -75.833 -103.833 -137.5 -137.5s-129.167 -50.5 -202.5 -50.5zM353.998 1259c-35.333 0 -65.333 12.167 -90 36.5s-37 53.5 -37 87.5c0 34.667 12.333 64.167 37 88.5
s54.667 36.5 90 36.5s65.333 -12.167 90 -36.5s37 -53.833 37 -88.5c0 -34 -12.333 -63.167 -37 -87.5s-54.667 -36.5 -90 -36.5zM763.998 1259c-35.333 0 -65.333 12.167 -90 36.5s-37 53.5 -37 87.5c0 34.667 12.333 64.167 37 88.5s54.667 36.5 90 36.5
s65.166 -12.167 89.499 -36.5s36.5 -53.833 36.5 -88.5c0 -34 -12.167 -63.167 -36.5 -87.5s-54.166 -36.5 -89.499 -36.5z" />
    <glyph glyph-name="aring" unicode="&#xe5;" horiz-adv-x="1116" 
d="M501 179c76 0 139.333 21.333 190 64s76 97 76 163v83l-250 -16c-138.667 -9.33301 -208 -59.333 -208 -150c0 -44 17.5 -79 52.5 -105s81.5 -39 139.5 -39zM428 -12c-108 0 -196.502 30 -265.502 90s-103.5 138.333 -103.5 235c0 97.333 36.167 173.333 108.5 228
s177.5 86.334 315.5 95.001l284 17v80c0 57.333 -18.5 101.5 -55.5 132.5s-89.167 46.5 -156.5 46.5c-56 0 -103 -13.333 -141 -40s-61.333 -62.334 -70 -107.001h-230c3.33301 100 46.833 182.167 130.5 246.5s189.834 96.5 318.501 96.5
c136.667 0 245.834 -32.667 327.501 -98s122.5 -152.333 122.5 -261v-749h-239v176h-6c-30 -58 -75.833 -103.833 -137.5 -137.5s-129.167 -50.5 -202.5 -50.5zM558.998 1201c-58 0 -108 20.667 -150 62s-63 90.666 -63 147.999c0 58 21 107.667 63 149s92 62 150 62
s108 -20.667 150 -62s63 -91 63 -149c0 -57.333 -21 -106.666 -63 -147.999s-92 -62 -150 -62zM558.998 1305c29.333 0 54.5 10.333 75.5 31s31.5 45.667 31.5 75s-10.5 54.333 -31.5 75s-46.167 31 -75.5 31s-54.5 -10.333 -75.5 -31s-31.5 -45.667 -31.5 -75
s10.5 -54.333 31.5 -75s46.167 -31 75.5 -31z" />
    <glyph glyph-name="ae" unicode="&#xe6;" horiz-adv-x="1816" 
d="M1276 -16c-90 0 -169.83 18.667 -239.497 56s-122.167 89.666 -157.5 156.999h-10c-40.667 -67.333 -95.167 -119 -163.5 -155s-148.166 -54 -239.499 -54c-124.667 0 -223.667 29.5 -297 88.5s-110 137.167 -110 234.5c0 96.667 36.167 172.834 108.5 228.501
s176.833 87.167 313.5 94.5l286 15v68c0 56.667 -20.667 103.334 -62 140.001s-94 55 -158 55c-60.667 0 -110.334 -13.333 -149.001 -40s-60.334 -62.334 -65.001 -107.001h-230c5.33301 102 48.166 184.667 128.499 248s183.166 95 308.499 95
c88 0 164.333 -16.333 229 -49s111.334 -77.667 140.001 -135h9c75.333 122.667 196.666 184 363.999 184c144 0 259 -48.5 345 -145.5s129 -228.5 129 -394.5v-81h-753v-16c0 -88.667 25.333 -159.667 76 -213s117.667 -80 201 -80c58 0 107.333 13 148 39
s68.667 62 84 108h234c-16.667 -102 -68 -184.333 -154 -247s-191.333 -94 -316 -94zM1266 914c-72.667 0 -133 -24 -181 -72s-74.667 -111.333 -80 -190h506c-2.66699 80.667 -26 144.5 -70 191.5s-102.333 70.5 -175 70.5zM493.003 176c76.667 0 141.5 22.167 194.5 66.5
s79.5 98.833 79.5 163.5v79l-257 -15c-66.667 -4 -118 -18.667 -154 -44s-54 -60 -54 -104s17.667 -79.333 53 -106s81.333 -40 138 -40z" />
    <glyph glyph-name="ccedilla" unicode="&#xe7;" horiz-adv-x="1112" 
d="M829 380h235.001c-9.33301 -108.667 -51 -198.167 -125 -268.5s-169.667 -111.833 -287 -124.5l-45 -112c62.667 0 110.667 -13.5 144 -40.5s50 -65.5 50 -115.5c0 -55.333 -21 -99.5 -63 -132.5s-98.667 -49.833 -170 -50.5c-58 0 -105.333 5.66699 -142 17v111
c24.667 -9.33301 63 -14 115 -14c74 0 111 20.667 111 62c0 21.333 -10.333 36.666 -31 45.999s-55 14 -103 14h-55v90l53 125c-140.667 14.667 -251.834 71.5 -333.501 170.5s-122.5 228.833 -122.5 389.5c0 170.667 47.333 306.834 142 408.501s221 152.5 379 152.5
c139.333 0 252.333 -38 339 -114s134.334 -172 143.001 -288h-235c-9.33301 59.333 -35.333 107.333 -78 144s-98 55 -166 55c-82 0 -147.667 -32.333 -197 -97s-74 -151.667 -74 -261c0 -112 24.667 -200 74 -264s115.333 -96 198 -96c66.667 0 121.167 16.667 163.5 50
s69.166 81 80.499 143z" />
    <glyph glyph-name="egrave" unicode="&#xe8;" horiz-adv-x="1135" 
d="M672 1258h-201l-262 307h246zM574 914c-72.667 0 -133.332 -24.167 -181.999 -72.5s-75.667 -111.5 -81 -189.5h518c-2.66699 78.667 -27.334 142 -74.001 190s-107 72 -181 72zM830.002 325h234.001c-16 -101.333 -68.333 -183.5 -157 -246.5s-196.667 -94.5 -324 -94.5
c-161.333 0 -288.833 50 -382.5 150s-140.5 236 -140.5 408s46.5 309.333 139.5 412s217.833 154 374.5 154c153.333 0 275 -48.667 365 -146s135 -228.666 135 -393.999v-82h-765v-15c0 -88 25.667 -158.833 77 -212.5s118.666 -80.5 201.999 -80.5
c60 0 111.667 13.167 155 39.5s72.333 62.166 87 107.499z" />
    <glyph glyph-name="eacute" unicode="&#xe9;" horiz-adv-x="1135" 
d="M671 1258h-201l218 307h245zM574 914c-72.667 0 -133.332 -24.167 -181.999 -72.5s-75.667 -111.5 -81 -189.5h518c-2.66699 78.667 -27.334 142 -74.001 190s-107 72 -181 72zM830.002 325h234.001c-16 -101.333 -68.333 -183.5 -157 -246.5s-196.667 -94.5 -324 -94.5
c-161.333 0 -288.833 50 -382.5 150s-140.5 236 -140.5 408s46.5 309.333 139.5 412s217.833 154 374.5 154c153.333 0 275 -48.667 365 -146s135 -228.666 135 -393.999v-82h-765v-15c0 -88 25.667 -158.833 77 -212.5s118.666 -80.5 201.999 -80.5
c60 0 111.667 13.167 155 39.5s72.333 62.166 87 107.499z" />
    <glyph glyph-name="ecircumflex" unicode="&#xea;" horiz-adv-x="1135" 
d="M665 1563l270 -311h-202l-157 192h-7l-157 -192h-202l270 311h185zM574 914c-72.667 0 -133.332 -24.167 -181.999 -72.5s-75.667 -111.5 -81 -189.5h518c-2.66699 78.667 -27.334 142 -74.001 190s-107 72 -181 72zM830.002 325h234.001
c-16 -101.333 -68.333 -183.5 -157 -246.5s-196.667 -94.5 -324 -94.5c-161.333 0 -288.833 50 -382.5 150s-140.5 236 -140.5 408s46.5 309.333 139.5 412s217.833 154 374.5 154c153.333 0 275 -48.667 365 -146s135 -228.666 135 -393.999v-82h-765v-15
c0 -88 25.667 -158.833 77 -212.5s118.666 -80.5 201.999 -80.5c60 0 111.667 13.167 155 39.5s72.333 62.166 87 107.499z" />
    <glyph glyph-name="edieresis" unicode="&#xeb;" horiz-adv-x="1135" 
d="M574 914c-72.667 0 -133.332 -24.167 -181.999 -72.5s-75.667 -111.5 -81 -189.5h518c-2.66699 78.667 -27.334 142 -74.001 190s-107 72 -181 72zM830.002 325h234.001c-16 -101.333 -68.333 -183.5 -157 -246.5s-196.667 -94.5 -324 -94.5
c-161.333 0 -288.833 50 -382.5 150s-140.5 236 -140.5 408s46.5 309.333 139.5 412s217.833 154 374.5 154c153.333 0 275 -48.667 365 -146s135 -228.666 135 -393.999v-82h-765v-15c0 -88 25.667 -158.833 77 -212.5s118.666 -80.5 201.999 -80.5
c60 0 111.667 13.167 155 39.5s72.333 62.166 87 107.499zM368.003 1259c-35.333 0 -65.333 12.167 -90 36.5s-37 53.5 -37 87.5c0 34.667 12.333 64.167 37 88.5s54.667 36.5 90 36.5s65.333 -12.167 90 -36.5s37 -53.833 37 -88.5c0 -34 -12.333 -63.167 -37 -87.5
s-54.667 -36.5 -90 -36.5zM778.003 1259c-35.333 0 -65.333 12.167 -90 36.5s-37 53.5 -37 87.5c0 34.667 12.333 64.167 37 88.5s54.667 36.5 90 36.5s65.166 -12.167 89.499 -36.5s36.5 -53.833 36.5 -88.5c0 -34 -12.167 -63.167 -36.5 -87.5
s-54.166 -36.5 -89.499 -36.5z" />
    <glyph glyph-name="igrave" unicode="&#xec;" horiz-adv-x="475" 
d="M336 1258h-201l-262 307h246zM113 0v1093h249v-1093h-249z" />
    <glyph glyph-name="iacute" unicode="&#xed;" horiz-adv-x="475" 
d="M335 1258h-201l218 307h245zM113 0v1093h249v-1093h-249z" />
    <glyph glyph-name="icircumflex" unicode="&#xee;" horiz-adv-x="475" 
d="M329 1563l270 -311h-202l-157 192h-7l-157 -192h-202l270 311h185zM113 0v1093h249v-1093h-249z" />
    <glyph glyph-name="idieresis" unicode="&#xef;" horiz-adv-x="475" 
d="M113 0v1093h249v-1093h-249zM32 1259c-35.333 0 -65.333 12.167 -90 36.5s-37 53.5 -37 87.5c0 34.667 12.333 64.167 37 88.5s54.667 36.5 90 36.5s65.333 -12.167 90 -36.5s37 -53.833 37 -88.5c0 -34 -12.333 -63.167 -37 -87.5s-54.667 -36.5 -90 -36.5zM442 1259
c-35.333 0 -65.333 12.167 -90 36.5s-37 53.5 -37 87.5c0 34.667 12.333 64.167 37 88.5s54.667 36.5 90 36.5s65.166 -12.167 89.499 -36.5s36.5 -53.833 36.5 -88.5c0 -34 -12.167 -63.167 -36.5 -87.5s-54.166 -36.5 -89.499 -36.5z" />
    <glyph glyph-name="eth" unicode="&#xf0;" horiz-adv-x="1212" 
d="M605 -18c-159.333 0 -286.499 49.333 -381.499 148s-142.5 231.667 -142.5 399c0 159.333 43.167 286.833 129.5 382.5s199.5 143.5 339.5 143.5c58 0 113.333 -13.5 166 -40.5s91.667 -61.5 117 -103.5h17c-14.667 50 -38.5 103.667 -71.5 161
s-67.833 107.333 -104.5 150l-282 -93l-48 129l229 76c-46.667 46.667 -122 108.667 -226 186h306c44 -34.667 86.667 -73.667 128 -117l259 86l50 -131l-203 -65c160 -200.667 240 -435 240 -703c0 -186.667 -47.333 -334.667 -142 -444s-221.334 -164 -380.001 -164z
M609.001 868c-83.333 0 -149.666 -30.833 -198.999 -92.5s-74 -144.167 -74 -247.5c0 -104 24.667 -186.667 74 -248s115.666 -92 198.999 -92c84 0 150.833 30.667 200.5 92s74.5 144 74.5 248c0 103.333 -25 185.833 -75 247.5s-116.667 92.5 -200 92.5z" />
    <glyph glyph-name="ntilde" unicode="&#xf1;" horiz-adv-x="1174" 
d="M727 1258c-24.667 0 -48 4.83203 -70 14.499s-40.833 21.5 -56.5 35.5s-30.334 28 -44.001 42s-27.667 25.833 -42 35.5s-28.5 14.5 -42.5 14.5c-21.333 0 -38 -11.167 -50 -33.5s-18.333 -53.166 -19 -92.499h-141c0 82 18.333 146.5 55 193.5s85.334 70.5 146.001 70.5
c26 0 50.333 -4.83301 73 -14.5s42 -21.5 58 -35.5s31 -28 45 -42s28 -25.833 42 -35.5s27.333 -14.5 40 -14.5c42 0 63.667 42.667 65 128h141c0 -80.667 -18.667 -145.167 -56 -193.5s-85.333 -72.5 -144 -72.5zM106 -0.000976562v1093h239v-190h5
c66 135.333 180.333 203 343 203c120.667 0 214.167 -35.833 280.5 -107.5s99.5 -171.167 99.5 -298.5v-700h-249v651c0 78.667 -18.833 139 -56.5 181s-93.5 63 -167.5 63c-76 0 -135.833 -24.5 -179.5 -73.5s-65.5 -113.833 -65.5 -194.5v-627h-249z" />
    <glyph glyph-name="ograve" unicode="&#xf2;" horiz-adv-x="1173" 
d="M685 1258h-201l-262 307h246zM586 -16c-161.333 0 -289.333 50.334 -384 151.001s-142 238 -142 412c0 172 47.5 308.5 142.5 409.5s222.833 151.5 383.5 151.5c161.333 0 289.5 -50.333 384.5 -151s142.5 -237.334 142.5 -410.001c0 -174 -47.333 -311.333 -142 -412
s-223 -151 -385 -151zM586 183.001c86 0 153.167 31.832 201.5 95.499s72.5 152.834 72.5 267.501c0 114 -24.167 203 -72.5 267s-115.5 96 -201.5 96c-85.333 0 -152.166 -32 -200.499 -96s-72.5 -153 -72.5 -267s24.167 -203 72.5 -267s115.166 -96 200.499 -96z" />
    <glyph glyph-name="oacute" unicode="&#xf3;" horiz-adv-x="1173" 
d="M684 1258h-201l218 307h245zM586 -16c-161.333 0 -289.333 50.334 -384 151.001s-142 238 -142 412c0 172 47.5 308.5 142.5 409.5s222.833 151.5 383.5 151.5c161.333 0 289.5 -50.333 384.5 -151s142.5 -237.334 142.5 -410.001c0 -174 -47.333 -311.333 -142 -412
s-223 -151 -385 -151zM586 183.001c86 0 153.167 31.832 201.5 95.499s72.5 152.834 72.5 267.501c0 114 -24.167 203 -72.5 267s-115.5 96 -201.5 96c-85.333 0 -152.166 -32 -200.499 -96s-72.5 -153 -72.5 -267s24.167 -203 72.5 -267s115.166 -96 200.499 -96z" />
    <glyph glyph-name="ocircumflex" unicode="&#xf4;" horiz-adv-x="1173" 
d="M678 1563l270 -311h-202l-157 192h-7l-157 -192h-202l270 311h185zM586 -16c-161.333 0 -289.333 50.334 -384 151.001s-142 238 -142 412c0 172 47.5 308.5 142.5 409.5s222.833 151.5 383.5 151.5c161.333 0 289.5 -50.333 384.5 -151s142.5 -237.334 142.5 -410.001
c0 -174 -47.333 -311.333 -142 -412s-223 -151 -385 -151zM586 183.001c86 0 153.167 31.832 201.5 95.499s72.5 152.834 72.5 267.501c0 114 -24.167 203 -72.5 267s-115.5 96 -201.5 96c-85.333 0 -152.166 -32 -200.499 -96s-72.5 -153 -72.5 -267s24.167 -203 72.5 -267
s115.166 -96 200.499 -96z" />
    <glyph glyph-name="otilde" unicode="&#xf5;" horiz-adv-x="1173" 
d="M724 1258c-24.667 0 -48 4.83203 -70 14.499s-40.833 21.5 -56.5 35.5s-30.334 28 -44.001 42s-27.667 25.833 -42 35.5s-28.5 14.5 -42.5 14.5c-21.333 0 -38 -11.167 -50 -33.5s-18.333 -53.166 -19 -92.499h-141c0 82 18.333 146.5 55 193.5s85.334 70.5 146.001 70.5
c26 0 50.333 -4.83301 73 -14.5s42 -21.5 58 -35.5s31 -28 45 -42s28 -25.833 42 -35.5s27.333 -14.5 40 -14.5c42 0 63.667 42.667 65 128h141c0 -80.667 -18.667 -145.167 -56 -193.5s-85.333 -72.5 -144 -72.5zM586 -16.001c-161.333 0 -289.333 50.334 -384 151.001
s-142 238 -142 412c0 172 47.5 308.5 142.5 409.5s222.833 151.5 383.5 151.5c161.333 0 289.5 -50.333 384.5 -151s142.5 -237.334 142.5 -410.001c0 -174 -47.333 -311.333 -142 -412s-223 -151 -385 -151zM586 183c86 0 153.167 31.832 201.5 95.499
s72.5 152.834 72.5 267.501c0 114 -24.167 203 -72.5 267s-115.5 96 -201.5 96c-85.333 0 -152.166 -32 -200.499 -96s-72.5 -153 -72.5 -267s24.167 -203 72.5 -267s115.166 -96 200.499 -96z" />
    <glyph glyph-name="odieresis" unicode="&#xf6;" horiz-adv-x="1173" 
d="M381 1259c-35.333 0 -65.333 12.167 -90 36.5s-37 53.5 -37 87.5c0 34.667 12.333 64.167 37 88.5s54.667 36.5 90 36.5s65.333 -12.167 90 -36.5s37 -53.833 37 -88.5c0 -34 -12.333 -63.167 -37 -87.5s-54.667 -36.5 -90 -36.5zM791 1259
c-35.333 0 -65.333 12.167 -90 36.5s-37 53.5 -37 87.5c0 34.667 12.333 64.167 37 88.5s54.667 36.5 90 36.5s65.166 -12.167 89.499 -36.5s36.5 -53.833 36.5 -88.5c0 -34 -12.167 -63.167 -36.5 -87.5s-54.166 -36.5 -89.499 -36.5zM586 -16
c-161.333 0 -289.333 50.334 -384 151.001s-142 238 -142 412c0 172 47.5 308.5 142.5 409.5s222.833 151.5 383.5 151.5c161.333 0 289.5 -50.333 384.5 -151s142.5 -237.334 142.5 -410.001c0 -174 -47.333 -311.333 -142 -412s-223 -151 -385 -151zM586 183.001
c86 0 153.167 31.832 201.5 95.499s72.5 152.834 72.5 267.501c0 114 -24.167 203 -72.5 267s-115.5 96 -201.5 96c-85.333 0 -152.166 -32 -200.499 -96s-72.5 -153 -72.5 -267s24.167 -203 72.5 -267s115.166 -96 200.499 -96z" />
    <glyph glyph-name="divide" unicode="&#xf7;" horiz-adv-x="1294" 
d="M648 807c-44.667 0 -81.167 13.5 -109.5 40.5s-42.5 62.167 -42.5 105.5s14.167 78.5 42.5 105.5s64.833 40.5 109.5 40.5c44 0 80.167 -13.667 108.5 -41s42.5 -62.333 42.5 -105s-14.167 -77.667 -42.5 -105s-64.5 -41 -108.5 -41zM648 52
c-44.667 0 -81.167 13.502 -109.5 40.502s-42.5 62.167 -42.5 105.5s14.167 78.666 42.5 105.999s64.833 41 109.5 41c44 0 80.167 -13.833 108.5 -41.5s42.5 -62.834 42.5 -105.501s-14.167 -77.667 -42.5 -105s-64.5 -41 -108.5 -41zM1175 479.002h-1056v193h1056v-193z
" />
    <glyph glyph-name="oslash" unicode="&#xf8;" horiz-adv-x="1173" 
d="M812 774l-359 -556.001c38.667 -23.333 83 -35 133 -35c86 0 153.167 31.833 201.5 95.5s72.5 152.834 72.5 267.501c0 91.333 -16 167.333 -48 228zM366 308.999l363 559c-40.667 27.333 -88.334 41 -143.001 41c-85.333 0 -152.166 -32 -200.499 -96
s-72.5 -153 -72.5 -267c0 -95.333 17.667 -174.333 53 -237zM1015 1089l-69 -108c111.333 -102 167 -246.667 167 -434c0 -174 -47.333 -311.333 -142 -412s-223 -151 -385 -151c-94 0 -177.333 17.667 -250 53l-61 -95l-104 66l63 96c-116 101.333 -174 249 -174 443
c0 172 47.5 308.5 142.5 409.5s222.833 151.5 383.5 151.5c98 0 185 -19.333 261 -58l64 99z" />
    <glyph glyph-name="ugrave" unicode="&#xf9;" horiz-adv-x="1174" 
d="M684 1258h-201l-262 307h246zM1068 1093l-0.000976562 -1093h-239v191h-6c-61.333 -136.667 -173 -205 -335 -205c-119.333 0 -213.666 36.167 -282.999 108.5s-104 171.5 -104 297.5v701h249v-651c0 -80 19 -140.833 57 -182.5s93.667 -62.5 167 -62.5
c75.333 0 135 24.5 179 73.5s66 114.167 66 195.5v627h249z" />
    <glyph glyph-name="uacute" unicode="&#xfa;" horiz-adv-x="1174" 
d="M683 1258h-201l218 307h245zM1068 1093l-0.000976562 -1093h-239v191h-6c-61.333 -136.667 -173 -205 -335 -205c-119.333 0 -213.666 36.167 -282.999 108.5s-104 171.5 -104 297.5v701h249v-651c0 -80 19 -140.833 57 -182.5s93.667 -62.5 167 -62.5
c75.333 0 135 24.5 179 73.5s66 114.167 66 195.5v627h249z" />
    <glyph glyph-name="ucircumflex" unicode="&#xfb;" horiz-adv-x="1174" 
d="M677 1563l270 -311h-202l-157 192h-7l-157 -192h-202l270 311h185zM1068 1093l-0.000976562 -1093h-239v191h-6c-61.333 -136.667 -173 -205 -335 -205c-119.333 0 -213.666 36.167 -282.999 108.5s-104 171.5 -104 297.5v701h249v-651c0 -80 19 -140.833 57 -182.5
s93.667 -62.5 167 -62.5c75.333 0 135 24.5 179 73.5s66 114.167 66 195.5v627h249z" />
    <glyph glyph-name="udieresis" unicode="&#xfc;" horiz-adv-x="1174" 
d="M1068 1093l-0.000976562 -1093h-239v191h-6c-61.333 -136.667 -173 -205 -335 -205c-119.333 0 -213.666 36.167 -282.999 108.5s-104 171.5 -104 297.5v701h249v-651c0 -80 19 -140.833 57 -182.5s93.667 -62.5 167 -62.5c75.333 0 135 24.5 179 73.5
s66 114.167 66 195.5v627h249zM379.999 1259c-35.333 0 -65.333 12.167 -90 36.5s-37 53.5 -37 87.5c0 34.667 12.333 64.167 37 88.5s54.667 36.5 90 36.5s65.333 -12.167 90 -36.5s37 -53.833 37 -88.5c0 -34 -12.333 -63.167 -37 -87.5s-54.667 -36.5 -90 -36.5z
M789.999 1259c-35.333 0 -65.333 12.167 -90 36.5s-37 53.5 -37 87.5c0 34.667 12.333 64.167 37 88.5s54.667 36.5 90 36.5s65.166 -12.167 89.499 -36.5s36.5 -53.833 36.5 -88.5c0 -34 -12.167 -63.167 -36.5 -87.5s-54.166 -36.5 -89.499 -36.5z" />
    <glyph glyph-name="yacute" unicode="&#xfd;" horiz-adv-x="1096" 
d="M228 -398c-48.667 0 -81.334 1.66797 -98.001 5.00098v198c12.667 -2.66699 35.334 -4 68.001 -4c53.333 0 95.5 11.167 126.5 33.5s54.167 59.166 69.5 110.499l14 51l-391 1097h271l262 -878h5l261 878h263l-396 -1131c-46.667 -134 -103.5 -227.5 -170.5 -280.5
s-161.833 -79.5 -284.5 -79.5zM647 1258h-201l218 307h245z" />
    <glyph glyph-name="thorn" unicode="&#xfe;" horiz-adv-x="1223" 
d="M712 1111c138.667 0 248.166 -50.501 328.499 -151.501s120.5 -238.833 120.5 -413.5c0 -173.333 -40.167 -310.666 -120.5 -411.999s-189.5 -152 -327.5 -152c-78 0 -146.333 16.167 -205 48.5s-101.667 77.5 -129 135.5h-17v-517h-248v1858h243v-595h17
c31.333 62 76.833 110.667 136.5 146s126.834 53 201.501 53zM632.999 187.999c85.333 0 152.166 31.667 200.499 95s72.5 151 72.5 263s-24.167 199.667 -72.5 263s-115.166 95 -200.499 95c-84.667 0 -151.667 -32 -201 -96s-74 -151.333 -74 -262s24.667 -198 74 -262
s116.333 -96 201 -96z" />
    <glyph glyph-name="ydieresis" unicode="&#xff;" horiz-adv-x="1096" 
d="M228 -398c-48.667 0 -81.334 1.66797 -98.001 5.00098v198c12.667 -2.66699 35.334 -4 68.001 -4c53.333 0 95.5 11.167 126.5 33.5s54.167 59.166 69.5 110.499l14 51l-391 1097h271l262 -878h5l261 878h263l-396 -1131c-46.667 -134 -103.5 -227.5 -170.5 -280.5
s-161.833 -79.5 -284.5 -79.5zM344 1259c-35.333 0 -65.333 12.167 -90 36.5s-37 53.5 -37 87.5c0 34.667 12.333 64.167 37 88.5s54.667 36.5 90 36.5s65.333 -12.167 90 -36.5s37 -53.833 37 -88.5c0 -34 -12.333 -63.167 -37 -87.5s-54.667 -36.5 -90 -36.5zM754 1259
c-35.333 0 -65.333 12.167 -90 36.5s-37 53.5 -37 87.5c0 34.667 12.333 64.167 37 88.5s54.667 36.5 90 36.5s65.166 -12.167 89.499 -36.5s36.5 -53.833 36.5 -88.5c0 -34 -12.167 -63.167 -36.5 -87.5s-54.166 -36.5 -89.499 -36.5z" />
    <glyph glyph-name="Amacron" unicode="&#x100;" horiz-adv-x="1369" 
d="M1070 0l-123 373h-531l-123 -373h-266l512 1443h291l512 -1443h-272zM678 1188l-202 -616h410l-201 616h-7zM1019 1760v-129h-670v129h670z" />
    <glyph glyph-name="amacron" unicode="&#x101;" horiz-adv-x="1116" 
d="M501 179c76 0 139.333 21.333 190 64s76 97 76 163v83l-250 -16c-138.667 -9.33301 -208 -59.333 -208 -150c0 -44 17.5 -79 52.5 -105s81.5 -39 139.5 -39zM428 -12c-108 0 -196.502 30 -265.502 90s-103.5 138.333 -103.5 235c0 97.333 36.167 173.333 108.5 228
s177.5 86.334 315.5 95.001l284 17v80c0 57.333 -18.5 101.5 -55.5 132.5s-89.167 46.5 -156.5 46.5c-56 0 -103 -13.333 -141 -40s-61.333 -62.334 -70 -107.001h-230c3.33301 100 46.833 182.167 130.5 246.5s189.834 96.5 318.501 96.5
c136.667 0 245.834 -32.667 327.501 -98s122.5 -152.333 122.5 -261v-749h-239v176h-6c-30 -58 -75.833 -103.833 -137.5 -137.5s-129.167 -50.5 -202.5 -50.5zM886.998 1436v-130h-656v130h656z" />
    <glyph glyph-name="Abreve" unicode="&#x102;" horiz-adv-x="1369" 
d="M1070 0l-123 373h-531l-123 -373h-266l512 1443h291l512 -1443h-272zM678 1188l-202 -616h410l-201 616h-7zM347 1856h155.998c0.666992 -52 18 -95.167 52 -129.5s77 -51.5 129 -51.5s95 17.167 129 51.5s51.333 77.5 52 129.5h156
c-1.33301 -90.667 -32.666 -165 -93.999 -223s-142.333 -87 -243 -87s-181.667 29 -243 87s-92.666 132.333 -93.999 223z" />
    <glyph glyph-name="abreve" unicode="&#x103;" horiz-adv-x="1116" 
d="M501 179c76 0 139.333 21.333 190 64s76 97 76 163v83l-250 -16c-138.667 -9.33301 -208 -59.333 -208 -150c0 -44 17.5 -79 52.5 -105s81.5 -39 139.5 -39zM428 -12c-108 0 -196.502 30 -265.502 90s-103.5 138.333 -103.5 235c0 97.333 36.167 173.333 108.5 228
s177.5 86.334 315.5 95.001l284 17v80c0 57.333 -18.5 101.5 -55.5 132.5s-89.167 46.5 -156.5 46.5c-56 0 -103 -13.333 -141 -40s-61.333 -62.334 -70 -107.001h-230c3.33301 100 46.833 182.167 130.5 246.5s189.834 96.5 318.501 96.5
c136.667 0 245.834 -32.667 327.501 -98s122.5 -152.333 122.5 -261v-749h-239v176h-6c-30 -58 -75.833 -103.833 -137.5 -137.5s-129.167 -50.5 -202.5 -50.5zM212.998 1563h159c0.666992 -52.667 18.5 -96.834 53.5 -132.501s79.167 -53.5 132.5 -53.5
s97.5 17.833 132.5 53.5s52.833 79.834 53.5 132.501h159c-1.33301 -93.333 -33.333 -169.666 -96 -228.999s-145.667 -89 -249 -89s-186.333 29.667 -249 89s-94.667 135.666 -96 228.999z" />
    <glyph glyph-name="Aogonek" unicode="&#x104;" horiz-adv-x="1369" 
d="M678 1188l-202 -616h410l-201 616h-7zM1294 -433c-34 -12.667 -75.667 -19.001 -125 -19.001c-76.667 0 -139.667 20.333 -189 61s-74 92.667 -74 156c0 93.333 54 173 162 239l-121 369h-531l-123 -373h-266l512 1443h291l512 -1443l-32 -3
c-57.333 -14.667 -104.833 -39.667 -142.5 -75s-56.5 -72.666 -56.5 -111.999c0 -29.333 10.5 -52.833 31.5 -70.5s48.833 -26.5 83.5 -26.5c31.333 0 54 2.33301 68 7v-153z" />
    <glyph glyph-name="aogonek" unicode="&#x105;" horiz-adv-x="1116" 
d="M501 179c76 0 139.333 21.333 190 64s76 97 76 163v83l-250 -16c-138.667 -9.33301 -208 -59.333 -208 -150c0 -44 17.5 -79 52.5 -105s81.5 -39 139.5 -39zM987 -433c-34 -12.667 -75.6689 -18.999 -125.002 -18.999c-77.333 0 -140.5 20.167 -189.5 60.5
s-73.5 92.166 -73.5 155.499c0 49.333 16.167 95.833 48.5 139.5s74.5 76.5 126.5 98.5v174h-6c-30 -58 -75.833 -103.833 -137.5 -137.5s-129.167 -50.5 -202.5 -50.5c-108 0 -196.5 30 -265.5 90s-103.5 138.333 -103.5 235c0 97.333 36.167 173.333 108.5 228
s177.5 86.334 315.5 95.001l284 17v80c0 57.333 -18.5 101.5 -55.5 132.5s-89.167 46.5 -156.5 46.5c-56 0 -103 -13.333 -141 -40s-61.333 -62.334 -70 -107.001h-230c3.33301 100 46.833 182.167 130.5 246.5s189.834 96.5 318.501 96.5
c136.667 0 245.834 -32.667 327.501 -98s122.5 -152.333 122.5 -261v-749l-27 -6c-54.667 -17.333 -98.667 -42.833 -132 -76.5s-50 -69.5 -50 -107.5c0 -28.667 10.333 -52 31 -70s49 -27 85 -27c30.667 0 53 2.33301 67 7v-153z" />
    <glyph glyph-name="Cacute" unicode="&#x106;" horiz-adv-x="1439" 
d="M838 1553h-198l231 306h246zM749 -24c-206.667 0 -370.163 66.667 -490.496 200s-180.5 315.333 -180.5 546c0 229.333 60.5 410.833 181.5 544.5s284.167 200.5 489.5 200.5c168 0 309.667 -47.833 425 -143.5s181 -220.834 197 -375.501h-254
c-16.667 90.667 -58.834 163.334 -126.501 218.001s-148.167 82 -241.5 82c-124 0 -222.833 -47.5 -296.5 -142.5s-110.5 -222.833 -110.5 -383.5c0 -162 36.667 -290.333 110 -385s172.666 -142 297.999 -142c95.333 0 175.5 24.5 240.5 73.5s107.5 116.833 127.5 203.5
h253c-22.667 -154.667 -89.334 -276 -200.001 -364s-251.334 -132 -422.001 -132z" />
    <glyph glyph-name="cacute" unicode="&#x107;" horiz-adv-x="1112" 
d="M1063 706l-235 -0.000976562c-9.33301 59.333 -35.333 107.333 -78 144s-98 55 -166 55c-82 0 -147.667 -32.333 -197 -97s-74 -151.667 -74 -261c0 -112 24.667 -200 74 -264s115.333 -96 198 -96c66.667 0 121.167 16.667 163.5 50s69.166 81 80.499 143h235
c-10.667 -120 -59.5 -216 -146.5 -288s-198.5 -108 -334.5 -108c-159.333 0 -286.333 50.5 -381 151.5s-142 238.167 -142 411.5c0 170.667 47.333 306.834 142 408.501s221 152.5 379 152.5c139.333 0 252.333 -38 339 -114s134.334 -172 143.001 -288zM671 1258h-201
l218 307h245z" />
    <glyph glyph-name="Ccircumflex" unicode="&#x108;" horiz-adv-x="1439" 
d="M749 -24c-206.667 0 -370.163 66.667 -490.496 200s-180.5 315.333 -180.5 546c0 229.333 60.5 410.833 181.5 544.5s284.167 200.5 489.5 200.5c168 0 309.667 -47.833 425 -143.5s181 -220.834 197 -375.501h-254c-16.667 90.667 -58.834 163.334 -126.501 218.001
s-148.167 82 -241.5 82c-124 0 -222.833 -47.5 -296.5 -142.5s-110.5 -222.833 -110.5 -383.5c0 -162 36.667 -290.333 110 -385s172.666 -142 297.999 -142c95.333 0 175.5 24.5 240.5 73.5s107.5 116.833 127.5 203.5h253c-22.667 -154.667 -89.334 -276 -200.001 -364
s-251.334 -132 -422.001 -132zM643.004 1857h196l281 -310h-203l-174 198h-4l-174 -198h-203z" />
    <glyph glyph-name="ccircumflex" unicode="&#x109;" horiz-adv-x="1112" 
d="M665 1563l270 -311h-202l-157 192h-7l-157 -192h-202l270 311h185zM1063 706l-235 -0.000976562c-9.33301 59.333 -35.333 107.333 -78 144s-98 55 -166 55c-82 0 -147.667 -32.333 -197 -97s-74 -151.667 -74 -261c0 -112 24.667 -200 74 -264s115.333 -96 198 -96
c66.667 0 121.167 16.667 163.5 50s69.166 81 80.499 143h235c-10.667 -120 -59.5 -216 -146.5 -288s-198.5 -108 -334.5 -108c-159.333 0 -286.333 50.5 -381 151.5s-142 238.167 -142 411.5c0 170.667 47.333 306.834 142 408.501s221 152.5 379 152.5
c139.333 0 252.333 -38 339 -114s134.334 -172 143.001 -288z" />
    <glyph glyph-name="Cdotaccent" unicode="&#x10a;" horiz-adv-x="1439" 
d="M741 1570c-38.667 0 -71.5 13.667 -98.5 41s-40.5 60 -40.5 98c0 38.667 13.5 71.5 40.5 98.5s59.833 40.5 98.5 40.5s71.5 -13.5 98.5 -40.5s40.5 -59.833 40.5 -98.5c0 -38 -13.5 -70.667 -40.5 -98s-59.833 -41 -98.5 -41zM749 -24
c-206.667 0 -370.163 66.667 -490.496 200s-180.5 315.333 -180.5 546c0 229.333 60.5 410.833 181.5 544.5s284.167 200.5 489.5 200.5c168 0 309.667 -47.833 425 -143.5s181 -220.834 197 -375.501h-254c-16.667 90.667 -58.834 163.334 -126.501 218.001
s-148.167 82 -241.5 82c-124 0 -222.833 -47.5 -296.5 -142.5s-110.5 -222.833 -110.5 -383.5c0 -162 36.667 -290.333 110 -385s172.666 -142 297.999 -142c95.333 0 175.5 24.5 240.5 73.5s107.5 116.833 127.5 203.5h253c-22.667 -154.667 -89.334 -276 -200.001 -364
s-251.334 -132 -422.001 -132z" />
    <glyph glyph-name="cdotaccent" unicode="&#x10b;" horiz-adv-x="1112" 
d="M1063 706l-235 -0.000976562c-9.33301 59.333 -35.333 107.333 -78 144s-98 55 -166 55c-82 0 -147.667 -32.333 -197 -97s-74 -151.667 -74 -261c0 -112 24.667 -200 74 -264s115.333 -96 198 -96c66.667 0 121.167 16.667 163.5 50s69.166 81 80.499 143h235
c-10.667 -120 -59.5 -216 -146.5 -288s-198.5 -108 -334.5 -108c-159.333 0 -286.333 50.5 -381 151.5s-142 238.167 -142 411.5c0 170.667 47.333 306.834 142 408.501s221 152.5 379 152.5c139.333 0 252.333 -38 339 -114s134.334 -172 143.001 -288zM573 1262
c-39.333 0 -72.666 13.667 -99.999 41s-41 60.333 -41 99c0 38 13.667 70.667 41 98s60.666 41 99.999 41c38.667 0 71.667 -13.667 99 -41s41 -60 41 -98c0 -38.667 -13.667 -71.667 -41 -99s-60.333 -41 -99 -41z" />
    <glyph glyph-name="Ccaron" unicode="&#x10c;" horiz-adv-x="1439" 
d="M749 -24c-206.667 0 -370.163 66.667 -490.496 200s-180.5 315.333 -180.5 546c0 229.333 60.5 410.833 181.5 544.5s284.167 200.5 489.5 200.5c168 0 309.667 -47.833 425 -143.5s181 -220.834 197 -375.501h-254c-16.667 90.667 -58.834 163.334 -126.501 218.001
s-148.167 82 -241.5 82c-124 0 -222.833 -47.5 -296.5 -142.5s-110.5 -222.833 -110.5 -383.5c0 -162 36.667 -290.333 110 -385s172.666 -142 297.999 -142c95.333 0 175.5 24.5 240.5 73.5s107.5 116.833 127.5 203.5h253c-22.667 -154.667 -89.334 -276 -200.001 -364
s-251.334 -132 -422.001 -132zM643.004 1547l-281 310h203l174 -198h4l174 198h203l-281 -310h-196z" />
    <glyph glyph-name="ccaron" unicode="&#x10d;" horiz-adv-x="1112" 
d="M665 1252h-185l-270 311h202l157 -191h7l157 191h202zM1063 706l-235 -0.000976562c-9.33301 59.333 -35.333 107.333 -78 144s-98 55 -166 55c-82 0 -147.667 -32.333 -197 -97s-74 -151.667 -74 -261c0 -112 24.667 -200 74 -264s115.333 -96 198 -96
c66.667 0 121.167 16.667 163.5 50s69.166 81 80.499 143h235c-10.667 -120 -59.5 -216 -146.5 -288s-198.5 -108 -334.5 -108c-159.333 0 -286.333 50.5 -381 151.5s-142 238.167 -142 411.5c0 170.667 47.333 306.834 142 408.501s221 152.5 379 152.5
c139.333 0 252.333 -38 339 -114s134.334 -172 143.001 -288z" />
    <glyph glyph-name="Dcaron" unicode="&#x10e;" horiz-adv-x="1424" 
d="M512 1546l-281 310h203l174 -198h4l174 198h203l-281 -310h-196zM127 1443h534c216 0 384.333 -62.667 505 -188s181 -302 181 -530c0 -228.667 -60.333 -406.667 -181 -534s-289 -191 -505 -191h-534v1443zM385 1225l0.000976562 -1007h249
c145.333 0 256.666 43.333 333.999 130s116 212 116 376c0 161.333 -39 285.166 -117 371.499s-189 129.5 -333 129.5h-249z" />
    <glyph glyph-name="dcaron" unicode="&#x10f;" horiz-adv-x="1397" 
d="M1260 1507h189l-36 -498h-153v498zM515 -12c-136.667 0 -246.668 50.8311 -330.001 152.498s-125 237.167 -125 406.5c0 168.667 41.667 303.834 125 405.501s193 152.5 329 152.5c78 0 146.667 -17.333 206 -52s104 -82.667 134 -144h6v601h249v-1510h-244v186h-5
c-30 -61.333 -75.167 -109.666 -135.5 -144.999s-130.166 -53 -209.499 -53zM587.999 897.998c-82.667 0 -148.835 -32.001 -198.502 -96.001s-74.5 -149.333 -74.5 -256c0 -107.333 24.833 -192.666 74.5 -255.999s115.834 -95 198.501 -95s148.834 32 198.501 96
s74.5 149 74.5 255c0 105.333 -25 190.333 -75 255s-116 97 -198 97z" />
    <glyph glyph-name="Dcroat" unicode="&#x110;" horiz-adv-x="1441" 
d="M402 218l249.001 0.000976562c145.333 0 256.666 43.333 333.999 130s116 212 116 376c0 161.333 -39 285.166 -117 371.499s-189 129.5 -333 129.5h-249v-388h263v-200h-263v-419zM144.001 1443h534c216 0 384.333 -62.667 505 -188s181 -302 181 -530
c0 -228.667 -60.333 -406.667 -181 -534s-289 -191 -505 -191h-534v637h-109v200h109v606z" />
    <glyph glyph-name="dcroat" unicode="&#x111;" horiz-adv-x="1243" 
d="M588 195c82.667 0 148.833 31.999 198.5 95.999s74.5 149 74.5 255c0 105.333 -25 190.333 -75 255s-116 97 -198 97c-82.667 0 -148.834 -32 -198.501 -96s-74.5 -149.333 -74.5 -256c0 -107.333 24.833 -192.666 74.5 -255.999s115.834 -95 198.501 -95zM1222 1398
l-0.000976562 -141.002h-113v-1257h-244v186h-5c-30 -61.333 -75.167 -109.666 -135.5 -144.999s-130.166 -53 -209.499 -53c-136.667 0 -246.667 50.833 -330 152.5s-125 237.167 -125 406.5c0 168.667 41.667 303.834 125 405.501s193 152.5 329 152.5
c78 0 146.667 -17.333 206 -52s104 -82.667 134 -144h6v348h-227v141h227v112h249v-112h113z" />
    <glyph glyph-name="Emacron" unicode="&#x112;" horiz-adv-x="1158" 
d="M1061 218v-218h-934v1443h934v-218h-676v-390h639v-205h-639v-412h676zM929 1760v-129h-670v129h670z" />
    <glyph glyph-name="emacron" unicode="&#x113;" horiz-adv-x="1135" 
d="M574 914c-72.667 0 -133.332 -24.167 -181.999 -72.5s-75.667 -111.5 -81 -189.5h518c-2.66699 78.667 -27.334 142 -74.001 190s-107 72 -181 72zM830.002 325h234.001c-16 -101.333 -68.333 -183.5 -157 -246.5s-196.667 -94.5 -324 -94.5
c-161.333 0 -288.833 50 -382.5 150s-140.5 236 -140.5 408s46.5 309.333 139.5 412s217.833 154 374.5 154c153.333 0 275 -48.667 365 -146s135 -228.666 135 -393.999v-82h-765v-15c0 -88 25.667 -158.833 77 -212.5s118.666 -80.5 201.999 -80.5
c60 0 111.667 13.167 155 39.5s72.333 62.166 87 107.499zM901.003 1436v-130h-656v130h656z" />
    <glyph glyph-name="Ebreve" unicode="&#x114;" horiz-adv-x="1158" 
d="M1061 218v-218h-934v1443h934v-218h-676v-390h639v-205h-639v-412h676zM257 1856h155.998c0.666992 -52 18 -95.167 52 -129.5s77 -51.5 129 -51.5s95 17.167 129 51.5s51.333 77.5 52 129.5h156c-1.33301 -90.667 -32.666 -165 -93.999 -223s-142.333 -87 -243 -87
s-181.667 29 -243 87s-92.666 132.333 -93.999 223z" />
    <glyph glyph-name="ebreve" unicode="&#x115;" horiz-adv-x="1135" 
d="M574 914c-72.667 0 -133.332 -24.167 -181.999 -72.5s-75.667 -111.5 -81 -189.5h518c-2.66699 78.667 -27.334 142 -74.001 190s-107 72 -181 72zM830.002 325h234.001c-16 -101.333 -68.333 -183.5 -157 -246.5s-196.667 -94.5 -324 -94.5
c-161.333 0 -288.833 50 -382.5 150s-140.5 236 -140.5 408s46.5 309.333 139.5 412s217.833 154 374.5 154c153.333 0 275 -48.667 365 -146s135 -228.666 135 -393.999v-82h-765v-15c0 -88 25.667 -158.833 77 -212.5s118.666 -80.5 201.999 -80.5
c60 0 111.667 13.167 155 39.5s72.333 62.166 87 107.499zM227.003 1563h159c0.666992 -52.667 18.5 -96.834 53.5 -132.501s79.167 -53.5 132.5 -53.5s97.5 17.833 132.5 53.5s52.833 79.834 53.5 132.501h159c-1.33301 -93.333 -33.333 -169.666 -96 -228.999
s-145.667 -89 -249 -89s-186.333 29.667 -249 89s-94.667 135.666 -96 228.999z" />
    <glyph glyph-name="Edotaccent" unicode="&#x116;" horiz-adv-x="1158" 
d="M594 1569c-38.667 0 -71.5 13.667 -98.5 41s-40.5 60 -40.5 98c0 38.667 13.5 71.5 40.5 98.5s59.833 40.5 98.5 40.5s71.5 -13.5 98.5 -40.5s40.5 -59.833 40.5 -98.5c0 -38 -13.5 -70.667 -40.5 -98s-59.833 -41 -98.5 -41zM1061 218v-218h-934v1443h934v-218h-676
v-390h639v-205h-639v-412h676z" />
    <glyph glyph-name="edotaccent" unicode="&#x117;" horiz-adv-x="1135" 
d="M573 1262c-39.333 0 -72.666 13.667 -99.999 41s-41 60.333 -41 99c0 38 13.667 70.667 41 98s60.666 41 99.999 41c38.667 0 71.667 -13.667 99 -41s41 -60 41 -98c0 -38.667 -13.667 -71.667 -41 -99s-60.333 -41 -99 -41zM574 914
c-72.667 0 -133.332 -24.167 -181.999 -72.5s-75.667 -111.5 -81 -189.5h518c-2.66699 78.667 -27.334 142 -74.001 190s-107 72 -181 72zM830.002 325h234.001c-16 -101.333 -68.333 -183.5 -157 -246.5s-196.667 -94.5 -324 -94.5c-161.333 0 -288.833 50 -382.5 150
s-140.5 236 -140.5 408s46.5 309.333 139.5 412s217.833 154 374.5 154c153.333 0 275 -48.667 365 -146s135 -228.666 135 -393.999v-82h-765v-15c0 -88 25.667 -158.833 77 -212.5s118.666 -80.5 201.999 -80.5c60 0 111.667 13.167 155 39.5s72.333 62.166 87 107.499z
" />
    <glyph glyph-name="Eogonek" unicode="&#x118;" horiz-adv-x="1158" 
d="M884 -452c-76.667 0 -139.501 20.332 -188.501 60.999s-73.5 92.667 -73.5 156c0 46 13.333 89.333 40 130s63.334 74.334 110.001 101.001v4h-645v1443h934v-218h-676v-390h639v-205h-639v-412h676v-210l-46 -12c-52 -14.667 -96.5 -39.667 -133.5 -75
s-55.5 -72.333 -55.5 -111c0 -29.333 10.667 -52.833 32 -70.5s49.333 -26.5 84 -26.5c30 0 52.667 2.33301 68 7v-153c-34.667 -12.667 -76.667 -19 -126 -19z" />
    <glyph glyph-name="eogonek" unicode="&#x119;" horiz-adv-x="1135" 
d="M780 -452c-77.333 0 -140.499 20.168 -189.499 60.501s-73.5 92.166 -73.5 155.499c0 86 45.333 159.333 136 220v5c-24.667 -3.33301 -48 -5 -70 -5c-161.333 0 -288.833 50 -382.5 150s-140.5 236 -140.5 408s46.5 309.333 139.5 412s217.833 154 374.5 154
c153.333 0 275 -48.667 365 -146s135 -228.666 135 -393.999v-82h-765v-15c0 -88 25.667 -158.833 77 -212.5s118.666 -80.5 201.999 -80.5c60 0 111.667 13.167 155 39.5s72.333 62.166 87 107.499h234c-15.333 -98.667 -76.333 -190 -183 -274
c-106 -84.667 -159 -164 -159 -238c0 -30.667 10.5 -55 31.5 -73s49.167 -27 84.5 -27c30 0 52.667 2.33301 68 7v-153c-34.667 -12.667 -76.667 -19 -126 -19zM574.001 914.001c-72.667 0 -133.332 -24.167 -181.999 -72.5s-75.667 -111.5 -81 -189.5h518
c-2.66699 78.667 -27.334 142 -74.001 190s-107 72 -181 72z" />
    <glyph glyph-name="Ecaron" unicode="&#x11a;" horiz-adv-x="1158" 
d="M496 1546l-281 310h203l174 -198h4l174 198h203l-281 -310h-196zM1061 218v-218h-934v1443h934v-218h-676v-390h639v-205h-639v-412h676z" />
    <glyph glyph-name="ecaron" unicode="&#x11b;" horiz-adv-x="1135" 
d="M665 1252h-185l-270 311h202l157 -191h7l157 191h202zM574 914c-72.667 0 -133.332 -24.167 -181.999 -72.5s-75.667 -111.5 -81 -189.5h518c-2.66699 78.667 -27.334 142 -74.001 190s-107 72 -181 72zM830.002 325h234.001c-16 -101.333 -68.333 -183.5 -157 -246.5
s-196.667 -94.5 -324 -94.5c-161.333 0 -288.833 50 -382.5 150s-140.5 236 -140.5 408s46.5 309.333 139.5 412s217.833 154 374.5 154c153.333 0 275 -48.667 365 -146s135 -228.666 135 -393.999v-82h-765v-15c0 -88 25.667 -158.833 77 -212.5
s118.666 -80.5 201.999 -80.5c60 0 111.667 13.167 155 39.5s72.333 62.166 87 107.499z" />
    <glyph glyph-name="Gcircumflex" unicode="&#x11c;" horiz-adv-x="1473" 
d="M650 1856h196l281 -310h-203l-174 198h-4l-174 -198h-203zM1390 602c0 -196 -55.501 -349.333 -166.501 -460s-265.167 -166 -462.5 -166c-210.667 0 -377.167 67.167 -499.5 201.5s-183.5 317.5 -183.5 549.5c0 228.667 60.833 409.167 182.5 541.5
s286.834 198.5 495.501 198.5c164 0 303 -44.333 417 -133s182.667 -205.334 206 -350.001h-262c-24.667 82.667 -68.667 147.334 -132 194.001s-139.333 70 -228 70c-130 0 -231.667 -45.667 -305 -137s-110 -218.333 -110 -381c0 -166 37.833 -296.667 113.5 -392
s178.5 -143 308.5 -143c108.667 0 197.5 31.333 266.5 94s104.5 144.667 106.5 246l1 24h-348v197h600v-154z" />
    <glyph glyph-name="gcircumflex" unicode="&#x11d;" horiz-adv-x="1215" 
d="M681 1563l270 -311h-202l-157 192h-7l-157 -192h-202l270 311h185zM585 205c83.333 0 150 31.167 200 93.5s75 145.833 75 250.5c0 105.333 -25.167 189.833 -75.5 253.5s-116.833 95.5 -199.5 95.5c-82 0 -147.5 -31.5 -196.5 -94.5s-73.5 -147.833 -73.5 -254.5
c0 -105.333 24.5 -189 73.5 -251s114.5 -93 196.5 -93zM585 -412c-132 0 -242.831 30.668 -332.498 92.001s-141.167 140.333 -154.5 237h248c14 -43.333 43.333 -78 88 -104s97.667 -39 159 -39c83.333 0 148.666 21.5 195.999 64.5s71 100.5 71 172.5v183h-6
c-29.333 -58.667 -74.333 -105 -135 -139s-130 -51 -208 -51c-136 0 -245.167 49.5 -327.5 148.5s-123.5 231.5 -123.5 397.5c0 169.333 41.167 304.166 123.5 404.499s193.166 150.5 332.499 150.5c77.333 0 146 -17.333 206 -52s106 -82.667 138 -144h5v184h244v-1075
c0 -130 -47.833 -234.167 -143.5 -312.5s-222.5 -117.5 -380.5 -117.5z" />
    <glyph glyph-name="Gbreve" unicode="&#x11e;" horiz-adv-x="1473" 
d="M1390 602c0 -196 -55.501 -349.333 -166.501 -460s-265.167 -166 -462.5 -166c-210.667 0 -377.167 67.167 -499.5 201.5s-183.5 317.5 -183.5 549.5c0 228.667 60.833 409.167 182.5 541.5s286.834 198.5 495.501 198.5c164 0 303 -44.333 417 -133
s182.667 -205.334 206 -350.001h-262c-24.667 82.667 -68.667 147.334 -132 194.001s-139.333 70 -228 70c-130 0 -231.667 -45.667 -305 -137s-110 -218.333 -110 -381c0 -166 37.833 -296.667 113.5 -392s178.5 -143 308.5 -143c108.667 0 197.5 31.333 266.5 94
s104.5 144.667 106.5 246l1 24h-348v197h600v-154zM410.999 1856h155.998c0.666992 -52 18 -95.167 52 -129.5s77 -51.5 129 -51.5s95 17.167 129 51.5s51.333 77.5 52 129.5h156c-1.33301 -90.667 -32.666 -165 -93.999 -223s-142.333 -87 -243 -87s-181.667 29 -243 87
s-92.666 132.333 -93.999 223z" />
    <glyph glyph-name="gbreve" unicode="&#x11f;" horiz-adv-x="1215" 
d="M243 1563h159c0.666992 -52.667 18.5 -96.834 53.5 -132.501s79.167 -53.5 132.5 -53.5s97.5 17.833 132.5 53.5s52.833 79.834 53.5 132.501h159c-1.33301 -93.333 -33.333 -169.666 -96 -228.999s-145.667 -89 -249 -89s-186.333 29.667 -249 89
s-94.667 135.666 -96 228.999zM585 205c83.333 0 150 31.167 200 93.5s75 145.833 75 250.5c0 105.333 -25.167 189.833 -75.5 253.5s-116.833 95.5 -199.5 95.5c-82 0 -147.5 -31.5 -196.5 -94.5s-73.5 -147.833 -73.5 -254.5c0 -105.333 24.5 -189 73.5 -251
s114.5 -93 196.5 -93zM585 -412c-132 0 -242.831 30.668 -332.498 92.001s-141.167 140.333 -154.5 237h248c14 -43.333 43.333 -78 88 -104s97.667 -39 159 -39c83.333 0 148.666 21.5 195.999 64.5s71 100.5 71 172.5v183h-6c-29.333 -58.667 -74.333 -105 -135 -139
s-130 -51 -208 -51c-136 0 -245.167 49.5 -327.5 148.5s-123.5 231.5 -123.5 397.5c0 169.333 41.167 304.166 123.5 404.499s193.166 150.5 332.499 150.5c77.333 0 146 -17.333 206 -52s106 -82.667 138 -144h5v184h244v-1075c0 -130 -47.833 -234.167 -143.5 -312.5
s-222.5 -117.5 -380.5 -117.5z" />
    <glyph glyph-name="Gdotaccent" unicode="&#x120;" horiz-adv-x="1473" 
d="M748 1569c-38.667 0 -71.5 13.667 -98.5 41s-40.5 60 -40.5 98c0 38.667 13.5 71.5 40.5 98.5s59.833 40.5 98.5 40.5s71.5 -13.5 98.5 -40.5s40.5 -59.833 40.5 -98.5c0 -38 -13.5 -70.667 -40.5 -98s-59.833 -41 -98.5 -41zM1390 602
c0 -196 -55.501 -349.333 -166.501 -460s-265.167 -166 -462.5 -166c-210.667 0 -377.167 67.167 -499.5 201.5s-183.5 317.5 -183.5 549.5c0 228.667 60.833 409.167 182.5 541.5s286.834 198.5 495.501 198.5c164 0 303 -44.333 417 -133s182.667 -205.334 206 -350.001
h-262c-24.667 82.667 -68.667 147.334 -132 194.001s-139.333 70 -228 70c-130 0 -231.667 -45.667 -305 -137s-110 -218.333 -110 -381c0 -166 37.833 -296.667 113.5 -392s178.5 -143 308.5 -143c108.667 0 197.5 31.333 266.5 94s104.5 144.667 106.5 246l1 24h-348v197
h600v-154z" />
    <glyph glyph-name="gdotaccent" unicode="&#x121;" horiz-adv-x="1215" 
d="M589 1262c-39.333 0 -72.666 13.667 -99.999 41s-41 60.333 -41 99c0 38 13.667 70.667 41 98s60.666 41 99.999 41c38.667 0 71.667 -13.667 99 -41s41 -60 41 -98c0 -38.667 -13.667 -71.667 -41 -99s-60.333 -41 -99 -41zM585 205c83.333 0 150 31.167 200 93.5
s75 145.833 75 250.5c0 105.333 -25.167 189.833 -75.5 253.5s-116.833 95.5 -199.5 95.5c-82 0 -147.5 -31.5 -196.5 -94.5s-73.5 -147.833 -73.5 -254.5c0 -105.333 24.5 -189 73.5 -251s114.5 -93 196.5 -93zM585 -412c-132 0 -242.831 30.668 -332.498 92.001
s-141.167 140.333 -154.5 237h248c14 -43.333 43.333 -78 88 -104s97.667 -39 159 -39c83.333 0 148.666 21.5 195.999 64.5s71 100.5 71 172.5v183h-6c-29.333 -58.667 -74.333 -105 -135 -139s-130 -51 -208 -51c-136 0 -245.167 49.5 -327.5 148.5
s-123.5 231.5 -123.5 397.5c0 169.333 41.167 304.166 123.5 404.499s193.166 150.5 332.499 150.5c77.333 0 146 -17.333 206 -52s106 -82.667 138 -144h5v184h244v-1075c0 -130 -47.833 -234.167 -143.5 -312.5s-222.5 -117.5 -380.5 -117.5z" />
    <glyph glyph-name="Gcommaaccent" unicode="&#x122;" horiz-adv-x="1473" 
d="M728 -515h-183l110 354h219zM1390 602c0 -196 -55.501 -349.333 -166.501 -460s-265.167 -166 -462.5 -166c-210.667 0 -377.167 67.167 -499.5 201.5s-183.5 317.5 -183.5 549.5c0 228.667 60.833 409.167 182.5 541.5s286.834 198.5 495.501 198.5
c164 0 303 -44.333 417 -133s182.667 -205.334 206 -350.001h-262c-24.667 82.667 -68.667 147.334 -132 194.001s-139.333 70 -228 70c-130 0 -231.667 -45.667 -305 -137s-110 -218.333 -110 -381c0 -166 37.833 -296.667 113.5 -392s178.5 -143 308.5 -143
c108.667 0 197.5 31.333 266.5 94s104.5 144.667 106.5 246l1 24h-348v197h600v-154z" />
    <glyph glyph-name="gcommaaccent" unicode="&#x123;" horiz-adv-x="1215" 
d="M648 1612h183l-110 -354h-219zM585 205c83.333 0 150 31.167 200 93.5s75 145.833 75 250.5c0 105.333 -25.167 189.833 -75.5 253.5s-116.833 95.5 -199.5 95.5c-82 0 -147.5 -31.5 -196.5 -94.5s-73.5 -147.833 -73.5 -254.5c0 -105.333 24.5 -189 73.5 -251
s114.5 -93 196.5 -93zM585 -412c-132 0 -242.831 30.668 -332.498 92.001s-141.167 140.333 -154.5 237h248c14 -43.333 43.333 -78 88 -104s97.667 -39 159 -39c83.333 0 148.666 21.5 195.999 64.5s71 100.5 71 172.5v183h-6c-29.333 -58.667 -74.333 -105 -135 -139
s-130 -51 -208 -51c-136 0 -245.167 49.5 -327.5 148.5s-123.5 231.5 -123.5 397.5c0 169.333 41.167 304.166 123.5 404.499s193.166 150.5 332.499 150.5c77.333 0 146 -17.333 206 -52s106 -82.667 138 -144h5v184h244v-1075c0 -130 -47.833 -234.167 -143.5 -312.5
s-222.5 -117.5 -380.5 -117.5z" />
    <glyph glyph-name="Hcircumflex" unicode="&#x124;" horiz-adv-x="1471" 
d="M1344 0h-257v626h-702v-626h-258v1443h258v-600h702v600h257v-1443zM638 1856h196l281 -310h-203l-174 198h-4l-174 -198h-203z" />
    <glyph glyph-name="hcircumflex" unicode="&#x125;" horiz-adv-x="1194" 
d="M114 0l0.000976562 1510h246v-607h5c65.333 135.333 180.333 203 345 203c119.333 0 213 -36.667 281 -110s102 -172.666 102 -297.999v-698h-249v648c0 78 -19.333 138.667 -58 182s-95.334 65 -170.001 65c-78 0 -139.667 -24.833 -185 -74.5s-68 -115.5 -68 -197.5
v-623h-249zM141.001 1923h196l281 -310h-203l-174 198h-4l-174 -198h-203z" />
    <glyph glyph-name="Hbar" unicode="&#x126;" horiz-adv-x="1488" 
d="M1095 843v217h-702v-217h702zM1469 1246v-186h-117v-1060h-257v626h-702v-626h-258v1060h-115v186h115v197h258v-197h702v197h257v-197h117z" />
    <glyph glyph-name="hbar" unicode="&#x127;" horiz-adv-x="1194" 
d="M360 903l5.00098 -0.000976562c65.333 135.333 180.333 203 345 203c119.333 0 213 -36.667 281 -110s102 -172.666 102 -297.999v-698h-249v648c0 78 -19.333 138.667 -58 182s-95.334 65 -170.001 65c-78 0 -139.667 -24.833 -185 -74.5s-68 -115.5 -68 -197.5v-623
h-249v1257h-93v141h93v112h246v-112h247v-141h-247v-354z" />
    <glyph glyph-name="Itilde" unicode="&#x128;" horiz-adv-x="512" 
d="M385 0h-258v1443h258v-1443zM391 1538c-24.667 0 -48 4.83203 -70 14.499s-40.833 21.5 -56.5 35.5s-30.334 28 -44.001 42s-27.667 25.833 -42 35.5s-28.5 14.5 -42.5 14.5c-21.333 0 -38 -11.167 -50 -33.5s-18.333 -53.166 -19 -92.499h-141
c0 82 18.333 146.5 55 193.5s85.334 70.5 146.001 70.5c26 0 50.333 -4.83301 73 -14.5s42 -21.5 58 -35.5s31 -28 45 -42s28 -25.833 42 -35.5s27.333 -14.5 40 -14.5c42 0 63.667 42.667 65 128h141c0 -80.667 -18.667 -145.167 -56 -193.5s-85.333 -72.5 -144 -72.5z" />
    <glyph glyph-name="itilde" unicode="&#x129;" horiz-adv-x="475" 
d="M113 0v1093h249v-1093h-249zM375 1258c-24.667 0 -48 4.83203 -70 14.499s-40.833 21.5 -56.5 35.5s-30.334 28 -44.001 42s-27.667 25.833 -42 35.5s-28.5 14.5 -42.5 14.5c-21.333 0 -38 -11.167 -50 -33.5s-18.333 -53.166 -19 -92.499h-141
c0 82 18.333 146.5 55 193.5s85.334 70.5 146.001 70.5c26 0 50.333 -4.83301 73 -14.5s42 -21.5 58 -35.5s31 -28 45 -42s28 -25.833 42 -35.5s27.333 -14.5 40 -14.5c42 0 63.667 42.667 65 128h141c0 -80.667 -18.667 -145.167 -56 -193.5s-85.333 -72.5 -144 -72.5z" />
    <glyph glyph-name="Imacron" unicode="&#x12a;" horiz-adv-x="512" 
d="M385 0h-258v1443h258v-1443zM591 1760v-129h-670v129h670z" />
    <glyph glyph-name="imacron" unicode="&#x12b;" horiz-adv-x="475" 
d="M113 0v1093h249v-1093h-249zM565 1436v-130h-656v130h656z" />
    <glyph glyph-name="Ibreve" unicode="&#x12c;" horiz-adv-x="512" 
d="M385 0h-258v1443h258v-1443zM-81 1856h155.998c0.666992 -52 18 -95.167 52 -129.5s77 -51.5 129 -51.5s95 17.167 129 51.5s51.333 77.5 52 129.5h156c-1.33301 -90.667 -32.666 -165 -93.999 -223s-142.333 -87 -243 -87s-181.667 29 -243 87
s-92.666 132.333 -93.999 223z" />
    <glyph glyph-name="ibreve" unicode="&#x12d;" horiz-adv-x="475" 
d="M113 0v1093h249v-1093h-249zM-109 1563h159c0.666992 -52.667 18.5 -96.834 53.5 -132.501s79.167 -53.5 132.5 -53.5s97.5 17.833 132.5 53.5s52.833 79.834 53.5 132.501h159c-1.33301 -93.333 -33.333 -169.666 -96 -228.999s-145.667 -89 -249 -89
s-186.333 29.667 -249 89s-94.667 135.666 -96 228.999z" />
    <glyph glyph-name="Iogonek" unicode="&#x12e;" horiz-adv-x="512" 
d="M127 -18v1461h258v-1443l-16 -5c-49.333 -24 -88.833 -51.667 -118.5 -83s-44.5 -64.333 -44.5 -99c0 -30 10.833 -54.167 32.5 -72.5s50.834 -27.5 87.501 -27.5c25.333 0 48 2.33301 68 7v-153c-36.667 -12.667 -79.667 -19 -129 -19
c-76.667 0 -139.334 20.167 -188.001 60.5s-73 92.166 -73 155.499c0 88 41 160.667 123 218z" />
    <glyph glyph-name="iogonek" unicode="&#x12f;" horiz-adv-x="475" 
d="M237 1232c-38.667 0 -71.667 13.333 -99 40s-41 59 -41 97c0 38.667 13.667 71.167 41 97.5s60.333 39.5 99 39.5c39.333 0 72.5 -13.167 99.5 -39.5s40.5 -58.833 40.5 -97.5s-13.5 -71.167 -40.5 -97.5s-60.167 -39.5 -99.5 -39.5zM113 -10v1103h249v-1093l-23 -5
c-48 -22 -85.833 -48.833 -113.5 -80.5s-41.5 -65.5 -41.5 -101.5c0 -30 10.667 -54.167 32 -72.5s50.333 -27.5 87 -27.5c26.667 0 49.334 2.33301 68.001 7v-153c-34.667 -12.667 -76 -19 -124 -19c-79.333 0 -143.5 20.333 -192.5 61s-73.5 93.334 -73.5 158.001
c0 42.667 11.667 83.667 35 123s55.666 72.666 96.999 99.999z" />
    <glyph glyph-name="Idotaccent" unicode="&#x130;" horiz-adv-x="512" 
d="M385 0h-258v1443h258v-1443zM256 1569c-38.667 0 -71.5 13.667 -98.5 41s-40.5 60 -40.5 98c0 38.667 13.5 71.5 40.5 98.5s59.833 40.5 98.5 40.5s71.5 -13.5 98.5 -40.5s40.5 -59.833 40.5 -98.5c0 -38 -13.5 -70.667 -40.5 -98s-59.833 -41 -98.5 -41z" />
    <glyph glyph-name="dotlessi" unicode="&#x131;" horiz-adv-x="475" 
d="M113 0v1093h249v-1093h-249z" />
    <glyph glyph-name="IJ" unicode="&#x132;" horiz-adv-x="1608" 
d="M385 0h-258v1443h258v-1443zM547 394h251.001c1.33301 -59.333 20.833 -107.333 58.5 -144s86.5 -55 146.5 -55c69.333 0 122.166 20.5 158.499 61.5s54.5 100.5 54.5 178.5v1008h257v-1010c0 -146.667 -41.167 -260.667 -123.5 -342s-196.833 -122 -343.5 -122
c-138 0 -249 38.833 -333 116.5s-126 180.5 -126 308.5z" />
    <glyph glyph-name="ij" unicode="&#x133;" horiz-adv-x="949" 
d="M113 0v1093h249v-1093h-249zM237 1232c-38.667 0 -71.667 13.333 -99 40s-41 59 -41 97c0 38.667 13.667 71.167 41 97.5s60.333 39.5 99 39.5c39.333 0 72.5 -13.167 99.5 -39.5s40.5 -58.833 40.5 -97.5s-13.5 -71.167 -40.5 -97.5s-60.167 -39.5 -99.5 -39.5z
M837 1093l0.000976562 -1145c0 -220.667 -123 -331 -369 -331c-30 0 -50.333 0.666992 -61 2v191c1.33301 0 6.66602 -0.166992 15.999 -0.5s15 -0.5 17 -0.5c53.333 0 91.333 11 114 33s34 58.667 34 110v1141h249zM712.001 1232c-38.667 0 -71.667 13.333 -99 40
s-41 59 -41 97c0 38.667 13.667 71.167 41 97.5s60.333 39.5 99 39.5c39.333 0 72.5 -13.167 99.5 -39.5s40.5 -58.833 40.5 -97.5s-13.5 -71.167 -40.5 -97.5s-60.167 -39.5 -99.5 -39.5z" />
    <glyph glyph-name="Jcircumflex" unicode="&#x134;" horiz-adv-x="1096" 
d="M35 394h251.001c1.33301 -59.333 20.833 -107.333 58.5 -144s86.5 -55 146.5 -55c69.333 0 122.166 20.5 158.499 61.5s54.5 100.5 54.5 178.5v1008h257v-1010c0 -146.667 -41.167 -260.667 -123.5 -342s-196.833 -122 -343.5 -122c-138 0 -249 38.833 -333 116.5
s-126 180.5 -126 308.5zM738.001 1856h196l281 -310h-203l-174 198h-4l-174 -198h-203z" />
    <glyph glyph-name="jcircumflex" unicode="&#x135;" horiz-adv-x="473" 
d="M362 1093l0.000976562 -1145c0 -220.667 -123 -331 -369 -331c-30 0 -50.333 0.666992 -61 2v191c1.33301 0 6.66602 -0.166992 15.999 -0.5s15 -0.5 17 -0.5c53.333 0 91.333 11 114 33s34 58.667 34 110v1141h249zM329.001 1563l270 -311h-202l-157 192h-7l-157 -192
h-202l270 311h185z" />
    <glyph glyph-name="Kcommaaccent" unicode="&#x136;" horiz-adv-x="1319" 
d="M385 0h-258v1443h258v-675h9l576 675h297l-556 -640l599 -803h-314l-469 630l-142 -166v-464zM625 -515h-183l110 354h219z" />
    <glyph glyph-name="kcommaaccent" unicode="&#x137;" horiz-adv-x="1090" 
d="M366 634l418 459h289l-442 -471l460 -622h-288l-352 471l-88 -89v-382h-249v1510h249v-876h3zM554 -515h-183l110 354h219z" />
    <glyph glyph-name="Lacute" unicode="&#x139;" horiz-adv-x="1098" 
d="M353 1552h-198l231 306h246zM1040 218v-218h-913v1443h258v-1225h655z" />
    <glyph glyph-name="lacute" unicode="&#x13a;" horiz-adv-x="478" 
d="M336 1619h-198l231 306h246zM114 0v1510h249v-1510h-249z" />
    <glyph glyph-name="Lcommaaccent" unicode="&#x13b;" horiz-adv-x="1098" 
d="M557 -515h-183l110 354h219zM1040 218v-218h-913v1443h258v-1225h655z" />
    <glyph glyph-name="lcommaaccent" unicode="&#x13c;" horiz-adv-x="478" 
d="M219 -515h-183l110 354h219zM114 0v1510h249v-1510h-249z" />
    <glyph glyph-name="Lcaron" unicode="&#x13d;" horiz-adv-x="1098" 
d="M643 1443h219l-50 -498h-169v498zM1040 218v-218h-913v1443h258v-1225h655z" />
    <glyph glyph-name="lcaron" unicode="&#x13e;" horiz-adv-x="660" 
d="M516 1507h188l-36 -498h-152v498zM114 0v1510h249v-1510h-249z" />
    <glyph glyph-name="Lslash" unicode="&#x141;" horiz-adv-x="1106" 
d="M393 218h655v-218h-913v660l-106 -52v179l106 52v604h258v-479l309 151v-179l-309 -151v-567z" />
    <glyph glyph-name="lslash" unicode="&#x142;" horiz-adv-x="511" 
d="M495 1049v-179l-115 -60v-810h-249v681l-115 -60v178l115 60v651h249v-521z" />
    <glyph glyph-name="Nacute" unicode="&#x143;" horiz-adv-x="1452" 
d="M823 1552h-198l231 306h246zM376 0h-249v1443h224l716 -1011h9v1011h248v-1443h-222l-717 1012h-9v-1012z" />
    <glyph glyph-name="nacute" unicode="&#x144;" horiz-adv-x="1174" 
d="M687 1258h-201l218 307h245zM106 0v1093h239v-190h5c66 135.333 180.333 203 343 203c120.667 0 214.167 -35.833 280.5 -107.5s99.5 -171.167 99.5 -298.5v-700h-249v651c0 78.667 -18.833 139 -56.5 181s-93.5 63 -167.5 63c-76 0 -135.833 -24.5 -179.5 -73.5
s-65.5 -113.833 -65.5 -194.5v-627h-249z" />
    <glyph glyph-name="Ncommaaccent" unicode="&#x145;" horiz-adv-x="1452" 
d="M706 -515h-183l110 354h219zM376 0h-249v1443h224l716 -1011h9v1011h248v-1443h-222l-717 1012h-9v-1012z" />
    <glyph glyph-name="ncommaaccent" unicode="&#x146;" horiz-adv-x="1174" 
d="M576 -515h-183l110 354h219zM106 0v1093h239v-190h5c66 135.333 180.333 203 343 203c120.667 0 214.167 -35.833 280.5 -107.5s99.5 -171.167 99.5 -298.5v-700h-249v651c0 78.667 -18.833 139 -56.5 181s-93.5 63 -167.5 63c-76 0 -135.833 -24.5 -179.5 -73.5
s-65.5 -113.833 -65.5 -194.5v-627h-249z" />
    <glyph glyph-name="Ncaron" unicode="&#x147;" horiz-adv-x="1452" 
d="M628 1546l-281 310h203l174 -198h4l174 198h203l-281 -310h-196zM376 0h-249v1443h224l716 -1011h9v1011h248v-1443h-222l-717 1012h-9v-1012z" />
    <glyph glyph-name="ncaron" unicode="&#x148;" horiz-adv-x="1174" 
d="M681 1252h-185l-270 311h202l157 -191h7l157 191h202zM106 0v1093h239v-190h5c66 135.333 180.333 203 343 203c120.667 0 214.167 -35.833 280.5 -107.5s99.5 -171.167 99.5 -298.5v-700h-249v651c0 78.667 -18.833 139 -56.5 181s-93.5 63 -167.5 63
c-76 0 -135.833 -24.5 -179.5 -73.5s-65.5 -113.833 -65.5 -194.5v-627h-249z" />
    <glyph glyph-name="Omacron" unicode="&#x14c;" horiz-adv-x="1525" 
d="M763 1467c210 0 376.5 -67 499.5 -201s184.5 -315.667 184.5 -545s-61.5 -410.833 -184.5 -544.5s-289.5 -200.5 -499.5 -200.5c-210.667 0 -377.5 66.833 -500.5 200.5s-184.5 315.167 -184.5 544.5s61.5 411 184.5 545s289.833 201 500.5 201zM763 1247
c-128.667 0 -231 -47.333 -307 -142s-114 -222.667 -114 -384c0 -160.667 38 -288.334 114 -383.001s178.333 -142 307 -142s231 47.333 307 142s114 222.334 114 383.001s-38 288.5 -114 383.5s-178.333 142.5 -307 142.5zM1098 1760v-129h-670v129h670z" />
    <glyph glyph-name="omacron" unicode="&#x14d;" horiz-adv-x="1173" 
d="M914 1436v-130h-656v130h656zM586 -16c-161.333 0 -289.333 50.334 -384 151.001s-142 238 -142 412c0 172 47.5 308.5 142.5 409.5s222.833 151.5 383.5 151.5c161.333 0 289.5 -50.333 384.5 -151s142.5 -237.334 142.5 -410.001c0 -174 -47.333 -311.333 -142 -412
s-223 -151 -385 -151zM586 183.001c86 0 153.167 31.832 201.5 95.499s72.5 152.834 72.5 267.501c0 114 -24.167 203 -72.5 267s-115.5 96 -201.5 96c-85.333 0 -152.166 -32 -200.499 -96s-72.5 -153 -72.5 -267s24.167 -203 72.5 -267s115.166 -96 200.499 -96z" />
    <glyph glyph-name="Obreve" unicode="&#x14e;" horiz-adv-x="1525" 
d="M763 1467c210 0 376.5 -67 499.5 -201s184.5 -315.667 184.5 -545s-61.5 -410.833 -184.5 -544.5s-289.5 -200.5 -499.5 -200.5c-210.667 0 -377.5 66.833 -500.5 200.5s-184.5 315.167 -184.5 544.5s61.5 411 184.5 545s289.833 201 500.5 201zM763 1247
c-128.667 0 -231 -47.333 -307 -142s-114 -222.667 -114 -384c0 -160.667 38 -288.334 114 -383.001s178.333 -142 307 -142s231 47.333 307 142s114 222.334 114 383.001s-38 288.5 -114 383.5s-178.333 142.5 -307 142.5zM426 1856h155.998
c0.666992 -52 18 -95.167 52 -129.5s77 -51.5 129 -51.5s95 17.167 129 51.5s51.333 77.5 52 129.5h156c-1.33301 -90.667 -32.666 -165 -93.999 -223s-142.333 -87 -243 -87s-181.667 29 -243 87s-92.666 132.333 -93.999 223z" />
    <glyph glyph-name="obreve" unicode="&#x14f;" horiz-adv-x="1173" 
d="M240 1563h159c0.666992 -52.667 18.5 -96.834 53.5 -132.501s79.167 -53.5 132.5 -53.5s97.5 17.833 132.5 53.5s52.833 79.834 53.5 132.501h159c-1.33301 -93.333 -33.333 -169.666 -96 -228.999s-145.667 -89 -249 -89s-186.333 29.667 -249 89
s-94.667 135.666 -96 228.999zM586 -16c-161.333 0 -289.333 50.334 -384 151.001s-142 238 -142 412c0 172 47.5 308.5 142.5 409.5s222.833 151.5 383.5 151.5c161.333 0 289.5 -50.333 384.5 -151s142.5 -237.334 142.5 -410.001c0 -174 -47.333 -311.333 -142 -412
s-223 -151 -385 -151zM586 183.001c86 0 153.167 31.832 201.5 95.499s72.5 152.834 72.5 267.501c0 114 -24.167 203 -72.5 267s-115.5 96 -201.5 96c-85.333 0 -152.166 -32 -200.499 -96s-72.5 -153 -72.5 -267s24.167 -203 72.5 -267s115.166 -96 200.499 -96z" />
    <glyph glyph-name="Ohungarumlaut" unicode="&#x150;" horiz-adv-x="1525" 
d="M1039 1552h-192l231 306h239zM674 1552h-191l231 306h239zM763 1467c210 0 376.5 -67 499.5 -201s184.5 -315.667 184.5 -545s-61.5 -410.833 -184.5 -544.5s-289.5 -200.5 -499.5 -200.5c-210.667 0 -377.5 66.833 -500.5 200.5s-184.5 315.167 -184.5 544.5
s61.5 411 184.5 545s289.833 201 500.5 201zM763 1247c-128.667 0 -231 -47.333 -307 -142s-114 -222.667 -114 -384c0 -160.667 38 -288.334 114 -383.001s178.333 -142 307 -142s231 47.333 307 142s114 222.334 114 383.001s-38 288.5 -114 383.5
s-178.333 142.5 -307 142.5z" />
    <glyph glyph-name="ohungarumlaut" unicode="&#x151;" horiz-adv-x="1173" 
d="M666 1258l192 307h231l-241 -307h-182zM315 1258l192 307h231l-241 -307h-182zM586 -16c-161.333 0 -289.333 50.334 -384 151.001s-142 238 -142 412c0 172 47.5 308.5 142.5 409.5s222.833 151.5 383.5 151.5c161.333 0 289.5 -50.333 384.5 -151
s142.5 -237.334 142.5 -410.001c0 -174 -47.333 -311.333 -142 -412s-223 -151 -385 -151zM586 183.001c86 0 153.167 31.832 201.5 95.499s72.5 152.834 72.5 267.501c0 114 -24.167 203 -72.5 267s-115.5 96 -201.5 96c-85.333 0 -152.166 -32 -200.499 -96
s-72.5 -153 -72.5 -267s24.167 -203 72.5 -267s115.166 -96 200.499 -96z" />
    <glyph glyph-name="OE" unicode="&#x152;" horiz-adv-x="2216" 
d="M771 1249c-130.667 0 -234.334 -47.6689 -311.001 -143.002s-115 -223.666 -115 -384.999s38.333 -289.5 115 -384.5s180.334 -142.5 311.001 -142.5c129.333 0 232.5 47.667 309.5 143s115.5 223.333 115.5 384s-38.5 288.834 -115.5 384.501
s-180.167 143.5 -309.5 143.5zM1218 -0.00195312l-0.000976562 232.999c-40.667 -80.667 -104.167 -144.5 -190.5 -191.5s-182.166 -70.5 -287.499 -70.5c-198 0 -357.333 68.333 -478 205s-181 318.334 -181 545.001c0 227.333 60.5 409.333 181.5 546
s280.833 205 479.5 205c106.667 0 201.5 -22.833 284.5 -68.5s146.833 -110.5 191.5 -194.5v234h901v-218h-663v-390h625v-205h-625v-412h663v-218h-901z" />
    <glyph glyph-name="oe" unicode="&#x153;" horiz-adv-x="1928" 
d="M1392 -16c-88 0 -167.502 17.8311 -238.502 53.498s-125.5 85.167 -163.5 148.5h-12c-89.333 -134.667 -222 -202 -398 -202c-158.667 0 -285 50.833 -379 152.5s-141 237.834 -141 408.501s47.167 307.167 141.5 409.5s220.166 153.5 377.499 153.5
c176.667 0 309.667 -68 399 -204h11c38 64 91.833 114 161.5 150s146.5 54 230.5 54c148 0 266.167 -49 354.5 -147s132.5 -229 132.5 -393v-82h-758v-21c0 -86.667 25.5 -156.167 76.5 -208.5s118.5 -78.5 202.5 -78.5c58.667 0 109.334 12.833 152.001 38.5
s70.334 59.834 83.001 102.501h234c-15.333 -97.333 -66.666 -177.5 -153.999 -240.5s-191.333 -94.5 -312 -94.5zM1621 651.998c-2.66699 79.333 -26.832 142.833 -72.499 190.5s-104.834 71.5 -177.501 71.5c-73.333 0 -134 -24.167 -182 -72.5s-74.333 -111.5 -79 -189.5
h511zM308 544.998c0 -112 24 -199.666 72 -262.999s114.667 -95 200 -95c86 0 152.833 31.667 200.5 95s71.5 151.333 71.5 264s-24 200.667 -72 264s-114.667 95 -200 95s-152 -31.833 -200 -95.5s-72 -151.834 -72 -264.501z" />
    <glyph glyph-name="Racute" unicode="&#x154;" horiz-adv-x="1287" 
d="M684 1552h-198l231 306h246zM385 1234v-493h298c82 0 145.5 21.667 190.5 65s67.5 104 67.5 182c0 76 -23.5 136 -70.5 180s-111.5 66 -193.5 66h-292zM385 543v-542.998h-258v1443h580c155.333 0 277.333 -40.167 366 -120.5s133 -189.833 133 -328.5
c0 -96.667 -24 -181.834 -72 -255.501s-114.667 -125.834 -200 -156.501l315 -582h-295l-283 543h-286z" />
    <glyph glyph-name="racute" unicode="&#x155;" horiz-adv-x="719" 
d="M488 1258h-201l218 307h245zM106 0l0.00195312 1093h239v-190h5c17.333 64 49.166 113.667 95.499 149s101.833 53 166.5 53c32 0 58.667 -3.33301 80 -10v-226c-24.667 9.33301 -59 14 -103 14c-72.667 0 -129.834 -22.167 -171.501 -66.5
s-62.5 -105.166 -62.5 -182.499v-634h-249z" />
    <glyph glyph-name="Rcommaaccent" unicode="&#x156;" horiz-adv-x="1287" 
d="M385 1234v-493h298c82 0 145.5 21.667 190.5 65s67.5 104 67.5 182c0 76 -23.5 136 -70.5 180s-111.5 66 -193.5 66h-292zM385 543v-542.998h-258v1443h580c155.333 0 277.333 -40.167 366 -120.5s133 -189.833 133 -328.5c0 -96.667 -24 -181.834 -72 -255.501
s-114.667 -125.834 -200 -156.501l315 -582h-295l-283 543h-286zM567 -514.998h-183l110 354h219z" />
    <glyph glyph-name="rcommaaccent" unicode="&#x157;" horiz-adv-x="719" 
d="M106 0l0.00195312 1093h239v-190h5c17.333 64 49.166 113.667 95.499 149s101.833 53 166.5 53c32 0 58.667 -3.33301 80 -10v-226c-24.667 9.33301 -59 14 -103 14c-72.667 0 -129.834 -22.167 -171.501 -66.5s-62.5 -105.166 -62.5 -182.499v-634h-249z
M212.002 -515.001h-183l110 354h219z" />
    <glyph glyph-name="Rcaron" unicode="&#x158;" horiz-adv-x="1287" 
d="M385 1234v-493h298c82 0 145.5 21.667 190.5 65s67.5 104 67.5 182c0 76 -23.5 136 -70.5 180s-111.5 66 -193.5 66h-292zM385 543v-542.998h-258v1443h580c155.333 0 277.333 -40.167 366 -120.5s133 -189.833 133 -328.5c0 -96.667 -24 -181.834 -72 -255.501
s-114.667 -125.834 -200 -156.501l315 -582h-295l-283 543h-286zM489 1546l-281 310h203l174 -198h4l174 198h203l-281 -310h-196z" />
    <glyph glyph-name="rcaron" unicode="&#x159;" horiz-adv-x="719" 
d="M482 1252h-185l-270 311h202l157 -191h7l157 191h202zM106 0l0.00195312 1093h239v-190h5c17.333 64 49.166 113.667 95.499 149s101.833 53 166.5 53c32 0 58.667 -3.33301 80 -10v-226c-24.667 9.33301 -59 14 -103 14c-72.667 0 -129.834 -22.167 -171.501 -66.5
s-62.5 -105.166 -62.5 -182.499v-634h-249z" />
    <glyph glyph-name="Sacute" unicode="&#x15a;" horiz-adv-x="1265" 
d="M739 1552h-198l231 306h246zM68 406l249.999 0.000976562c8 -66 42 -119.167 102 -159.5s134.333 -60.5 223 -60.5c86.667 0 157.5 19.333 212.5 58s82.5 88 82.5 148c0 52 -20 94.167 -60 126.5s-105.333 59.166 -196 80.499l-187 44
c-132.667 30.667 -231.167 78.334 -295.5 143.001s-96.5 148.667 -96.5 252c0 127.333 50 230.666 150 309.999s229 119 387 119c158.667 0 286.5 -39.167 383.5 -117.5s147.167 -181.166 150.5 -308.499h-246c-6 67.333 -35 120.166 -87 158.499s-119.667 57.5 -203 57.5
c-81.333 0 -147.166 -18.333 -197.499 -55s-75.5 -85 -75.5 -145c0 -48 19.5 -87 58.5 -117s102.833 -55.667 191.5 -77l166 -38c146 -33.333 252 -82 318 -146s99 -149.667 99 -257c0 -136.667 -51.167 -245.167 -153.5 -325.5s-240.833 -120.5 -415.5 -120.5
c-166.667 0 -300.5 38.5 -401.5 115.5s-154.167 181.833 -159.5 314.5z" />
    <glyph glyph-name="sacute" unicode="&#x15b;" horiz-adv-x="1044" 
d="M87 777c0 99.333 40.333 179.332 121 239.999s186.667 91 318 91c126 0 229 -30.833 309 -92.5s121.333 -142.167 124 -241.5h-232c-4 46 -24.5 82.5 -61.5 109.5s-85.167 40.5 -144.5 40.5c-58 0 -104.5 -12.167 -139.5 -36.5s-52.5 -56.5 -52.5 -96.5
c0 -60.667 53 -103.334 159 -128.001l192 -44c110 -25.333 188.167 -60.666 234.5 -105.999s69.5 -108.333 69.5 -189c0 -101.333 -43 -183.333 -129 -246s-197.667 -94 -335 -94c-133.333 0 -241.5 30.833 -324.5 92.5s-128.5 143.5 -136.5 245.5h245
c7.33301 -49.333 30.5 -87.333 69.5 -114s91.167 -40 156.5 -40c63.333 0 113.5 11.833 150.5 35.5s55.5 55.834 55.5 96.501c0 32 -11.167 57.5 -33.5 76.5s-60.833 34.833 -115.5 47.5l-198 48c-201.333 47.333 -302 149 -302 305zM625 1258h-201l218 307h245z" />
    <glyph glyph-name="Scircumflex" unicode="&#x15c;" horiz-adv-x="1265" 
d="M68 406l249.999 0.000976562c8 -66 42 -119.167 102 -159.5s134.333 -60.5 223 -60.5c86.667 0 157.5 19.333 212.5 58s82.5 88 82.5 148c0 52 -20 94.167 -60 126.5s-105.333 59.166 -196 80.499l-187 44c-132.667 30.667 -231.167 78.334 -295.5 143.001
s-96.5 148.667 -96.5 252c0 127.333 50 230.666 150 309.999s229 119 387 119c158.667 0 286.5 -39.167 383.5 -117.5s147.167 -181.166 150.5 -308.499h-246c-6 67.333 -35 120.166 -87 158.499s-119.667 57.5 -203 57.5c-81.333 0 -147.166 -18.333 -197.499 -55
s-75.5 -85 -75.5 -145c0 -48 19.5 -87 58.5 -117s102.833 -55.667 191.5 -77l166 -38c146 -33.333 252 -82 318 -146s99 -149.667 99 -257c0 -136.667 -51.167 -245.167 -153.5 -325.5s-240.833 -120.5 -415.5 -120.5c-166.667 0 -300.5 38.5 -401.5 115.5
s-154.167 181.833 -159.5 314.5zM543.999 1856h196l281 -310h-203l-174 198h-4l-174 -198h-203z" />
    <glyph glyph-name="scircumflex" unicode="&#x15d;" horiz-adv-x="1044" 
d="M619 1563l270 -311h-202l-157 192h-7l-157 -192h-202l270 311h185zM87 777c0 99.333 40.333 179.332 121 239.999s186.667 91 318 91c126 0 229 -30.833 309 -92.5s121.333 -142.167 124 -241.5h-232c-4 46 -24.5 82.5 -61.5 109.5s-85.167 40.5 -144.5 40.5
c-58 0 -104.5 -12.167 -139.5 -36.5s-52.5 -56.5 -52.5 -96.5c0 -60.667 53 -103.334 159 -128.001l192 -44c110 -25.333 188.167 -60.666 234.5 -105.999s69.5 -108.333 69.5 -189c0 -101.333 -43 -183.333 -129 -246s-197.667 -94 -335 -94
c-133.333 0 -241.5 30.833 -324.5 92.5s-128.5 143.5 -136.5 245.5h245c7.33301 -49.333 30.5 -87.333 69.5 -114s91.167 -40 156.5 -40c63.333 0 113.5 11.833 150.5 35.5s55.5 55.834 55.5 96.501c0 32 -11.167 57.5 -33.5 76.5s-60.833 34.833 -115.5 47.5l-198 48
c-201.333 47.333 -302 149 -302 305z" />
    <glyph glyph-name="Scedilla" unicode="&#x15e;" horiz-adv-x="1265" 
d="M615 863l166.001 -37.998c146 -33.333 252 -82 318 -146s99 -149.667 99 -257c0 -126 -43.833 -228.5 -131.5 -307.5s-207.834 -124.167 -360.501 -135.5l-42 -104c62.667 0 110.667 -13.5 144 -40.5s50 -65.5 50 -115.5c0 -55.333 -21 -99.5 -63 -132.5
s-98.667 -49.833 -170 -50.5c-58 0 -105.333 5.66699 -142 17v111c24.667 -9.33301 63 -14 115 -14c74 0 111 20.667 111 62c0 21.333 -10.333 36.666 -31 45.999s-55 14 -103 14h-55v90l49 116c-150 9.33301 -269.833 52 -359.5 128s-136.834 176 -141.501 300h250
c8 -66 42 -119.167 102 -159.5s134.333 -60.5 223 -60.5c86.667 0 157.5 19.333 212.5 58s82.5 88 82.5 148c0 52 -20 94.167 -60 126.5s-105.333 59.166 -196 80.499l-187 44c-132.667 30.667 -231.167 78.334 -295.5 143.001s-96.5 148.667 -96.5 252
c0 127.333 50 230.666 150 309.999s229 119 387 119c158.667 0 286.5 -39.167 383.5 -117.5s147.167 -181.166 150.5 -308.499h-246c-6 67.333 -35 120.166 -87 158.499s-119.667 57.5 -203 57.5c-81.333 0 -147.166 -18.333 -197.499 -55s-75.5 -85 -75.5 -145
c0 -48 19.5 -87 58.5 -117s102.833 -55.667 191.5 -77z" />
    <glyph glyph-name="scedilla" unicode="&#x15f;" horiz-adv-x="1044" 
d="M488 663l192.001 -43.999c110 -25.333 188.167 -60.666 234.5 -105.999s69.5 -108.333 69.5 -189c0 -91.333 -35.333 -167.333 -106 -228s-164.667 -96.667 -282 -108l-45 -113c62.667 0 110.667 -13.5 144 -40.5s50 -65.5 50 -115.5c0 -55.333 -21 -99.5 -63 -132.5
s-98.667 -49.833 -170 -50.5c-58 0 -105.333 5.66699 -142 17v111c24.667 -9.33301 63 -14 115 -14c74 0 111 20.667 111 62c0 21.333 -10.333 36.666 -31 45.999s-55 14 -103 14h-55v90l53 124c-116.667 9.33301 -210.834 44.166 -282.501 104.499
s-111.167 137.5 -118.5 231.5h245c7.33301 -49.333 30.5 -87.333 69.5 -114s91.167 -40 156.5 -40c63.333 0 113.5 11.833 150.5 35.5s55.5 55.834 55.5 96.501c0 32 -11.167 57.5 -33.5 76.5s-60.833 34.833 -115.5 47.5l-198 48c-201.333 47.333 -302 149 -302 305
c0 99.333 40.333 179.333 121 240s186.667 91 318 91c126 0 229 -30.833 309 -92.5s121.333 -142.167 124 -241.5h-232c-4 46 -24.5 82.5 -61.5 109.5s-85.167 40.5 -144.5 40.5c-58 0 -104.5 -12.167 -139.5 -36.5s-52.5 -56.5 -52.5 -96.5
c0 -60.667 53 -103.334 159 -128.001z" />
    <glyph glyph-name="Scaron" unicode="&#x160;" horiz-adv-x="1265" 
d="M68 406l249.999 0.000976562c8 -66 42 -119.167 102 -159.5s134.333 -60.5 223 -60.5c86.667 0 157.5 19.333 212.5 58s82.5 88 82.5 148c0 52 -20 94.167 -60 126.5s-105.333 59.166 -196 80.499l-187 44c-132.667 30.667 -231.167 78.334 -295.5 143.001
s-96.5 148.667 -96.5 252c0 127.333 50 230.666 150 309.999s229 119 387 119c158.667 0 286.5 -39.167 383.5 -117.5s147.167 -181.166 150.5 -308.499h-246c-6 67.333 -35 120.166 -87 158.499s-119.667 57.5 -203 57.5c-81.333 0 -147.166 -18.333 -197.499 -55
s-75.5 -85 -75.5 -145c0 -48 19.5 -87 58.5 -117s102.833 -55.667 191.5 -77l166 -38c146 -33.333 252 -82 318 -146s99 -149.667 99 -257c0 -136.667 -51.167 -245.167 -153.5 -325.5s-240.833 -120.5 -415.5 -120.5c-166.667 0 -300.5 38.5 -401.5 115.5
s-154.167 181.833 -159.5 314.5zM543.999 1546l-281 310h203l174 -198h4l174 198h203l-281 -310h-196z" />
    <glyph glyph-name="scaron" unicode="&#x161;" horiz-adv-x="1044" 
d="M619 1252h-185l-270 311h202l157 -191h7l157 191h202zM87 777c0 99.333 40.333 179.332 121 239.999s186.667 91 318 91c126 0 229 -30.833 309 -92.5s121.333 -142.167 124 -241.5h-232c-4 46 -24.5 82.5 -61.5 109.5s-85.167 40.5 -144.5 40.5
c-58 0 -104.5 -12.167 -139.5 -36.5s-52.5 -56.5 -52.5 -96.5c0 -60.667 53 -103.334 159 -128.001l192 -44c110 -25.333 188.167 -60.666 234.5 -105.999s69.5 -108.333 69.5 -189c0 -101.333 -43 -183.333 -129 -246s-197.667 -94 -335 -94
c-133.333 0 -241.5 30.833 -324.5 92.5s-128.5 143.5 -136.5 245.5h245c7.33301 -49.333 30.5 -87.333 69.5 -114s91.167 -40 156.5 -40c63.333 0 113.5 11.833 150.5 35.5s55.5 55.834 55.5 96.501c0 32 -11.167 57.5 -33.5 76.5s-60.833 34.833 -115.5 47.5l-198 48
c-201.333 47.333 -302 149 -302 305z" />
    <glyph glyph-name="Tcedilla" unicode="&#x162;" horiz-adv-x="1230" 
d="M744 11v-10.999l-50 -125c62.667 0 110.667 -13.5 144 -40.5s50 -65.5 50 -115.5c0 -55.333 -21 -99.5 -63 -132.5s-98.667 -49.833 -170 -50.5c-58 0 -105.333 5.66699 -142 17v111c24.667 -9.33301 63 -14 115 -14c74 0 111 20.667 111 62
c0 21.333 -10.333 36.666 -31 45.999s-55 14 -103 14h-55v90l58 138h-122v1225h-438v218h1134v-218h-438v-1214z" />
    <glyph glyph-name="tcedilla" unicode="&#x163;" horiz-adv-x="702" 
d="M491 -5l-48.001 -119.999c62.667 0 110.667 -13.5 144 -40.5s50 -65.5 50 -115.5c0 -55.333 -21 -99.5 -63 -132.5s-98.667 -49.833 -170 -50.5c-58 0 -105.333 5.66699 -142 17v111c24.667 -9.33301 63 -14 115 -14c74 0 111 20.667 111 62
c0 21.333 -10.333 36.666 -31 45.999s-55 14 -103 14h-55v90l62 147c-65.333 16 -112.5 46.5 -141.5 91.5s-43.5 108.167 -43.5 189.5v610h-149v193h149v244h249v-244h207v-193h-207v-576c0 -88.667 44 -133 132 -133c22.667 0 47.334 1.66699 74.001 5v-191
c-30 -6.66699 -73.667 -10 -131 -10h-9z" />
    <glyph glyph-name="Tcaron" unicode="&#x164;" horiz-adv-x="1230" 
d="M517 1546l-281 310h203l174 -198h4l174 198h203l-281 -310h-196zM744 0h-258v1225h-438v218h1134v-218h-438v-1225z" />
    <glyph glyph-name="tcaron" unicode="&#x165;" horiz-adv-x="820" 
d="M575 1735h189l-37 -497h-152v497zM176 1337h248.999v-244h207v-193h-207v-576c0 -88.667 44 -133 132 -133c22.667 0 47.334 1.66699 74.001 5v-191c-30 -6.66699 -73.667 -10 -131 -10c-116 0 -199 22.833 -249 68.5s-75 121.167 -75 226.5v610h-149v193h149v244z" />
    <glyph glyph-name="Tbar" unicode="&#x166;" horiz-adv-x="1280" 
d="M1188 1225h-438v-428h310v-186h-310v-611h-258v611h-272v186h272v428h-438v218h1134v-218z" />
    <glyph glyph-name="tbar" unicode="&#x167;" horiz-adv-x="735" 
d="M650 493h-225.001v-169c0 -88.667 44 -133 132 -133c22.667 0 47.334 1.66699 74.001 5v-191c-30 -6.66699 -73.667 -10 -131 -10c-116 0 -199 22.833 -249 68.5s-75 121.167 -75 226.5v203h-143v155h143v252h-149v193h149v244h249v-244h207v-193h-207v-252h225v-155z
" />
    <glyph glyph-name="Utilde" unicode="&#x168;" horiz-adv-x="1441" 
d="M385 1443l0.000976562 -911c0 -100 29.5 -180.167 88.5 -240.5s141.167 -90.5 246.5 -90.5s187.666 30.167 246.999 90.5s89 140.5 89 240.5v911h257v-934c0 -159.333 -53.5 -288 -160.5 -386s-251.167 -147 -432.5 -147c-180.667 0 -324.667 49 -432 147
s-161 226.667 -161 386v934h258zM855.001 1538c-24.667 0 -48 4.83203 -70 14.499s-40.833 21.5 -56.5 35.5s-30.334 28 -44.001 42s-27.667 25.833 -42 35.5s-28.5 14.5 -42.5 14.5c-21.333 0 -38 -11.167 -50 -33.5s-18.333 -53.166 -19 -92.499h-141
c0 82 18.333 146.5 55 193.5s85.334 70.5 146.001 70.5c26 0 50.333 -4.83301 73 -14.5s42 -21.5 58 -35.5s31 -28 45 -42s28 -25.833 42 -35.5s27.333 -14.5 40 -14.5c42 0 63.667 42.667 65 128h141c0 -80.667 -18.667 -145.167 -56 -193.5s-85.333 -72.5 -144 -72.5z" />
    <glyph glyph-name="utilde" unicode="&#x169;" horiz-adv-x="1174" 
d="M1068 1093l-0.000976562 -1093h-239v191h-6c-61.333 -136.667 -173 -205 -335 -205c-119.333 0 -213.666 36.167 -282.999 108.5s-104 171.5 -104 297.5v701h249v-651c0 -80 19 -140.833 57 -182.5s93.667 -62.5 167 -62.5c75.333 0 135 24.5 179 73.5
s66 114.167 66 195.5v627h249zM722.999 1258c-24.667 0 -48 4.83203 -70 14.499s-40.833 21.5 -56.5 35.5s-30.334 28 -44.001 42s-27.667 25.833 -42 35.5s-28.5 14.5 -42.5 14.5c-21.333 0 -38 -11.167 -50 -33.5s-18.333 -53.166 -19 -92.499h-141
c0 82 18.333 146.5 55 193.5s85.334 70.5 146.001 70.5c26 0 50.333 -4.83301 73 -14.5s42 -21.5 58 -35.5s31 -28 45 -42s28 -25.833 42 -35.5s27.333 -14.5 40 -14.5c42 0 63.667 42.667 65 128h141c0 -80.667 -18.667 -145.167 -56 -193.5s-85.333 -72.5 -144 -72.5z" />
    <glyph glyph-name="Umacron" unicode="&#x16a;" horiz-adv-x="1441" 
d="M385 1443l0.000976562 -911c0 -100 29.5 -180.167 88.5 -240.5s141.167 -90.5 246.5 -90.5s187.666 30.167 246.999 90.5s89 140.5 89 240.5v911h257v-934c0 -159.333 -53.5 -288 -160.5 -386s-251.167 -147 -432.5 -147c-180.667 0 -324.667 49 -432 147
s-161 226.667 -161 386v934h258zM1055 1760v-129h-670v129h670z" />
    <glyph glyph-name="umacron" unicode="&#x16b;" horiz-adv-x="1174" 
d="M1068 1093l-0.000976562 -1093h-239v191h-6c-61.333 -136.667 -173 -205 -335 -205c-119.333 0 -213.666 36.167 -282.999 108.5s-104 171.5 -104 297.5v701h249v-651c0 -80 19 -140.833 57 -182.5s93.667 -62.5 167 -62.5c75.333 0 135 24.5 179 73.5
s66 114.167 66 195.5v627h249zM912.999 1436v-130h-656v130h656z" />
    <glyph glyph-name="Ubreve" unicode="&#x16c;" horiz-adv-x="1441" 
d="M385 1443l0.000976562 -911c0 -100 29.5 -180.167 88.5 -240.5s141.167 -90.5 246.5 -90.5s187.666 30.167 246.999 90.5s89 140.5 89 240.5v911h257v-934c0 -159.333 -53.5 -288 -160.5 -386s-251.167 -147 -432.5 -147c-180.667 0 -324.667 49 -432 147
s-161 226.667 -161 386v934h258zM383.001 1856h155.998c0.666992 -52 18 -95.167 52 -129.5s77 -51.5 129 -51.5s95 17.167 129 51.5s51.333 77.5 52 129.5h156c-1.33301 -90.667 -32.666 -165 -93.999 -223s-142.333 -87 -243 -87s-181.667 29 -243 87
s-92.666 132.333 -93.999 223z" />
    <glyph glyph-name="ubreve" unicode="&#x16d;" horiz-adv-x="1174" 
d="M1068 1093l-0.000976562 -1093h-239v191h-6c-61.333 -136.667 -173 -205 -335 -205c-119.333 0 -213.666 36.167 -282.999 108.5s-104 171.5 -104 297.5v701h249v-651c0 -80 19 -140.833 57 -182.5s93.667 -62.5 167 -62.5c75.333 0 135 24.5 179 73.5
s66 114.167 66 195.5v627h249zM238.999 1563h159c0.666992 -52.667 18.5 -96.834 53.5 -132.501s79.167 -53.5 132.5 -53.5s97.5 17.833 132.5 53.5s52.833 79.834 53.5 132.501h159c-1.33301 -93.333 -33.333 -169.666 -96 -228.999s-145.667 -89 -249 -89
s-186.333 29.667 -249 89s-94.667 135.666 -96 228.999z" />
    <glyph glyph-name="Uring" unicode="&#x16e;" horiz-adv-x="1441" 
d="M720 1511c-56 0 -104.333 20 -145 60s-61 87.667 -61 143c0 56 20.333 104 61 144s89 60 145 60s104.167 -20 144.5 -60s60.5 -88 60.5 -144c0 -55.333 -20.167 -103 -60.5 -143s-88.5 -60 -144.5 -60zM720 1611c28.667 0 53.334 10 74.001 30s31 44.333 31 73
s-10.333 53.167 -31 73.5s-45.334 30.5 -74.001 30.5s-53.334 -10.167 -74.001 -30.5s-31 -44.833 -31 -73.5s10.333 -53 31 -73s45.334 -30 74.001 -30zM385 1443l0.000976562 -911c0 -100 29.5 -180.167 88.5 -240.5s141.167 -90.5 246.5 -90.5
s187.666 30.167 246.999 90.5s89 140.5 89 240.5v911h257v-934c0 -159.333 -53.5 -288 -160.5 -386s-251.167 -147 -432.5 -147c-180.667 0 -324.667 49 -432 147s-161 226.667 -161 386v934h258z" />
    <glyph glyph-name="uring" unicode="&#x16f;" horiz-adv-x="1174" 
d="M1068 1093l-0.000976562 -1093h-239v191h-6c-61.333 -136.667 -173 -205 -335 -205c-119.333 0 -213.666 36.167 -282.999 108.5s-104 171.5 -104 297.5v701h249v-651c0 -80 19 -140.833 57 -182.5s93.667 -62.5 167 -62.5c75.333 0 135 24.5 179 73.5
s66 114.167 66 195.5v627h249zM584.999 1201c-58 0 -108 20.667 -150 62s-63 90.666 -63 147.999c0 58 21 107.667 63 149s92 62 150 62s108 -20.667 150 -62s63 -91 63 -149c0 -57.333 -21 -106.666 -63 -147.999s-92 -62 -150 -62zM584.999 1305
c29.333 0 54.5 10.333 75.5 31s31.5 45.667 31.5 75s-10.5 54.333 -31.5 75s-46.167 31 -75.5 31s-54.5 -10.333 -75.5 -31s-31.5 -45.667 -31.5 -75s10.5 -54.333 31.5 -75s46.167 -31 75.5 -31z" />
    <glyph glyph-name="Uhungarumlaut" unicode="&#x170;" horiz-adv-x="1441" 
d="M385 1443l0.000976562 -911c0 -100 29.5 -180.167 88.5 -240.5s141.167 -90.5 246.5 -90.5s187.666 30.167 246.999 90.5s89 140.5 89 240.5v911h257v-934c0 -159.333 -53.5 -288 -160.5 -386s-251.167 -147 -432.5 -147c-180.667 0 -324.667 49 -432 147
s-161 226.667 -161 386v934h258zM996.001 1552h-192l231 306h239zM631.001 1552h-191l231 306h239z" />
    <glyph glyph-name="uhungarumlaut" unicode="&#x171;" horiz-adv-x="1174" 
d="M665 1258l192 307h231l-241 -307h-182zM314 1258l192 307h231l-241 -307h-182zM1068 1093l-0.000976562 -1093h-239v191h-6c-61.333 -136.667 -173 -205 -335 -205c-119.333 0 -213.666 36.167 -282.999 108.5s-104 171.5 -104 297.5v701h249v-651
c0 -80 19 -140.833 57 -182.5s93.667 -62.5 167 -62.5c75.333 0 135 24.5 179 73.5s66 114.167 66 195.5v627h249z" />
    <glyph glyph-name="Uogonek" unicode="&#x172;" horiz-adv-x="1441" 
d="M966 -452c-77.333 0 -140.499 19.832 -189.499 59.499s-73.5 90.834 -73.5 153.501c0 86 46.667 161.667 140 227v6c-34.667 -12 -75.667 -18 -123 -18c-178.667 0 -322.167 48.667 -430.5 146s-162.5 226.333 -162.5 387v934h258v-911c0 -102 30 -182.667 90 -242
s141.667 -89 245 -89s185.166 29.5 245.499 88.5s90.5 139.833 90.5 242.5v911h257v-934c0 -93.333 -19.5 -177.333 -58.5 -252s-100.167 -145 -183.5 -211c-108.667 -83.333 -163 -161 -163 -233c0 -30 10.667 -54.167 32 -72.5s49.333 -27.5 84 -27.5
c30 0 52.667 2.33301 68 7v-153c-34.667 -12.667 -76.667 -19 -126 -19z" />
    <glyph glyph-name="uogonek" unicode="&#x173;" horiz-adv-x="1174" 
d="M1042 -433c-35.333 -12.667 -77.334 -18.999 -126.001 -18.999c-77.333 0 -140.5 20.167 -189.5 60.5s-73.5 92.166 -73.5 155.499c0 49.333 16.167 95.833 48.5 139.5s74.833 76.5 127.5 98.5v189h-6c-61.333 -136.667 -173 -205 -335 -205
c-119.333 0 -213.666 36.167 -282.999 108.5s-104 171.5 -104 297.5v701h249v-651c0 -80 19 -140.833 57 -182.5s93.667 -62.5 167 -62.5c75.333 0 135 24.5 179 73.5s66 114.167 66 195.5v627h249v-1093l-28 -6c-54 -18 -97.833 -43.667 -131.5 -77s-50.5 -69 -50.5 -107
c0 -28.667 10.5 -52 31.5 -70s49.167 -27 84.5 -27c30 0 52.667 2.33301 68 7v-153z" />
    <glyph glyph-name="Wcircumflex" unicode="&#x174;" horiz-adv-x="1946" 
d="M875 1856h196l281 -310h-203l-174 198h-4l-174 -198h-203zM968 1044l-295 -1044h-243l-387 1443h268l250 -1093h8l290 1093h228l290 -1093h8l250 1093h268l-387 -1443h-243l-295 1044h-10z" />
    <glyph glyph-name="wcircumflex" unicode="&#x175;" horiz-adv-x="1602" 
d="M893 1563l270 -311h-202l-157 192h-7l-157 -192h-202l270 311h185zM1579 1093l-297 -1093h-261l-218 803h-6l-217 -803h-259l-297 1093h249l188 -844h5l217 844h239l217 -844h5l189 844h246z" />
    <glyph glyph-name="Ycircumflex" unicode="&#x176;" horiz-adv-x="1323" 
d="M790 0h-257v569l-506 874h283l350 -628h6l349 628h281l-506 -874v-569zM563 1856h196l281 -310h-203l-174 198h-4l-174 -198h-203z" />
    <glyph glyph-name="ycircumflex" unicode="&#x177;" horiz-adv-x="1096" 
d="M228 -398c-48.667 0 -81.334 1.66797 -98.001 5.00098v198c12.667 -2.66699 35.334 -4 68.001 -4c53.333 0 95.5 11.167 126.5 33.5s54.167 59.166 69.5 110.499l14 51l-391 1097h271l262 -878h5l261 878h263l-396 -1131c-46.667 -134 -103.5 -227.5 -170.5 -280.5
s-161.833 -79.5 -284.5 -79.5zM641 1563l270 -311h-202l-157 192h-7l-157 -192h-202l270 311h185z" />
    <glyph glyph-name="Ydieresis" unicode="&#x178;" horiz-adv-x="1323" 
d="M790 0h-257v569l-506 874h283l350 -628h6l349 628h281l-506 -874v-569zM456 1569c-35.333 0 -65.333 12.167 -90 36.5s-37 53.5 -37 87.5c0 34.667 12.333 64.167 37 88.5s54.667 36.5 90 36.5s65.333 -12.167 90 -36.5s37 -53.833 37 -88.5
c0 -34 -12.333 -63.167 -37 -87.5s-54.667 -36.5 -90 -36.5zM866 1569c-35.333 0 -65.333 12.167 -90 36.5s-37 53.5 -37 87.5c0 34.667 12.333 64.167 37 88.5s54.667 36.5 90 36.5s65.166 -12.167 89.499 -36.5s36.5 -53.833 36.5 -88.5
c0 -34 -12.167 -63.167 -36.5 -87.5s-54.166 -36.5 -89.499 -36.5z" />
    <glyph glyph-name="Zacute" unicode="&#x179;" horiz-adv-x="1281" 
d="M738 1552h-198l231 306h246zM92 0v172l766 1046v7h-745v218h1057v-172l-762 -1046v-7h781v-218h-1097z" />
    <glyph glyph-name="zacute" unicode="&#x17a;" horiz-adv-x="1034" 
d="M615 1258h-201l218 307h245zM84 0v152l571 741v5h-565v195h851v-166l-549 -728v-4h558v-195h-866z" />
    <glyph glyph-name="Zdotaccent" unicode="&#x17b;" horiz-adv-x="1281" 
d="M641 1569c-38.667 0 -71.5 13.667 -98.5 41s-40.5 60 -40.5 98c0 38.667 13.5 71.5 40.5 98.5s59.833 40.5 98.5 40.5s71.5 -13.5 98.5 -40.5s40.5 -59.833 40.5 -98.5c0 -38 -13.5 -70.667 -40.5 -98s-59.833 -41 -98.5 -41zM92 0v172l766 1046v7h-745v218h1057v-172
l-762 -1046v-7h781v-218h-1097z" />
    <glyph glyph-name="zdotaccent" unicode="&#x17c;" horiz-adv-x="1034" 
d="M517 1262c-39.333 0 -72.666 13.667 -99.999 41s-41 60.333 -41 99c0 38 13.667 70.667 41 98s60.666 41 99.999 41c38.667 0 71.667 -13.667 99 -41s41 -60 41 -98c0 -38.667 -13.667 -71.667 -41 -99s-60.333 -41 -99 -41zM84 0v152l571 741v5h-565v195h851v-166
l-549 -728v-4h558v-195h-866z" />
    <glyph glyph-name="Zcaron" unicode="&#x17d;" horiz-adv-x="1281" 
d="M92 0v172l766 1046v7h-745v218h1057v-172l-762 -1046v-7h781v-218h-1097zM543 1546l-281 310h203l174 -198h4l174 198h203l-281 -310h-196z" />
    <glyph glyph-name="zcaron" unicode="&#x17e;" horiz-adv-x="1034" 
d="M609 1252h-185l-270 311h202l157 -191h7l157 191h202zM84 0v152l571 741v5h-565v195h851v-166l-549 -728v-4h558v-195h-866z" />
    <glyph glyph-name="florin" unicode="&#x192;" horiz-adv-x="1294" 
d="M1239 1424v-204.998c-52.667 25.333 -111.667 38 -177 38c-70.667 0 -125.334 -16.5 -164.001 -49.5s-63.334 -84.167 -74.001 -153.5l-27 -181h356v-186h-384l-48 -319c-20 -133.333 -67 -232 -141 -296s-176.333 -96 -307 -96c-87.333 0 -159.666 14.333 -216.999 43
v212c54.667 -31.333 117 -47 187 -47c68.667 0 120.834 16.667 156.501 50s59.167 87.666 70.5 162.999l43 290h-324v186h352l31 205c20 129.333 68 225.666 144 288.999s181.667 95 317 95c83.333 0 152 -12.667 206 -38z" />
    <glyph glyph-name="Ohorn" unicode="&#x1a0;" horiz-adv-x="1562" 
d="M763 -24c-211.333 0 -378.333 66.833 -501 200.5s-184 315.167 -184 544.5s61.5 411 184.5 545s289.833 201 500.5 201c55.333 0 127.166 -7.66699 215.499 -23s158.5 -23 210.5 -23c38.667 0 66.334 7 83.001 21s25 37.333 25 70v154h205v-217
c0 -59.333 -17.667 -106.333 -53 -141s-83.666 -52 -144.999 -52h-60v-6c58 -43.333 106.333 -115.5 145 -216.5s58 -205.167 58 -312.5c0 -229.333 -61.333 -410.833 -184 -544.5s-289.334 -200.5 -500.001 -200.5zM763 196c128.667 0 231 47.333 307 142
s114 222.334 114 383.001c0 161.333 -38 289.333 -114 384s-178.333 142 -307 142s-231 -47.333 -307 -142s-114 -222.667 -114 -384c0 -160.667 38 -288.334 114 -383.001s178.333 -142 307 -142z" />
    <glyph glyph-name="ohorn" unicode="&#x1a1;" horiz-adv-x="1242" 
d="M586 183c86 0 153.167 31.999 201.5 95.999s72.5 153 72.5 267s-24.167 203 -72.5 267s-115.5 96 -201.5 96c-85.333 0 -152.166 -32.167 -200.499 -96.5s-72.5 -153.166 -72.5 -266.499c0 -114 24.167 -203 72.5 -267s115.166 -96 200.499 -96zM1112 534.999
c0 -166.667 -47.5 -300.168 -142.5 -400.501s-221.5 -150.5 -379.5 -150.5c-164 0 -293.333 50.333 -388 151s-142 238 -142 412c0 172 47.333 308.5 142 409.5s222.667 151.5 384 151.5c48 0 99.5 -5.33301 154.5 -16s99.167 -16 132.5 -16c40.667 0 69 6.5 85 19.5
s24 35.833 24 68.5v142h205v-209c0 -54.667 -15 -98 -45 -130s-70.667 -48 -122 -48h-50v-5c45.333 -35.333 80.333 -86.166 105 -152.499s37 -141.833 37 -226.5z" />
    <glyph glyph-name="Uhorn" unicode="&#x1af;" horiz-adv-x="1637" 
d="M720 -25c-178.667 0 -322.166 48.667 -430.499 146s-162.5 226.333 -162.5 387v935h258v-912c0 -102 30 -182.5 90 -241.5s141.667 -88.5 245 -88.5s185.166 29.5 245.499 88.5s90.5 139.5 90.5 241.5v912h265c56 0 84 27 84 81v174h205v-221
c0 -64 -19.333 -114 -58 -150s-92 -54 -160 -54h-79v-765c0 -160.667 -54 -289.667 -162 -387s-251.667 -146 -431 -146z" />
    <glyph glyph-name="uhorn" unicode="&#x1b0;" horiz-adv-x="1339" 
d="M823 191c-61.333 -136.667 -172.999 -205 -334.999 -205c-118.667 0 -212.834 36.167 -282.501 108.5s-104.5 171.5 -104.5 297.5v701h249v-651c0 -80 19.167 -140.833 57.5 -182.5s93.833 -62.5 166.5 -62.5c74.667 0 134.167 24.333 178.5 73s66.5 114 66.5 196v627
h238c56 0 84 27 84 81v156h205v-204c0 -63.333 -19.333 -113 -58 -149s-92 -54 -160 -54h-60v-923h-239v191h-6z" />
    <glyph glyph-name="uni01C4" unicode="&#x1c4;" horiz-adv-x="2705" 
d="M127 1443h534c216 0 384.333 -62.667 505 -188s181 -302 181 -530c0 -228.667 -60.333 -406.667 -181 -534s-289 -191 -505 -191h-534v1443zM385 1225l0.000976562 -1007h249c145.333 0 256.666 43.333 333.999 130s116 212 116 376c0 161.333 -39 285.166 -117 371.499
s-189 129.5 -333 129.5h-249zM1516 0.000976562v172l766 1046v7h-745v218h1057v-172l-762 -1046v-7h781v-218h-1097zM1967 1546l-281 310h203l174 -198h4l174 198h203l-281 -310h-196z" />
    <glyph glyph-name="uni01C5" unicode="&#x1c5;" horiz-adv-x="2458" 
d="M127 1443h534c216 0 384.333 -62.667 505 -188s181 -302 181 -530c0 -228.667 -60.333 -406.667 -181 -534s-289 -191 -505 -191h-534v1443zM385 1225l0.000976562 -1007h249c145.333 0 256.666 43.333 333.999 130s116 212 116 376c0 161.333 -39 285.166 -117 371.499
s-189 129.5 -333 129.5h-249zM2033 1252h-185l-270 311h202l157 -191h7l157 191h202zM1508 0.000976562v152l571 741v5h-565v195h851v-166l-549 -728v-4h558v-195h-866z" />
    <glyph glyph-name="uni01C6" unicode="&#x1c6;" horiz-adv-x="2255" 
d="M515 -12c-136.667 0 -246.668 50.8311 -330.001 152.498s-125 237.167 -125 406.5c0 168.667 41.667 303.834 125 405.501s193 152.5 329 152.5c78 0 146.667 -17.333 206 -52s104 -82.667 134 -144h6v601h249v-1510h-244v186h-5
c-30 -61.333 -75.167 -109.666 -135.5 -144.999s-130.166 -53 -209.499 -53zM587.999 897.998c-82.667 0 -148.835 -32.001 -198.502 -96.001s-74.5 -149.333 -74.5 -256c0 -107.333 24.833 -192.666 74.5 -255.999s115.834 -95 198.501 -95s148.834 32 198.501 96
s74.5 149 74.5 255c0 105.333 -25 190.333 -75 255s-116 97 -198 97zM1830 1252h-185l-270 311h202l157 -191h7l157 191h202zM1305 -0.00292969v152l571 741v5h-565v195h851v-166l-549 -728v-4h558v-195h-866z" />
    <glyph glyph-name="uni01C7" unicode="&#x1c7;" horiz-adv-x="2194" 
d="M1133 394h251.001c1.33301 -59.333 20.833 -107.333 58.5 -144s86.5 -55 146.5 -55c69.333 0 122.166 20.5 158.499 61.5s54.5 100.5 54.5 178.5v1008h257v-1010c0 -146.667 -41.167 -260.667 -123.5 -342s-196.833 -122 -343.5 -122c-138 0 -249 38.833 -333 116.5
s-126 180.5 -126 308.5zM1040 218v-218h-913v1443h258v-1225h655z" />
    <glyph glyph-name="uni01C8" unicode="&#x1c8;" horiz-adv-x="1573" 
d="M1460 1093l0.000976562 -1145c0 -220.667 -123 -331 -369 -331c-30 0 -50.333 0.666992 -61 2v191c1.33301 0 6.66602 -0.166992 15.999 -0.5s15 -0.5 17 -0.5c53.333 0 91.333 11 114 33s34 58.667 34 110v1141h249zM1335 1232c-38.667 0 -71.667 13.333 -99 40
s-41 59 -41 97c0 38.667 13.667 71.167 41 97.5s60.333 39.5 99 39.5c39.333 0 72.5 -13.167 99.5 -39.5s40.5 -58.833 40.5 -97.5s-13.5 -71.167 -40.5 -97.5s-60.167 -39.5 -99.5 -39.5zM1040 218v-218h-913v1443h258v-1225h655z" />
    <glyph glyph-name="uni01C9" unicode="&#x1c9;" horiz-adv-x="952" 
d="M840 1093l0.000976562 -1145c0 -220.667 -123 -331 -369 -331c-30 0 -50.333 0.666992 -61 2v191c1.33301 0 6.66602 -0.166992 15.999 -0.5s15 -0.5 17 -0.5c53.333 0 91.333 11 114 33s34 58.667 34 110v1141h249zM715.001 1232c-38.667 0 -71.667 13.333 -99 40
s-41 59 -41 97c0 38.667 13.667 71.167 41 97.5s60.333 39.5 99 39.5c39.333 0 72.5 -13.167 99.5 -39.5s40.5 -58.833 40.5 -97.5s-13.5 -71.167 -40.5 -97.5s-60.167 -39.5 -99.5 -39.5zM114.001 0v1510h249v-1510h-249z" />
    <glyph glyph-name="uni01CA" unicode="&#x1ca;" horiz-adv-x="2547" 
d="M1487 394h251.001c1.33301 -59.333 20.833 -107.333 58.5 -144s86.5 -55 146.5 -55c69.333 0 122.166 20.5 158.499 61.5s54.5 100.5 54.5 178.5v1008h257v-1010c0 -146.667 -41.167 -260.667 -123.5 -342s-196.833 -122 -343.5 -122c-138 0 -249 38.833 -333 116.5
s-126 180.5 -126 308.5zM376.001 0h-249v1443h224l716 -1011h9v1011h248v-1443h-222l-717 1012h-9v-1012z" />
    <glyph glyph-name="uni01CB" unicode="&#x1cb;" horiz-adv-x="1926" 
d="M1814 1093l0.000976562 -1145c0 -220.667 -123 -331 -369 -331c-30 0 -50.333 0.666992 -61 2v191c1.33301 0 6.66602 -0.166992 15.999 -0.5s15 -0.5 17 -0.5c53.333 0 91.333 11 114 33s34 58.667 34 110v1141h249zM1689 1232c-38.667 0 -71.667 13.333 -99 40
s-41 59 -41 97c0 38.667 13.667 71.167 41 97.5s60.333 39.5 99 39.5c39.333 0 72.5 -13.167 99.5 -39.5s40.5 -58.833 40.5 -97.5s-13.5 -71.167 -40.5 -97.5s-60.167 -39.5 -99.5 -39.5zM376.001 0h-249v1443h224l716 -1011h9v1011h248v-1443h-222l-717 1012h-9v-1012z
" />
    <glyph glyph-name="uni01CC" unicode="&#x1cc;" horiz-adv-x="1648" 
d="M1536 1093l0.000976562 -1145c0 -220.667 -123 -331 -369 -331c-30 0 -50.333 0.666992 -61 2v191c1.33301 0 6.66602 -0.166992 15.999 -0.5s15 -0.5 17 -0.5c53.333 0 91.333 11 114 33s34 58.667 34 110v1141h249zM1411 1232c-38.667 0 -71.667 13.333 -99 40
s-41 59 -41 97c0 38.667 13.667 71.167 41 97.5s60.333 39.5 99 39.5c39.333 0 72.5 -13.167 99.5 -39.5s40.5 -58.833 40.5 -97.5s-13.5 -71.167 -40.5 -97.5s-60.167 -39.5 -99.5 -39.5zM106.001 0v1093h239v-190h5c66 135.333 180.333 203 343 203
c120.667 0 214.167 -35.833 280.5 -107.5s99.5 -171.167 99.5 -298.5v-700h-249v651c0 78.667 -18.833 139 -56.5 181s-93.5 63 -167.5 63c-76 0 -135.833 -24.5 -179.5 -73.5s-65.5 -113.833 -65.5 -194.5v-627h-249z" />
    <glyph glyph-name="Acaron" unicode="&#x1cd;" horiz-adv-x="1369" 
d="M1070 0l-123 373h-531l-123 -373h-266l512 1443h291l512 -1443h-272zM678 1188l-202 -616h410l-201 616h-7zM586 1546l-281 310h203l174 -198h4l174 198h203l-281 -310h-196z" />
    <glyph glyph-name="acaron" unicode="&#x1ce;" horiz-adv-x="1116" 
d="M501 179c76 0 139.333 21.333 190 64s76 97 76 163v83l-250 -16c-138.667 -9.33301 -208 -59.333 -208 -150c0 -44 17.5 -79 52.5 -105s81.5 -39 139.5 -39zM428 -12c-108 0 -196.502 30 -265.502 90s-103.5 138.333 -103.5 235c0 97.333 36.167 173.333 108.5 228
s177.5 86.334 315.5 95.001l284 17v80c0 57.333 -18.5 101.5 -55.5 132.5s-89.167 46.5 -156.5 46.5c-56 0 -103 -13.333 -141 -40s-61.333 -62.334 -70 -107.001h-230c3.33301 100 46.833 182.167 130.5 246.5s189.834 96.5 318.501 96.5
c136.667 0 245.834 -32.667 327.501 -98s122.5 -152.333 122.5 -261v-749h-239v176h-6c-30 -58 -75.833 -103.833 -137.5 -137.5s-129.167 -50.5 -202.5 -50.5zM650.998 1252h-185l-270 311h202l157 -191h7l157 191h202z" />
    <glyph glyph-name="Icaron" unicode="&#x1cf;" horiz-adv-x="512" 
d="M385 0h-258v1443h258v-1443zM158 1546l-281 310h203l174 -198h4l174 198h203l-281 -310h-196z" />
    <glyph glyph-name="icaron" unicode="&#x1d0;" horiz-adv-x="475" 
d="M329 1252h-185l-270 311h202l157 -191h7l157 191h202zM113 0v1093h249v-1093h-249z" />
    <glyph glyph-name="Ocaron" unicode="&#x1d1;" horiz-adv-x="1525" 
d="M665 1546l-281 310h203l174 -198h4l174 198h203l-281 -310h-196zM763 1467c210 0 376.5 -67 499.5 -201s184.5 -315.667 184.5 -545s-61.5 -410.833 -184.5 -544.5s-289.5 -200.5 -499.5 -200.5c-210.667 0 -377.5 66.833 -500.5 200.5s-184.5 315.167 -184.5 544.5
s61.5 411 184.5 545s289.833 201 500.5 201zM763 1247c-128.667 0 -231 -47.333 -307 -142s-114 -222.667 -114 -384c0 -160.667 38 -288.334 114 -383.001s178.333 -142 307 -142s231 47.333 307 142s114 222.334 114 383.001s-38 288.5 -114 383.5
s-178.333 142.5 -307 142.5z" />
    <glyph glyph-name="ocaron" unicode="&#x1d2;" horiz-adv-x="1173" 
d="M678 1252h-185l-270 311h202l157 -191h7l157 191h202zM586 -16c-161.333 0 -289.333 50.334 -384 151.001s-142 238 -142 412c0 172 47.5 308.5 142.5 409.5s222.833 151.5 383.5 151.5c161.333 0 289.5 -50.333 384.5 -151s142.5 -237.334 142.5 -410.001
c0 -174 -47.333 -311.333 -142 -412s-223 -151 -385 -151zM586 183.001c86 0 153.167 31.832 201.5 95.499s72.5 152.834 72.5 267.501c0 114 -24.167 203 -72.5 267s-115.5 96 -201.5 96c-85.333 0 -152.166 -32 -200.499 -96s-72.5 -153 -72.5 -267s24.167 -203 72.5 -267
s115.166 -96 200.499 -96z" />
    <glyph glyph-name="Ucaron" unicode="&#x1d3;" horiz-adv-x="1441" 
d="M622 1546l-281 310h203l174 -198h4l174 198h203l-281 -310h-196zM385 1443l0.000976562 -911c0 -100 29.5 -180.167 88.5 -240.5s141.167 -90.5 246.5 -90.5s187.666 30.167 246.999 90.5s89 140.5 89 240.5v911h257v-934c0 -159.333 -53.5 -288 -160.5 -386
s-251.167 -147 -432.5 -147c-180.667 0 -324.667 49 -432 147s-161 226.667 -161 386v934h258z" />
    <glyph glyph-name="ucaron" unicode="&#x1d4;" horiz-adv-x="1174" 
d="M677 1252h-185l-270 311h202l157 -191h7l157 191h202zM1068 1093l-0.000976562 -1093h-239v191h-6c-61.333 -136.667 -173 -205 -335 -205c-119.333 0 -213.666 36.167 -282.999 108.5s-104 171.5 -104 297.5v701h249v-651c0 -80 19 -140.833 57 -182.5
s93.667 -62.5 167 -62.5c75.333 0 135 24.5 179 73.5s66 114.167 66 195.5v627h249z" />
    <glyph glyph-name="Udieresismacron" unicode="&#x1d5;" horiz-adv-x="1441" 
d="M385 1443l0.000976562 -911c0 -100 29.5 -180.167 88.5 -240.5s141.167 -90.5 246.5 -90.5s187.666 30.167 246.999 90.5s89 140.5 89 240.5v911h257v-934c0 -159.333 -53.5 -288 -160.5 -386s-251.167 -147 -432.5 -147c-180.667 0 -324.667 49 -432 147
s-161 226.667 -161 386v934h258zM523.001 1805c32.667 0 60.334 -11.333 83.001 -34s34 -50 34 -82c0 -31.333 -11.333 -58.333 -34 -81s-50.334 -34 -83.001 -34c-33.333 0 -61.333 11.167 -84 33.5s-34 49.5 -34 81.5s11.333 59.333 34 82s50.667 34 84 34zM385.001 2055
h670v-129h-670v129zM917.001 1805c33.333 0 61.333 -11.333 84 -34s34 -50 34 -82s-11.333 -59.167 -34 -81.5s-50.667 -33.5 -84 -33.5c-32.667 0 -60.334 11.333 -83.001 34s-34 49.667 -34 81c0 32 11.333 59.333 34 82s50.334 34 83.001 34z" />
    <glyph glyph-name="udieresismacron" unicode="&#x1d6;" horiz-adv-x="1174" 
d="M1068 1093l-0.000976562 -1093h-239v191h-6c-61.333 -136.667 -173 -205 -335 -205c-119.333 0 -213.666 36.167 -282.999 108.5s-104 171.5 -104 297.5v701h249v-651c0 -80 19 -140.833 57 -182.5s93.667 -62.5 167 -62.5c75.333 0 135 24.5 179 73.5
s66 114.167 66 195.5v627h249zM383.999 1259c-33.333 0 -61.666 11.5 -84.999 34.5s-35 50.833 -35 83.5s11.667 60.5 35 83.5s51.666 34.5 84.999 34.5c34 0 62.667 -11.333 86 -34s35 -50.667 35 -84c0 -32.667 -11.667 -60.5 -35 -83.5s-52 -34.5 -86 -34.5z
M785.999 1259c-34 0 -62.667 11.5 -86 34.5s-35 50.833 -35 83.5c0 33.333 11.667 61.333 35 84s52 34 86 34s62.5 -11.333 85.5 -34s34.5 -50.667 34.5 -84c0 -32.667 -11.5 -60.5 -34.5 -83.5s-51.5 -34.5 -85.5 -34.5zM912.999 1789v-130h-656v130h656z" />
    <glyph glyph-name="Udieresisacute" unicode="&#x1d7;" horiz-adv-x="1441" 
d="M624 1873l190 229h230l-236 -229h-184zM523 1574c-33.333 0 -61.333 11.167 -84 33.5s-34 49.5 -34 81.5s11.333 59.333 34 82s50.667 34 84 34c32.667 0 60.334 -11.333 83.001 -34s34 -50 34 -82c0 -31.333 -11.333 -58.333 -34 -81s-50.334 -34 -83.001 -34zM917 1574
c-32.667 0 -60.334 11.333 -83.001 34s-34 49.667 -34 81c0 32 11.333 59.333 34 82s50.334 34 83.001 34c33.333 0 61.333 -11.333 84 -34s34 -50 34 -82s-11.333 -59.167 -34 -81.5s-50.667 -33.5 -84 -33.5zM385 1443l0.000976562 -911c0 -100 29.5 -180.167 88.5 -240.5
s141.167 -90.5 246.5 -90.5s187.666 30.167 246.999 90.5s89 140.5 89 240.5v911h257v-934c0 -159.333 -53.5 -288 -160.5 -386s-251.167 -147 -432.5 -147c-180.667 0 -324.667 49 -432 147s-161 226.667 -161 386v934h258z" />
    <glyph glyph-name="udieresisacute" unicode="&#x1d8;" horiz-adv-x="1174" 
d="M489 1611l174 264h230l-211 -264h-193zM380 1259c-35.333 0 -65.333 12.167 -90 36.5s-37 53.5 -37 87.5c0 34.667 12.333 64.167 37 88.5s54.667 36.5 90 36.5s65.333 -12.167 90 -36.5s37 -53.833 37 -88.5c0 -34 -12.333 -63.167 -37 -87.5s-54.667 -36.5 -90 -36.5z
M790 1259c-35.333 0 -65.333 12.167 -90 36.5s-37 53.5 -37 87.5c0 34.667 12.333 64.167 37 88.5s54.667 36.5 90 36.5s65.166 -12.167 89.499 -36.5s36.5 -53.833 36.5 -88.5c0 -34 -12.167 -63.167 -36.5 -87.5s-54.166 -36.5 -89.499 -36.5zM1068 1093
l-0.000976562 -1093h-239v191h-6c-61.333 -136.667 -173 -205 -335 -205c-119.333 0 -213.666 36.167 -282.999 108.5s-104 171.5 -104 297.5v701h249v-651c0 -80 19 -140.833 57 -182.5s93.667 -62.5 167 -62.5c75.333 0 135 24.5 179 73.5s66 114.167 66 195.5v627h249z
" />
    <glyph glyph-name="Udieresiscaron" unicode="&#x1d9;" horiz-adv-x="1441" 
d="M622 1873l-260 237h209l141 -130h16l141 130h209l-260 -237h-196zM523 1805c32.667 0 60.334 -11.333 83.001 -34s34 -50 34 -82c0 -31.333 -11.333 -58.333 -34 -81s-50.334 -34 -83.001 -34c-33.333 0 -61.333 11.167 -84 33.5s-34 49.5 -34 81.5s11.333 59.333 34 82
s50.667 34 84 34zM917 1805c33.333 0 61.333 -11.333 84 -34s34 -50 34 -82s-11.333 -59.167 -34 -81.5s-50.667 -33.5 -84 -33.5c-32.667 0 -60.334 11.333 -83.001 34s-34 49.667 -34 81c0 32 11.333 59.333 34 82s50.334 34 83.001 34zM385 1443l0.000976562 -911
c0 -100 29.5 -180.167 88.5 -240.5s141.167 -90.5 246.5 -90.5s187.666 30.167 246.999 90.5s89 140.5 89 240.5v911h257v-934c0 -159.333 -53.5 -288 -160.5 -386s-251.167 -147 -432.5 -147c-180.667 0 -324.667 49 -432 147s-161 226.667 -161 386v934h258z" />
    <glyph glyph-name="udieresiscaron" unicode="&#x1da;" horiz-adv-x="1174" 
d="M384 1259c-34.667 0 -64 11.833 -88 35.5s-36 52.167 -36 85.5s12 62 36 86s53.333 36 88 36s64 -11.833 88 -35.5s36 -52.5 36 -86.5c0 -33.333 -12 -61.833 -36 -85.5s-53.333 -35.5 -88 -35.5zM786 1259c-34.667 0 -64 11.833 -88 35.5s-36 52.167 -36 85.5
s12 62 36 86s53.333 36 88 36s64 -12 88 -36s36 -52.667 36 -86s-12 -61.833 -36 -85.5s-53.333 -35.5 -88 -35.5zM693 1599h-216l-259 282h200l164 -180h6l164 180h200zM1068 1093l-0.000976562 -1093h-239v191h-6c-61.333 -136.667 -173 -205 -335 -205
c-119.333 0 -213.666 36.167 -282.999 108.5s-104 171.5 -104 297.5v701h249v-651c0 -80 19 -140.833 57 -182.5s93.667 -62.5 167 -62.5c75.333 0 135 24.5 179 73.5s66 114.167 66 195.5v627h249z" />
    <glyph glyph-name="Udieresisgrave" unicode="&#x1db;" horiz-adv-x="1441" 
d="M816 1873h-184l-236 229h230zM523 1574c-33.333 0 -61.333 11.167 -84 33.5s-34 49.5 -34 81.5s11.333 59.333 34 82s50.667 34 84 34c32.667 0 60.334 -11.333 83.001 -34s34 -50 34 -82c0 -31.333 -11.333 -58.333 -34 -81s-50.334 -34 -83.001 -34zM917 1574
c-32.667 0 -60.334 11.333 -83.001 34s-34 49.667 -34 81c0 32 11.333 59.333 34 82s50.334 34 83.001 34c33.333 0 61.333 -11.333 84 -34s34 -50 34 -82s-11.333 -59.167 -34 -81.5s-50.667 -33.5 -84 -33.5zM385 1443l0.000976562 -911c0 -100 29.5 -180.167 88.5 -240.5
s141.167 -90.5 246.5 -90.5s187.666 30.167 246.999 90.5s89 140.5 89 240.5v911h257v-934c0 -159.333 -53.5 -288 -160.5 -386s-251.167 -147 -432.5 -147c-180.667 0 -324.667 49 -432 147s-161 226.667 -161 386v934h258z" />
    <glyph glyph-name="udieresisgrave" unicode="&#x1dc;" horiz-adv-x="1174" 
d="M684 1618h-191l-214 263h237zM380 1259c-35.333 0 -65.333 12.167 -90 36.5s-37 53.5 -37 87.5c0 34.667 12.333 64.167 37 88.5s54.667 36.5 90 36.5s65.333 -12.167 90 -36.5s37 -53.833 37 -88.5c0 -34 -12.333 -63.167 -37 -87.5s-54.667 -36.5 -90 -36.5zM790 1259
c-35.333 0 -65.333 12.167 -90 36.5s-37 53.5 -37 87.5c0 34.667 12.333 64.167 37 88.5s54.667 36.5 90 36.5s65.166 -12.167 89.499 -36.5s36.5 -53.833 36.5 -88.5c0 -34 -12.167 -63.167 -36.5 -87.5s-54.166 -36.5 -89.499 -36.5zM1068 1093l-0.000976562 -1093h-239
v191h-6c-61.333 -136.667 -173 -205 -335 -205c-119.333 0 -213.666 36.167 -282.999 108.5s-104 171.5 -104 297.5v701h249v-651c0 -80 19 -140.833 57 -182.5s93.667 -62.5 167 -62.5c75.333 0 135 24.5 179 73.5s66 114.167 66 195.5v627h249z" />
    <glyph glyph-name="Adieresismacron" unicode="&#x1de;" horiz-adv-x="1369" 
d="M1070 0l-123 373h-531l-123 -373h-266l512 1443h291l512 -1443h-272zM678 1188l-202 -616h410l-201 616h-7zM487 1805c32.667 0 60.334 -11.333 83.001 -34s34 -50 34 -82c0 -31.333 -11.333 -58.333 -34 -81s-50.334 -34 -83.001 -34c-33.333 0 -61.333 11.167 -84 33.5
s-34 49.5 -34 81.5s11.333 59.333 34 82s50.667 34 84 34zM349 2055h670v-129h-670v129zM881 1805c33.333 0 61.333 -11.333 84 -34s34 -50 34 -82s-11.333 -59.167 -34 -81.5s-50.667 -33.5 -84 -33.5c-32.667 0 -60.334 11.333 -83.001 34s-34 49.667 -34 81
c0 32 11.333 59.333 34 82s50.334 34 83.001 34z" />
    <glyph glyph-name="adieresismacron" unicode="&#x1df;" horiz-adv-x="1116" 
d="M501 179c76 0 139.333 21.333 190 64s76 97 76 163v83l-250 -16c-138.667 -9.33301 -208 -59.333 -208 -150c0 -44 17.5 -79 52.5 -105s81.5 -39 139.5 -39zM428 -12c-108 0 -196.502 30 -265.502 90s-103.5 138.333 -103.5 235c0 97.333 36.167 173.333 108.5 228
s177.5 86.334 315.5 95.001l284 17v80c0 57.333 -18.5 101.5 -55.5 132.5s-89.167 46.5 -156.5 46.5c-56 0 -103 -13.333 -141 -40s-61.333 -62.334 -70 -107.001h-230c3.33301 100 46.833 182.167 130.5 246.5s189.834 96.5 318.501 96.5
c136.667 0 245.834 -32.667 327.501 -98s122.5 -152.333 122.5 -261v-749h-239v176h-6c-30 -58 -75.833 -103.833 -137.5 -137.5s-129.167 -50.5 -202.5 -50.5zM357.998 1259c-33.333 0 -61.666 11.5 -84.999 34.5s-35 50.833 -35 83.5s11.667 60.5 35 83.5
s51.666 34.5 84.999 34.5c34 0 62.667 -11.333 86 -34s35 -50.667 35 -84c0 -32.667 -11.667 -60.5 -35 -83.5s-52 -34.5 -86 -34.5zM759.998 1259c-34 0 -62.667 11.5 -86 34.5s-35 50.833 -35 83.5c0 33.333 11.667 61.333 35 84s52 34 86 34s62.5 -11.333 85.5 -34
s34.5 -50.667 34.5 -84c0 -32.667 -11.5 -60.5 -34.5 -83.5s-51.5 -34.5 -85.5 -34.5zM886.998 1789v-130h-656v130h656z" />
    <glyph glyph-name="Adotmacron" unicode="&#x1e0;" horiz-adv-x="1369" 
d="M1070 0l-123 373h-531l-123 -373h-266l512 1443h291l512 -1443h-272zM678 1188l-202 -616h410l-201 616h-7zM684 1562c-36.667 0 -67.5 12.333 -92.5 37s-37.5 54.667 -37.5 90s12.5 65.333 37.5 90s55.833 37 92.5 37s67.5 -12.333 92.5 -37s37.5 -54.667 37.5 -90
s-12.5 -65.333 -37.5 -90s-55.833 -37 -92.5 -37zM1019 2055v-129h-670v129h670z" />
    <glyph glyph-name="adotmacron" unicode="&#x1e1;" horiz-adv-x="1116" 
d="M501 179c76 0 139.333 21.333 190 64s76 97 76 163v83l-250 -16c-138.667 -9.33301 -208 -59.333 -208 -150c0 -44 17.5 -79 52.5 -105s81.5 -39 139.5 -39zM428 -12c-108 0 -196.502 30 -265.502 90s-103.5 138.333 -103.5 235c0 97.333 36.167 173.333 108.5 228
s177.5 86.334 315.5 95.001l284 17v80c0 57.333 -18.5 101.5 -55.5 132.5s-89.167 46.5 -156.5 46.5c-56 0 -103 -13.333 -141 -40s-61.333 -62.334 -70 -107.001h-230c3.33301 100 46.833 182.167 130.5 246.5s189.834 96.5 318.501 96.5
c136.667 0 245.834 -32.667 327.501 -98s122.5 -152.333 122.5 -261v-749h-239v176h-6c-30 -58 -75.833 -103.833 -137.5 -137.5s-129.167 -50.5 -202.5 -50.5zM558.998 1255c-38.667 0 -71.5 13.5 -98.5 40.5s-40.5 59.5 -40.5 97.5s13.667 70.5 41 97.5s60 40.5 98 40.5
s70.667 -13.5 98 -40.5s41 -59.5 41 -97.5s-13.5 -70.5 -40.5 -97.5s-59.833 -40.5 -98.5 -40.5zM886.998 1792v-130h-656v130h656z" />
    <glyph glyph-name="AEmacron" unicode="&#x1e2;" horiz-adv-x="2015" 
d="M820 1240l-280 -636h425v636h-145zM965 0v404h-507l-180 -404h-259l641 1443h1223v-217h-677v-397h640v-206h-640v-406h677v-217h-918zM1765 1760v-129h-670v129h670z" />
    <glyph glyph-name="aemacron" unicode="&#x1e3;" horiz-adv-x="1816" 
d="M1276 -16c-90 0 -169.83 18.667 -239.497 56s-122.167 89.666 -157.5 156.999h-10c-40.667 -67.333 -95.167 -119 -163.5 -155s-148.166 -54 -239.499 -54c-124.667 0 -223.667 29.5 -297 88.5s-110 137.167 -110 234.5c0 96.667 36.167 172.834 108.5 228.501
s176.833 87.167 313.5 94.5l286 15v68c0 56.667 -20.667 103.334 -62 140.001s-94 55 -158 55c-60.667 0 -110.334 -13.333 -149.001 -40s-60.334 -62.334 -65.001 -107.001h-230c5.33301 102 48.166 184.667 128.499 248s183.166 95 308.499 95
c88 0 164.333 -16.333 229 -49s111.334 -77.667 140.001 -135h9c75.333 122.667 196.666 184 363.999 184c144 0 259 -48.5 345 -145.5s129 -228.5 129 -394.5v-81h-753v-16c0 -88.667 25.333 -159.667 76 -213s117.667 -80 201 -80c58 0 107.333 13 148 39
s68.667 62 84 108h234c-16.667 -102 -68 -184.333 -154 -247s-191.333 -94 -316 -94zM1266 914c-72.667 0 -133 -24 -181 -72s-74.667 -111.333 -80 -190h506c-2.66699 80.667 -26 144.5 -70 191.5s-102.333 70.5 -175 70.5zM493.003 176c76.667 0 141.5 22.167 194.5 66.5
s79.5 98.833 79.5 163.5v79l-257 -15c-66.667 -4 -118 -18.667 -154 -44s-54 -60 -54 -104s17.667 -79.333 53 -106s81.333 -40 138 -40zM1236 1436v-130h-656v130h656z" />
    <glyph glyph-name="Gcaron" unicode="&#x1e6;" horiz-adv-x="1473" 
d="M650 1546l-281 310h203l174 -198h4l174 198h203l-281 -310h-196zM1390 602c0 -196 -55.501 -349.333 -166.501 -460s-265.167 -166 -462.5 -166c-210.667 0 -377.167 67.167 -499.5 201.5s-183.5 317.5 -183.5 549.5c0 228.667 60.833 409.167 182.5 541.5
s286.834 198.5 495.501 198.5c164 0 303 -44.333 417 -133s182.667 -205.334 206 -350.001h-262c-24.667 82.667 -68.667 147.334 -132 194.001s-139.333 70 -228 70c-130 0 -231.667 -45.667 -305 -137s-110 -218.333 -110 -381c0 -166 37.833 -296.667 113.5 -392
s178.5 -143 308.5 -143c108.667 0 197.5 31.333 266.5 94s104.5 144.667 106.5 246l1 24h-348v197h600v-154z" />
    <glyph glyph-name="gcaron" unicode="&#x1e7;" horiz-adv-x="1215" 
d="M681 1252h-185l-270 311h202l157 -191h7l157 191h202zM585 205c83.333 0 150 31.167 200 93.5s75 145.833 75 250.5c0 105.333 -25.167 189.833 -75.5 253.5s-116.833 95.5 -199.5 95.5c-82 0 -147.5 -31.5 -196.5 -94.5s-73.5 -147.833 -73.5 -254.5
c0 -105.333 24.5 -189 73.5 -251s114.5 -93 196.5 -93zM585 -412c-132 0 -242.831 30.668 -332.498 92.001s-141.167 140.333 -154.5 237h248c14 -43.333 43.333 -78 88 -104s97.667 -39 159 -39c83.333 0 148.666 21.5 195.999 64.5s71 100.5 71 172.5v183h-6
c-29.333 -58.667 -74.333 -105 -135 -139s-130 -51 -208 -51c-136 0 -245.167 49.5 -327.5 148.5s-123.5 231.5 -123.5 397.5c0 169.333 41.167 304.166 123.5 404.499s193.166 150.5 332.499 150.5c77.333 0 146 -17.333 206 -52s106 -82.667 138 -144h5v184h244v-1075
c0 -130 -47.833 -234.167 -143.5 -312.5s-222.5 -117.5 -380.5 -117.5z" />
    <glyph glyph-name="Kcaron" unicode="&#x1e8;" horiz-adv-x="1319" 
d="M385 0h-258v1443h258v-675h9l576 675h297l-556 -640l599 -803h-314l-469 630l-142 -166v-464zM547 1546l-281 310h203l174 -198h4l174 198h203l-281 -310h-196z" />
    <glyph glyph-name="kcaron" unicode="&#x1e9;" horiz-adv-x="1090" 
d="M366 634l418 459h289l-442 -471l460 -622h-288l-352 471l-88 -89v-382h-249v1510h249v-876h3zM140 1613l-281 310h203l174 -198h4l174 198h203l-281 -310h-196z" />
    <glyph glyph-name="Oogonek" unicode="&#x1ea;" horiz-adv-x="1525" 
d="M1027 -452c-77.333 0 -140.5 19.832 -189.5 59.499s-73.5 90.834 -73.5 153.501c0 42 12.167 82.667 36.5 122s58.833 74.333 103.5 105v6c-39.333 -12 -86.333 -18 -141 -18c-211.333 0 -378.333 66.833 -501 200.5s-184 315.167 -184 544.5s61.5 411 184.5 545
s289.833 201 500.5 201s377.334 -67 500.001 -201s184 -315.667 184 -545c0 -142.667 -25.333 -268.667 -76 -378s-129.667 -208 -237 -296c-58 -46 -100 -87.5 -126 -124.5s-39 -73.5 -39 -109.5c0 -30 10.5 -54.167 31.5 -72.5s48.833 -27.5 83.5 -27.5
c31.333 0 54 2.33301 68 7v-153c-34.667 -12.667 -76.334 -19 -125.001 -19zM763 1247c-128.667 0 -231 -47.333 -307 -142s-114 -222.667 -114 -384c0 -160.667 38 -288.334 114 -383.001s178.333 -142 307 -142s231 47.333 307 142s114 222.334 114 383.001
c0 161.333 -38 289.333 -114 384s-178.333 142 -307 142z" />
    <glyph glyph-name="oogonek" unicode="&#x1eb;" horiz-adv-x="1173" 
d="M796 -452c-76.667 0 -139.001 20.001 -187.001 60.001s-72 92 -72 156c0 86 41.667 159.333 125 220v5c-21.333 -3.33301 -46.666 -5 -75.999 -5c-161.333 0 -289.333 50.333 -384 151s-142 238 -142 412c0 172 47.5 308.5 142.5 409.5s222.833 151.5 383.5 151.5
c161.333 0 289.5 -50.333 384.5 -151s142.5 -237.334 142.5 -410.001c0 -104.667 -19.333 -199.5 -58 -284.5s-93.667 -155.167 -165 -210.5c-101.333 -79.333 -152 -159 -152 -239c0 -30.667 10.5 -55 31.5 -73s49.167 -27 84.5 -27c30 0 52.667 2.33301 68 7v-153
c-34.667 -12.667 -76.667 -19 -126 -19zM585.999 183.001c86 0 153.167 31.832 201.5 95.499s72.5 152.834 72.5 267.501c0 114 -24.167 203 -72.5 267s-115.5 96 -201.5 96c-85.333 0 -152.166 -32 -200.499 -96s-72.5 -153 -72.5 -267s24.167 -203 72.5 -267
s115.166 -96 200.499 -96z" />
    <glyph glyph-name="Oogonekmacron" unicode="&#x1ec;" horiz-adv-x="1525" 
d="M1027 -452c-77.333 0 -140.5 19.832 -189.5 59.499s-73.5 90.834 -73.5 153.501c0 42 12.167 82.667 36.5 122s58.833 74.333 103.5 105v6c-39.333 -12 -86.333 -18 -141 -18c-211.333 0 -378.333 66.833 -501 200.5s-184 315.167 -184 544.5s61.5 411 184.5 545
s289.833 201 500.5 201s377.334 -67 500.001 -201s184 -315.667 184 -545c0 -142.667 -25.333 -268.667 -76 -378s-129.667 -208 -237 -296c-58 -46 -100 -87.5 -126 -124.5s-39 -73.5 -39 -109.5c0 -30 10.5 -54.167 31.5 -72.5s48.833 -27.5 83.5 -27.5
c31.333 0 54 2.33301 68 7v-153c-34.667 -12.667 -76.334 -19 -125.001 -19zM763 1247c-128.667 0 -231 -47.333 -307 -142s-114 -222.667 -114 -384c0 -160.667 38 -288.334 114 -383.001s178.333 -142 307 -142s231 47.333 307 142s114 222.334 114 383.001
c0 161.333 -38 289.333 -114 384s-178.333 142 -307 142zM1098 1760v-129h-670v129h670z" />
    <glyph glyph-name="oogonekmacron" unicode="&#x1ed;" horiz-adv-x="1173" 
d="M914 1436v-130h-656v130h656zM796 -452c-76.667 0 -139.001 20.001 -187.001 60.001s-72 92 -72 156c0 86 41.667 159.333 125 220v5c-21.333 -3.33301 -46.666 -5 -75.999 -5c-161.333 0 -289.333 50.333 -384 151s-142 238 -142 412c0 172 47.5 308.5 142.5 409.5
s222.833 151.5 383.5 151.5c161.333 0 289.5 -50.333 384.5 -151s142.5 -237.334 142.5 -410.001c0 -104.667 -19.333 -199.5 -58 -284.5s-93.667 -155.167 -165 -210.5c-101.333 -79.333 -152 -159 -152 -239c0 -30.667 10.5 -55 31.5 -73s49.167 -27 84.5 -27
c30 0 52.667 2.33301 68 7v-153c-34.667 -12.667 -76.667 -19 -126 -19zM585.999 183.001c86 0 153.167 31.832 201.5 95.499s72.5 152.834 72.5 267.501c0 114 -24.167 203 -72.5 267s-115.5 96 -201.5 96c-85.333 0 -152.166 -32 -200.499 -96s-72.5 -153 -72.5 -267
s24.167 -203 72.5 -267s115.166 -96 200.499 -96z" />
    <glyph glyph-name="uni01F1" unicode="&#x1f1;" horiz-adv-x="2705" 
d="M1516 0v172l766 1046v7h-745v218h1057v-172l-762 -1046v-7h781v-218h-1097zM127 1443h534c216 0 384.333 -62.667 505 -188s181 -302 181 -530c0 -228.667 -60.333 -406.667 -181 -534s-289 -191 -505 -191h-534v1443zM385 1225l0.000976562 -1007h249
c145.333 0 256.666 43.333 333.999 130s116 212 116 376c0 161.333 -39 285.166 -117 371.499s-189 129.5 -333 129.5h-249z" />
    <glyph glyph-name="uni01F2" unicode="&#x1f2;" horiz-adv-x="2458" 
d="M1508 0v152l571 741v5h-565v195h851v-166l-549 -728v-4h558v-195h-866zM127 1443h534c216 0 384.333 -62.667 505 -188s181 -302 181 -530c0 -228.667 -60.333 -406.667 -181 -534s-289 -191 -505 -191h-534v1443zM385 1225l0.000976562 -1007h249
c145.333 0 256.666 43.333 333.999 130s116 212 116 376c0 161.333 -39 285.166 -117 371.499s-189 129.5 -333 129.5h-249z" />
    <glyph glyph-name="uni01F3" unicode="&#x1f3;" horiz-adv-x="2255" 
d="M1305 0v152l571 741v5h-565v195h851v-166l-549 -728v-4h558v-195h-866zM515 -12c-136.667 0 -246.668 50.8311 -330.001 152.498s-125 237.167 -125 406.5c0 168.667 41.667 303.834 125 405.501s193 152.5 329 152.5c78 0 146.667 -17.333 206 -52s104 -82.667 134 -144
h6v601h249v-1510h-244v186h-5c-30 -61.333 -75.167 -109.666 -135.5 -144.999s-130.166 -53 -209.499 -53zM587.999 897.998c-82.667 0 -148.835 -32.001 -198.502 -96.001s-74.5 -149.333 -74.5 -256c0 -107.333 24.833 -192.666 74.5 -255.999s115.834 -95 198.501 -95
s148.834 32 198.501 96s74.5 149 74.5 255c0 105.333 -25 190.333 -75 255s-116 97 -198 97z" />
    <glyph glyph-name="Gacute" unicode="&#x1f4;" horiz-adv-x="1473" 
d="M845 1552h-198l231 306h246zM1390 602c0 -196 -55.501 -349.333 -166.501 -460s-265.167 -166 -462.5 -166c-210.667 0 -377.167 67.167 -499.5 201.5s-183.5 317.5 -183.5 549.5c0 228.667 60.833 409.167 182.5 541.5s286.834 198.5 495.501 198.5
c164 0 303 -44.333 417 -133s182.667 -205.334 206 -350.001h-262c-24.667 82.667 -68.667 147.334 -132 194.001s-139.333 70 -228 70c-130 0 -231.667 -45.667 -305 -137s-110 -218.333 -110 -381c0 -166 37.833 -296.667 113.5 -392s178.5 -143 308.5 -143
c108.667 0 197.5 31.333 266.5 94s104.5 144.667 106.5 246l1 24h-348v197h600v-154z" />
    <glyph glyph-name="gacute" unicode="&#x1f5;" horiz-adv-x="1215" 
d="M687 1258h-201l218 307h245zM585 205c83.333 0 150 31.167 200 93.5s75 145.833 75 250.5c0 105.333 -25.167 189.833 -75.5 253.5s-116.833 95.5 -199.5 95.5c-82 0 -147.5 -31.5 -196.5 -94.5s-73.5 -147.833 -73.5 -254.5c0 -105.333 24.5 -189 73.5 -251
s114.5 -93 196.5 -93zM585 -412c-132 0 -242.831 30.668 -332.498 92.001s-141.167 140.333 -154.5 237h248c14 -43.333 43.333 -78 88 -104s97.667 -39 159 -39c83.333 0 148.666 21.5 195.999 64.5s71 100.5 71 172.5v183h-6c-29.333 -58.667 -74.333 -105 -135 -139
s-130 -51 -208 -51c-136 0 -245.167 49.5 -327.5 148.5s-123.5 231.5 -123.5 397.5c0 169.333 41.167 304.166 123.5 404.499s193.166 150.5 332.499 150.5c77.333 0 146 -17.333 206 -52s106 -82.667 138 -144h5v184h244v-1075c0 -130 -47.833 -234.167 -143.5 -312.5
s-222.5 -117.5 -380.5 -117.5z" />
    <glyph glyph-name="Ngrave" unicode="&#x1f8;" horiz-adv-x="1452" 
d="M629 1555l-279 306h246l231 -306h-198zM376 0h-249v1443h224l716 -1011h9v1011h248v-1443h-222l-717 1012h-9v-1012z" />
    <glyph glyph-name="ngrave" unicode="&#x1f9;" horiz-adv-x="1174" 
d="M688 1258h-201l-262 307h246zM106 0v1093h239v-190h5c66 135.333 180.333 203 343 203c120.667 0 214.167 -35.833 280.5 -107.5s99.5 -171.167 99.5 -298.5v-700h-249v651c0 78.667 -18.833 139 -56.5 181s-93.5 63 -167.5 63c-76 0 -135.833 -24.5 -179.5 -73.5
s-65.5 -113.833 -65.5 -194.5v-627h-249z" />
    <glyph glyph-name="Aringacute" unicode="&#x1fa;" horiz-adv-x="1369" 
d="M1070 0l-123 373h-531l-123 -373h-266l512 1443h291l512 -1443h-272zM678 1188l-202 -616h410l-201 616h-7zM684 1489c-56.667 0 -104.834 19.501 -144.501 58.501s-59.5 86.5 -59.5 142.5s19.833 103.5 59.5 142.5s87.834 58.5 144.501 58.5
c57.333 0 105.5 -19.333 144.5 -58s58.5 -86.334 58.5 -143.001c0 -56 -19.667 -103.5 -59 -142.5s-87.333 -58.5 -144 -58.5zM684 1588c28.667 0 52.834 9.83301 72.501 29.5s29.5 43.834 29.5 72.501s-9.83301 52.834 -29.5 72.501s-43.834 29.5 -72.501 29.5
s-52.834 -9.83301 -72.501 -29.5s-29.5 -43.834 -29.5 -72.501s9.83301 -52.834 29.5 -72.501s43.834 -29.5 72.501 -29.5zM722 2129h222l-173 -191h-167z" />
    <glyph glyph-name="aringacute" unicode="&#x1fb;" horiz-adv-x="1116" 
d="M501 179c76 0 139.333 21.333 190 64s76 97 76 163v83l-250 -16c-138.667 -9.33301 -208 -59.333 -208 -150c0 -44 17.5 -79 52.5 -105s81.5 -39 139.5 -39zM428 -12c-108 0 -196.502 30 -265.502 90s-103.5 138.333 -103.5 235c0 97.333 36.167 173.333 108.5 228
s177.5 86.334 315.5 95.001l284 17v80c0 57.333 -18.5 101.5 -55.5 132.5s-89.167 46.5 -156.5 46.5c-56 0 -103 -13.333 -141 -40s-61.333 -62.334 -70 -107.001h-230c3.33301 100 46.833 182.167 130.5 246.5s189.834 96.5 318.501 96.5
c136.667 0 245.834 -32.667 327.501 -98s122.5 -152.333 122.5 -261v-749h-239v176h-6c-30 -58 -75.833 -103.833 -137.5 -137.5s-129.167 -50.5 -202.5 -50.5zM559.998 1201c-59.333 0 -109.333 20 -150 60s-61 89 -61 147c0 58.667 20.333 108.167 61 148.5
s90.667 60.5 150 60.5s109.333 -20.167 150 -60.5s61 -89.833 61 -148.5c0 -58 -20.333 -107 -61 -147s-90.667 -60 -150 -60zM455.998 1408c0 -28.667 10 -53 30 -73s44.667 -30 74 -30s54 10 74 30s30 44.333 30 73c0 29.333 -10 54 -30 74s-44.667 30 -74 30
s-54 -10 -74 -30s-30 -44.667 -30 -74zM477.998 1690l128 207h208l-169 -207h-167z" />
    <glyph glyph-name="AEacute" unicode="&#x1fc;" horiz-adv-x="2015" 
d="M1319 1552h-198l231 306h246zM820 1240l-280 -636h425v636h-145zM965 0v404h-507l-180 -404h-259l641 1443h1223v-217h-677v-397h640v-206h-640v-406h677v-217h-918z" />
    <glyph glyph-name="aeacute" unicode="&#x1fd;" horiz-adv-x="1816" 
d="M1006 1258h-201l218 307h245zM1276 -16c-90 0 -169.83 18.667 -239.497 56s-122.167 89.666 -157.5 156.999h-10c-40.667 -67.333 -95.167 -119 -163.5 -155s-148.166 -54 -239.499 -54c-124.667 0 -223.667 29.5 -297 88.5s-110 137.167 -110 234.5
c0 96.667 36.167 172.834 108.5 228.501s176.833 87.167 313.5 94.5l286 15v68c0 56.667 -20.667 103.334 -62 140.001s-94 55 -158 55c-60.667 0 -110.334 -13.333 -149.001 -40s-60.334 -62.334 -65.001 -107.001h-230c5.33301 102 48.166 184.667 128.499 248
s183.166 95 308.499 95c88 0 164.333 -16.333 229 -49s111.334 -77.667 140.001 -135h9c75.333 122.667 196.666 184 363.999 184c144 0 259 -48.5 345 -145.5s129 -228.5 129 -394.5v-81h-753v-16c0 -88.667 25.333 -159.667 76 -213s117.667 -80 201 -80
c58 0 107.333 13 148 39s68.667 62 84 108h234c-16.667 -102 -68 -184.333 -154 -247s-191.333 -94 -316 -94zM1266 914c-72.667 0 -133 -24 -181 -72s-74.667 -111.333 -80 -190h506c-2.66699 80.667 -26 144.5 -70 191.5s-102.333 70.5 -175 70.5zM493.003 176
c76.667 0 141.5 22.167 194.5 66.5s79.5 98.833 79.5 163.5v79l-257 -15c-66.667 -4 -118 -18.667 -154 -44s-54 -60 -54 -104s17.667 -79.333 53 -106s81.333 -40 138 -40z" />
    <glyph glyph-name="Oslashacute" unicode="&#x1fe;" horiz-adv-x="1525" 
d="M1165 1858l-279 -306h-198l231 306h246zM1099 1063l-562 -801.001c64.667 -44 140 -66 226 -66c128.667 0 231 47.333 307 142s114 222.334 114 383.001c0 137.333 -28.333 251.333 -85 342zM448 347.999l570 811c-70 58.667 -155 88 -255 88
c-128.667 0 -231 -47.333 -307 -142s-114 -222.667 -114 -384c0 -154 35.333 -278.333 106 -373zM1361 1436l-110 -157c130.667 -134.667 196 -320.667 196 -558c0 -229.333 -61.5 -410.833 -184.5 -544.5s-289.5 -200.5 -499.5 -200.5c-139.333 0 -260.333 30 -363 90
l-88 -125l-101 70l90 128c-72 65.333 -127.167 147.333 -165.5 246s-57.5 210.667 -57.5 336c0 229.333 61.5 411 184.5 545s289.833 201 500.5 201c152 0 283.333 -36.667 394 -110l100 142z" />
    <glyph glyph-name="oslashacute" unicode="&#x1ff;" horiz-adv-x="1173" 
d="M946 1565l-262 -307h-201l218 307h245zM812 774l-359 -556.001c38.667 -23.333 83 -35 133 -35c86 0 153.167 31.833 201.5 95.5s72.5 152.834 72.5 267.501c0 91.333 -16 167.333 -48 228zM366 308.999l363 559c-40.667 27.333 -88.334 41 -143.001 41
c-85.333 0 -152.166 -32 -200.499 -96s-72.5 -153 -72.5 -267c0 -95.333 17.667 -174.333 53 -237zM1015 1089l-69 -108c111.333 -102 167 -246.667 167 -434c0 -174 -47.333 -311.333 -142 -412s-223 -151 -385 -151c-94 0 -177.333 17.667 -250 53l-61 -95l-104 66l63 96
c-116 101.333 -174 249 -174 443c0 172 47.5 308.5 142.5 409.5s222.833 151.5 383.5 151.5c98 0 185 -19.333 261 -58l64 99z" />
    <glyph glyph-name="Adblgrave" unicode="&#x200;" horiz-adv-x="1369" 
d="M1070 0l-123 373h-531l-123 -373h-266l512 1443h291l512 -1443h-272zM678 1188l-202 -616h410l-201 616h-7zM773 1552l-279 306h239l231 -306h-191zM408 1552l-278 306h239l231 -306h-192z" />
    <glyph glyph-name="adblgrave" unicode="&#x201;" horiz-adv-x="1116" 
d="M501 179c76 0 139.333 21.333 190 64s76 97 76 163v83l-250 -16c-138.667 -9.33301 -208 -59.333 -208 -150c0 -44 17.5 -79 52.5 -105s81.5 -39 139.5 -39zM428 -12c-108 0 -196.502 30 -265.502 90s-103.5 138.333 -103.5 235c0 97.333 36.167 173.333 108.5 228
s177.5 86.334 315.5 95.001l284 17v80c0 57.333 -18.5 101.5 -55.5 132.5s-89.167 46.5 -156.5 46.5c-56 0 -103 -13.333 -141 -40s-61.333 -62.334 -70 -107.001h-230c3.33301 100 46.833 182.167 130.5 246.5s189.834 96.5 318.501 96.5
c136.667 0 245.834 -32.667 327.501 -98s122.5 -152.333 122.5 -261v-749h-239v176h-6c-30 -58 -75.833 -103.833 -137.5 -137.5s-129.167 -50.5 -202.5 -50.5zM478.998 1258h-182l-241 307h231zM829.998 1258h-182l-241 307h231z" />
    <glyph glyph-name="Ainvertedbreve" unicode="&#x202;" horiz-adv-x="1369" 
d="M1070 0l-123 373h-531l-123 -373h-266l512 1443h291l512 -1443h-272zM678 1188l-202 -616h410l-201 616h-7zM347 1546c1.33301 90 32.668 164.167 94.001 222.5s142.333 87.5 243 87.5s181.667 -29.167 243 -87.5s92.666 -132.5 93.999 -222.5h-156
c-0.666992 51.333 -18 94.166 -52 128.499s-77 51.5 -129 51.5s-95 -17.167 -129 -51.5s-51.333 -77.166 -52 -128.499h-156z" />
    <glyph glyph-name="ainvertedbreve" unicode="&#x203;" horiz-adv-x="1116" 
d="M501 179c76 0 139.333 21.333 190 64s76 97 76 163v83l-250 -16c-138.667 -9.33301 -208 -59.333 -208 -150c0 -44 17.5 -79 52.5 -105s81.5 -39 139.5 -39zM428 -12c-108 0 -196.502 30 -265.502 90s-103.5 138.333 -103.5 235c0 97.333 36.167 173.333 108.5 228
s177.5 86.334 315.5 95.001l284 17v80c0 57.333 -18.5 101.5 -55.5 132.5s-89.167 46.5 -156.5 46.5c-56 0 -103 -13.333 -141 -40s-61.333 -62.334 -70 -107.001h-230c3.33301 100 46.833 182.167 130.5 246.5s189.834 96.5 318.501 96.5
c136.667 0 245.834 -32.667 327.501 -98s122.5 -152.333 122.5 -261v-749h-239v176h-6c-30 -58 -75.833 -103.833 -137.5 -137.5s-129.167 -50.5 -202.5 -50.5zM213.998 1252c1.33301 93.333 33.333 169.666 96 228.999s145.667 89 249 89s186.333 -29.667 249 -89
s94.667 -135.666 96 -228.999h-159c-0.666992 52.667 -18.5 96.667 -53.5 132s-79.167 53 -132.5 53s-97.5 -17.667 -132.5 -53s-52.833 -79.333 -53.5 -132h-159z" />
    <glyph glyph-name="Edblgrave" unicode="&#x204;" horiz-adv-x="1158" 
d="M683 1552l-279 306h239l231 -306h-191zM318 1552l-278 306h239l231 -306h-192zM1061 218v-218h-934v1443h934v-218h-676v-390h639v-205h-639v-412h676z" />
    <glyph glyph-name="edblgrave" unicode="&#x205;" horiz-adv-x="1135" 
d="M574 914c-72.667 0 -133.332 -24.167 -181.999 -72.5s-75.667 -111.5 -81 -189.5h518c-2.66699 78.667 -27.334 142 -74.001 190s-107 72 -181 72zM830.002 325h234.001c-16 -101.333 -68.333 -183.5 -157 -246.5s-196.667 -94.5 -324 -94.5
c-161.333 0 -288.833 50 -382.5 150s-140.5 236 -140.5 408s46.5 309.333 139.5 412s217.833 154 374.5 154c153.333 0 275 -48.667 365 -146s135 -228.666 135 -393.999v-82h-765v-15c0 -88 25.667 -158.833 77 -212.5s118.666 -80.5 201.999 -80.5
c60 0 111.667 13.167 155 39.5s72.333 62.166 87 107.499zM493.003 1258h-182l-241 307h231zM844.003 1258h-182l-241 307h231z" />
    <glyph glyph-name="Einvertedbreve" unicode="&#x206;" horiz-adv-x="1158" 
d="M1061 218v-218h-934v1443h934v-218h-676v-390h639v-205h-639v-412h676zM257 1546c1.33301 90 32.668 164.167 94.001 222.5s142.333 87.5 243 87.5s181.667 -29.167 243 -87.5s92.666 -132.5 93.999 -222.5h-156c-0.666992 51.333 -18 94.166 -52 128.499
s-77 51.5 -129 51.5s-95 -17.167 -129 -51.5s-51.333 -77.166 -52 -128.499h-156z" />
    <glyph glyph-name="einvertedbreve" unicode="&#x207;" horiz-adv-x="1135" 
d="M574 914c-72.667 0 -133.332 -24.167 -181.999 -72.5s-75.667 -111.5 -81 -189.5h518c-2.66699 78.667 -27.334 142 -74.001 190s-107 72 -181 72zM830.002 325h234.001c-16 -101.333 -68.333 -183.5 -157 -246.5s-196.667 -94.5 -324 -94.5
c-161.333 0 -288.833 50 -382.5 150s-140.5 236 -140.5 408s46.5 309.333 139.5 412s217.833 154 374.5 154c153.333 0 275 -48.667 365 -146s135 -228.666 135 -393.999v-82h-765v-15c0 -88 25.667 -158.833 77 -212.5s118.666 -80.5 201.999 -80.5
c60 0 111.667 13.167 155 39.5s72.333 62.166 87 107.499zM228.003 1252c1.33301 93.333 33.333 169.666 96 228.999s145.667 89 249 89s186.333 -29.667 249 -89s94.667 -135.666 96 -228.999h-159c-0.666992 52.667 -18.5 96.667 -53.5 132s-79.167 53 -132.5 53
s-97.5 -17.667 -132.5 -53s-52.833 -79.333 -53.5 -132h-159z" />
    <glyph glyph-name="Idblgrave" unicode="&#x208;" horiz-adv-x="512" 
d="M385 0h-258v1443h258v-1443zM345 1552l-279 306h239l231 -306h-191zM-20 1552l-278 306h239l231 -306h-192z" />
    <glyph glyph-name="idblgrave" unicode="&#x209;" horiz-adv-x="475" 
d="M113 0v1093h249v-1093h-249zM157 1258h-182l-241 307h231zM508 1258h-182l-241 307h231z" />
    <glyph glyph-name="Iinvertedbreve" unicode="&#x20a;" horiz-adv-x="512" 
d="M385 0h-258v1443h258v-1443zM-81 1546c1.33301 90 32.668 164.167 94.001 222.5s142.333 87.5 243 87.5s181.667 -29.167 243 -87.5s92.666 -132.5 93.999 -222.5h-156c-0.666992 51.333 -18 94.166 -52 128.499s-77 51.5 -129 51.5s-95 -17.167 -129 -51.5
s-51.333 -77.166 -52 -128.499h-156z" />
    <glyph glyph-name="iinvertedbreve" unicode="&#x20b;" horiz-adv-x="475" 
d="M113 0v1093h249v-1093h-249zM-108 1252c1.33301 93.333 33.333 169.666 96 228.999s145.667 89 249 89s186.333 -29.667 249 -89s94.667 -135.666 96 -228.999h-159c-0.666992 52.667 -18.5 96.667 -53.5 132s-79.167 53 -132.5 53s-97.5 -17.667 -132.5 -53
s-52.833 -79.333 -53.5 -132h-159z" />
    <glyph glyph-name="Odblgrave" unicode="&#x20c;" horiz-adv-x="1525" 
d="M852 1552l-279 306h239l231 -306h-191zM487 1552l-278 306h239l231 -306h-192zM763 1467c210 0 376.5 -67 499.5 -201s184.5 -315.667 184.5 -545s-61.5 -410.833 -184.5 -544.5s-289.5 -200.5 -499.5 -200.5c-210.667 0 -377.5 66.833 -500.5 200.5
s-184.5 315.167 -184.5 544.5s61.5 411 184.5 545s289.833 201 500.5 201zM763 1247c-128.667 0 -231 -47.333 -307 -142s-114 -222.667 -114 -384c0 -160.667 38 -288.334 114 -383.001s178.333 -142 307 -142s231 47.333 307 142s114 222.334 114 383.001
s-38 288.5 -114 383.5s-178.333 142.5 -307 142.5z" />
    <glyph glyph-name="odblgrave" unicode="&#x20d;" horiz-adv-x="1173" 
d="M586 -16c-161.333 0 -289.333 50.334 -384 151.001s-142 238 -142 412c0 172 47.5 308.5 142.5 409.5s222.833 151.5 383.5 151.5c161.333 0 289.5 -50.333 384.5 -151s142.5 -237.334 142.5 -410.001c0 -174 -47.333 -311.333 -142 -412s-223 -151 -385 -151z
M586 183.001c86 0 153.167 31.832 201.5 95.499s72.5 152.834 72.5 267.501c0 114 -24.167 203 -72.5 267s-115.5 96 -201.5 96c-85.333 0 -152.166 -32 -200.499 -96s-72.5 -153 -72.5 -267s24.167 -203 72.5 -267s115.166 -96 200.499 -96zM506 1258h-182l-241 307h231z
M857 1258h-182l-241 307h231z" />
    <glyph glyph-name="Oinvertedbreve" unicode="&#x20e;" horiz-adv-x="1525" 
d="M426 1546c1.33301 90 32.668 164.167 94.001 222.5s142.333 87.5 243 87.5s181.667 -29.167 243 -87.5s92.666 -132.5 93.999 -222.5h-156c-0.666992 51.333 -18 94.166 -52 128.499s-77 51.5 -129 51.5s-95 -17.167 -129 -51.5s-51.333 -77.166 -52 -128.499h-156z
M763.002 1467c210 0 376.5 -67 499.5 -201s184.5 -315.667 184.5 -545s-61.5 -410.833 -184.5 -544.5s-289.5 -200.5 -499.5 -200.5c-210.667 0 -377.5 66.833 -500.5 200.5s-184.5 315.167 -184.5 544.5s61.5 411 184.5 545s289.833 201 500.5 201zM763.002 1247
c-128.667 0 -231 -47.333 -307 -142s-114 -222.667 -114 -384c0 -160.667 38 -288.334 114 -383.001s178.333 -142 307 -142s231 47.333 307 142s114 222.334 114 383.001s-38 288.5 -114 383.5s-178.333 142.5 -307 142.5z" />
    <glyph glyph-name="oinvertedbreve" unicode="&#x20f;" horiz-adv-x="1173" 
d="M586 -16c-161.333 0 -289.333 50.334 -384 151.001s-142 238 -142 412c0 172 47.5 308.5 142.5 409.5s222.833 151.5 383.5 151.5c161.333 0 289.5 -50.333 384.5 -151s142.5 -237.334 142.5 -410.001c0 -174 -47.333 -311.333 -142 -412s-223 -151 -385 -151z
M586 183.001c86 0 153.167 31.832 201.5 95.499s72.5 152.834 72.5 267.501c0 114 -24.167 203 -72.5 267s-115.5 96 -201.5 96c-85.333 0 -152.166 -32 -200.499 -96s-72.5 -153 -72.5 -267s24.167 -203 72.5 -267s115.166 -96 200.499 -96zM241 1252
c1.33301 93.333 33.333 169.666 96 228.999s145.667 89 249 89s186.333 -29.667 249 -89s94.667 -135.666 96 -228.999h-159c-0.666992 52.667 -18.5 96.667 -53.5 132s-79.167 53 -132.5 53s-97.5 -17.667 -132.5 -53s-52.833 -79.333 -53.5 -132h-159z" />
    <glyph glyph-name="Rdblgrave" unicode="&#x210;" horiz-adv-x="1287" 
d="M676 1552l-279 306h239l231 -306h-191zM311 1552l-278 306h239l231 -306h-192zM385 1234v-493h298c82 0 145.5 21.667 190.5 65s67.5 104 67.5 182c0 76 -23.5 136 -70.5 180s-111.5 66 -193.5 66h-292zM385 543v-542.998h-258v1443h580
c155.333 0 277.333 -40.167 366 -120.5s133 -189.833 133 -328.5c0 -96.667 -24 -181.834 -72 -255.501s-114.667 -125.834 -200 -156.501l315 -582h-295l-283 543h-286z" />
    <glyph glyph-name="rdblgrave" unicode="&#x211;" horiz-adv-x="719" 
d="M106 0l0.00195312 1093h239v-190h5c17.333 64 49.166 113.667 95.499 149s101.833 53 166.5 53c32 0 58.667 -3.33301 80 -10v-226c-24.667 9.33301 -59 14 -103 14c-72.667 0 -129.834 -22.167 -171.501 -66.5s-62.5 -105.166 -62.5 -182.499v-634h-249zM310.002 1258
h-182l-241 307h231zM661.002 1258h-182l-241 307h231z" />
    <glyph glyph-name="Rinvertedbreve" unicode="&#x212;" horiz-adv-x="1287" 
d="M385 1234v-493h298c82 0 145.5 21.667 190.5 65s67.5 104 67.5 182c0 76 -23.5 136 -70.5 180s-111.5 66 -193.5 66h-292zM385 543v-542.998h-258v1443h580c155.333 0 277.333 -40.167 366 -120.5s133 -189.833 133 -328.5c0 -96.667 -24 -181.834 -72 -255.501
s-114.667 -125.834 -200 -156.501l315 -582h-295l-283 543h-286zM250 1546c1.33301 90 32.668 164.167 94.001 222.5s142.333 87.5 243 87.5s181.667 -29.167 243 -87.5s92.666 -132.5 93.999 -222.5h-156c-0.666992 51.333 -18 94.166 -52 128.499s-77 51.5 -129 51.5
s-95 -17.167 -129 -51.5s-51.333 -77.166 -52 -128.499h-156z" />
    <glyph glyph-name="rinvertedbreve" unicode="&#x213;" horiz-adv-x="719" 
d="M106 0l0.00195312 1093h239v-190h5c17.333 64 49.166 113.667 95.499 149s101.833 53 166.5 53c32 0 58.667 -3.33301 80 -10v-226c-24.667 9.33301 -59 14 -103 14c-72.667 0 -129.834 -22.167 -171.501 -66.5s-62.5 -105.166 -62.5 -182.499v-634h-249zM45.002 1252
c1.33301 93.333 33.333 169.666 96 228.999s145.667 89 249 89s186.333 -29.667 249 -89s94.667 -135.666 96 -228.999h-159c-0.666992 52.667 -18.5 96.667 -53.5 132s-79.167 53 -132.5 53s-97.5 -17.667 -132.5 -53s-52.833 -79.333 -53.5 -132h-159z" />
    <glyph glyph-name="Udblgrave" unicode="&#x214;" horiz-adv-x="1441" 
d="M809 1552l-279 306h239l231 -306h-191zM444 1552l-278 306h239l231 -306h-192zM385 1443l0.000976562 -911c0 -100 29.5 -180.167 88.5 -240.5s141.167 -90.5 246.5 -90.5s187.666 30.167 246.999 90.5s89 140.5 89 240.5v911h257v-934
c0 -159.333 -53.5 -288 -160.5 -386s-251.167 -147 -432.5 -147c-180.667 0 -324.667 49 -432 147s-161 226.667 -161 386v934h258z" />
    <glyph glyph-name="udblgrave" unicode="&#x215;" horiz-adv-x="1174" 
d="M1068 1093l-0.000976562 -1093h-239v191h-6c-61.333 -136.667 -173 -205 -335 -205c-119.333 0 -213.666 36.167 -282.999 108.5s-104 171.5 -104 297.5v701h249v-651c0 -80 19 -140.833 57 -182.5s93.667 -62.5 167 -62.5c75.333 0 135 24.5 179 73.5
s66 114.167 66 195.5v627h249zM504.999 1258h-182l-241 307h231zM855.999 1258h-182l-241 307h231z" />
    <glyph glyph-name="Uinvertedbreve" unicode="&#x216;" horiz-adv-x="1441" 
d="M385 1443l0.000976562 -911c0 -100 29.5 -180.167 88.5 -240.5s141.167 -90.5 246.5 -90.5s187.666 30.167 246.999 90.5s89 140.5 89 240.5v911h257v-934c0 -159.333 -53.5 -288 -160.5 -386s-251.167 -147 -432.5 -147c-180.667 0 -324.667 49 -432 147
s-161 226.667 -161 386v934h258zM383.001 1546c1.33301 90 32.668 164.167 94.001 222.5s142.333 87.5 243 87.5s181.667 -29.167 243 -87.5s92.666 -132.5 93.999 -222.5h-156c-0.666992 51.333 -18 94.166 -52 128.499s-77 51.5 -129 51.5s-95 -17.167 -129 -51.5
s-51.333 -77.166 -52 -128.499h-156z" />
    <glyph glyph-name="uinvertedbreve" unicode="&#x217;" horiz-adv-x="1174" 
d="M1068 1093l-0.000976562 -1093h-239v191h-6c-61.333 -136.667 -173 -205 -335 -205c-119.333 0 -213.666 36.167 -282.999 108.5s-104 171.5 -104 297.5v701h249v-651c0 -80 19 -140.833 57 -182.5s93.667 -62.5 167 -62.5c75.333 0 135 24.5 179 73.5
s66 114.167 66 195.5v627h249zM239.999 1252c1.33301 93.333 33.333 169.666 96 228.999s145.667 89 249 89s186.333 -29.667 249 -89s94.667 -135.666 96 -228.999h-159c-0.666992 52.667 -18.5 96.667 -53.5 132s-79.167 53 -132.5 53s-97.5 -17.667 -132.5 -53
s-52.833 -79.333 -53.5 -132h-159z" />
    <glyph glyph-name="Scommaaccent" unicode="&#x218;" horiz-adv-x="1265" 
d="M68 406l249.999 0.000976562c8 -66 42 -119.167 102 -159.5s134.333 -60.5 223 -60.5c86.667 0 157.5 19.333 212.5 58s82.5 88 82.5 148c0 52 -20 94.167 -60 126.5s-105.333 59.166 -196 80.499l-187 44c-132.667 30.667 -231.167 78.334 -295.5 143.001
s-96.5 148.667 -96.5 252c0 127.333 50 230.666 150 309.999s229 119 387 119c158.667 0 286.5 -39.167 383.5 -117.5s147.167 -181.166 150.5 -308.499h-246c-6 67.333 -35 120.166 -87 158.499s-119.667 57.5 -203 57.5c-81.333 0 -147.166 -18.333 -197.499 -55
s-75.5 -85 -75.5 -145c0 -48 19.5 -87 58.5 -117s102.833 -55.667 191.5 -77l166 -38c146 -33.333 252 -82 318 -146s99 -149.667 99 -257c0 -136.667 -51.167 -245.167 -153.5 -325.5s-240.833 -120.5 -415.5 -120.5c-166.667 0 -300.5 38.5 -401.5 115.5
s-154.167 181.833 -159.5 314.5zM610.999 -514.999h-183l110 354h219z" />
    <glyph glyph-name="scommaaccent" unicode="&#x219;" horiz-adv-x="1044" 
d="M87 777c0 99.333 40.333 179.332 121 239.999s186.667 91 318 91c126 0 229 -30.833 309 -92.5s121.333 -142.167 124 -241.5h-232c-4 46 -24.5 82.5 -61.5 109.5s-85.167 40.5 -144.5 40.5c-58 0 -104.5 -12.167 -139.5 -36.5s-52.5 -56.5 -52.5 -96.5
c0 -60.667 53 -103.334 159 -128.001l192 -44c110 -25.333 188.167 -60.666 234.5 -105.999s69.5 -108.333 69.5 -189c0 -101.333 -43 -183.333 -129 -246s-197.667 -94 -335 -94c-133.333 0 -241.5 30.833 -324.5 92.5s-128.5 143.5 -136.5 245.5h245
c7.33301 -49.333 30.5 -87.333 69.5 -114s91.167 -40 156.5 -40c63.333 0 113.5 11.833 150.5 35.5s55.5 55.834 55.5 96.501c0 32 -11.167 57.5 -33.5 76.5s-60.833 34.833 -115.5 47.5l-198 48c-201.333 47.333 -302 149 -302 305zM498 -515.001h-183l110 354h219z" />
    <glyph glyph-name="Tcommaaccent" unicode="&#x21a;" horiz-adv-x="1230" 
d="M595 -515h-183l110 354h219zM744 0h-258v1225h-438v218h1134v-218h-438v-1225z" />
    <glyph glyph-name="tcommaaccent" unicode="&#x21b;" horiz-adv-x="702" 
d="M383 -515h-183l110 354h219zM176 1337h248.999v-244h207v-193h-207v-576c0 -88.667 44 -133 132 -133c22.667 0 47.334 1.66699 74.001 5v-191c-30 -6.66699 -73.667 -10 -131 -10c-116 0 -199 22.833 -249 68.5s-75 121.167 -75 226.5v610h-149v193h149v244z" />
    <glyph glyph-name="Hcaron" unicode="&#x21e;" horiz-adv-x="1471" 
d="M1344 0h-257v626h-702v-626h-258v1443h258v-600h702v600h257v-1443zM638 1546l-281 310h203l174 -198h4l174 198h203l-281 -310h-196z" />
    </font>
</defs>
</svg>
