<svg width="77" height="19" viewBox="0 0 77 19" fill="none" xmlns="http://www.w3.org/2000/svg">
<path d="M5.52332 0.912715C6.84983 0.912715 7.9325 1.34067 8.77132 2.19659C9.61014 3.05251 10.0296 4.16056 10.0296 5.52074C10.0296 6.88092 9.60689 7.99228 8.76157 8.85484C7.91624 9.71739 6.83032 10.1487 5.50381 10.1487H1.9632V15.2742H0.20752V0.912715H5.52332ZM1.9632 8.55626H5.06489C6.06628 8.55626 6.84333 8.28754 7.39604 7.75011C7.94875 7.2193 8.22511 6.47618 8.22511 5.52074C8.22511 4.5653 7.952 3.82549 7.40579 3.30132C6.85308 2.77052 6.07278 2.50512 5.06489 2.50512H1.9632V8.55626Z" fill="black"/>
<path d="M11.834 4.54539H13.4336V6.28708H13.4726C13.6287 5.72311 13.9376 5.27524 14.3992 4.94349C14.8609 4.61174 15.4006 4.44586 16.0184 4.44586C16.285 4.44586 16.5028 4.46909 16.6719 4.51553V6.22737C16.4898 6.14775 16.1972 6.10794 15.794 6.10794C15.1113 6.10794 14.5651 6.34016 14.1554 6.80462C13.7392 7.26907 13.5312 7.87949 13.5312 8.63588V15.2742H11.834V4.54539Z" fill="black"/>
<path d="M22.0169 15.3737C20.5409 15.3737 19.3639 14.8794 18.4861 13.8908C17.6082 12.9022 17.1693 11.5752 17.1693 9.90981C17.1693 8.24442 17.6082 6.91741 18.4861 5.92879C19.3639 4.94017 20.5409 4.44586 22.0169 4.44586C23.493 4.44586 24.6699 4.94017 25.5478 5.92879C26.4256 6.91741 26.8645 8.24442 26.8645 9.90981C26.8645 11.5752 26.4256 12.9022 25.5478 13.8908C24.6699 14.8794 23.493 15.3737 22.0169 15.3737ZM22.0169 13.8311C22.9988 13.8311 23.7628 13.4861 24.3091 12.796C24.8618 12.0994 25.1381 11.1373 25.1381 9.90981C25.1381 8.67569 24.8618 7.71361 24.3091 7.02357C23.7628 6.33353 22.9988 5.98851 22.0169 5.98851C21.035 5.98851 20.271 6.33353 19.7248 7.02357C19.1721 7.72025 18.8957 8.68233 18.8957 9.90981C18.8957 11.1373 19.1721 12.0994 19.7248 12.796C20.2775 13.4861 21.0415 13.8311 22.0169 13.8311Z" fill="black"/>
<path d="M36.4037 11.1638H30.8051L29.3908 15.2742H27.5473L32.7363 0.912715H34.4725L39.6615 15.2742H37.818L36.4037 11.1638ZM31.322 9.64109H35.8868L33.6336 3.09232H33.5751L31.322 9.64109Z" fill="black"/>
<path d="M46.1087 4.44586C47.4547 4.44586 48.5406 4.94681 49.3665 5.9487C50.1988 6.95722 50.6149 8.27759 50.6149 9.90981C50.6149 11.542 50.202 12.8624 49.3762 13.8709C48.5504 14.8728 47.4742 15.3737 46.1477 15.3737C44.6066 15.3737 43.4882 14.76 42.7924 13.5325H42.7534V18.8571H41.0563V4.54539H42.6656V6.28708H42.7046C43.0103 5.72974 43.4719 5.28188 44.0897 4.94349C44.7074 4.61174 45.3804 4.44586 46.1087 4.44586ZM45.7966 13.8311C46.7264 13.8311 47.471 13.4761 48.0302 12.7662C48.5959 12.0496 48.8788 11.0975 48.8788 9.90981C48.8788 8.72877 48.5959 7.77996 48.0302 7.06338C47.471 6.3468 46.7264 5.98851 45.7966 5.98851C44.8927 5.98851 44.158 6.35012 43.5922 7.07333C43.0265 7.79655 42.7437 8.74204 42.7437 9.90981C42.7437 11.0776 43.0265 12.0231 43.5922 12.7463C44.1515 13.4695 44.8862 13.8311 45.7966 13.8311Z" fill="black"/>
<path d="M57.4621 4.44586C58.8081 4.44586 59.894 4.94681 60.7198 5.9487C61.5522 6.95722 61.9683 8.27759 61.9683 9.90981C61.9683 11.542 61.5554 12.8624 60.7296 13.8709C59.9038 14.8728 58.8276 15.3737 57.5011 15.3737C55.96 15.3737 54.8416 14.76 54.1458 13.5325H54.1068V18.8571H52.4096V4.54539H54.019V6.28708H54.058C54.3636 5.72974 54.8253 5.28188 55.4431 4.94349C56.0608 4.61174 56.7338 4.44586 57.4621 4.44586ZM57.15 13.8311C58.0798 13.8311 58.8244 13.4761 59.3836 12.7662C59.9493 12.0496 60.2321 11.0975 60.2321 9.90981C60.2321 8.72877 59.9493 7.77996 59.3836 7.06338C58.8244 6.3468 58.0798 5.98851 57.15 5.98851C56.2461 5.98851 55.5113 6.35012 54.9456 7.07333C54.3799 7.79655 54.097 8.74204 54.097 9.90981C54.097 11.0776 54.3799 12.0231 54.9456 12.7463C55.5048 13.4695 56.2396 13.8311 57.15 13.8311Z" fill="black"/>
<path d="M63.8605 0.285706H65.5577V15.2742H63.8605V0.285706Z" fill="black"/>
<path d="M72.1512 5.9686C71.3254 5.9686 70.6427 6.24727 70.103 6.80462C69.5567 7.36196 69.2544 8.09513 69.1959 9.00413H74.9798C74.9603 8.09513 74.6905 7.36196 74.1703 6.80462C73.6566 6.24727 72.9836 5.9686 72.1512 5.9686ZM76.6185 12.2088C76.4754 13.1311 75.9942 13.8875 75.1749 14.478C74.3556 15.0752 73.3835 15.3737 72.2585 15.3737C70.7825 15.3737 69.6088 14.8861 68.7374 13.9107C67.8726 12.9354 67.4402 11.615 67.4402 9.94962C67.4402 8.28423 67.8726 6.95059 68.7374 5.9487C69.6023 4.94681 70.75 4.44586 72.1805 4.44586C73.585 4.44586 74.697 4.91695 75.5163 5.85912C76.3356 6.80793 76.7453 8.09181 76.7453 9.71076V10.3875H69.1959V10.4871C69.1959 11.5088 69.4787 12.325 70.0444 12.9354C70.6101 13.5458 71.3612 13.851 72.2975 13.851C72.9543 13.851 73.5233 13.7017 74.0045 13.4031C74.4791 13.1112 74.7913 12.7131 74.9408 12.2088H76.6185Z" fill="black"/>
</svg>
